{
.appVersion = "1286";
copyright = "Digitized data copyright © 2020, Google Corporation.";
customParameters = (
{
name = description;
value = "Droid Sans is a humanist sans serif typeface designed for user interfaces and electronic communication.";
},
{
name = trademark;
value = "Droid is a trademark of Google and may be registered in certain jurisdictions.";
},
{
name = licenseURL;
value = "http://www.apache.org/licenses/LICENSE-2.0";
},
{
name = license;
value = "Licensed under the Apache License, Version 2.0";
},
{
name = vendorID;
value = GOOG;
},
{
name = panose;
value = (
2,
11,
6,
6,
3,
8,
4,
2,
2,
4
);
},
{
name = unicodeRanges;
value = (
0,
1,
2,
3,
5,
6,
7,
9,
29,
30,
31,
32,
33,
35,
36,
38,
45,
62,
67,
69,
80
);
},
{
name = glyphOrder;
value = (
.notdef,
.null,
CR,
space,
exclam,
quotedbl,
numbersign,
dollar,
percent,
ampersand,
quotesingle,
parenleft,
parenright,
asterisk,
plus,
comma,
hyphen,
period,
slash,
zero,
one,
two,
three,
four,
five,
six,
seven,
eight,
nine,
colon,
semicolon,
less,
equal,
greater,
question,
at,
braceleft,
bar,
braceright,
asciitilde,
uni200B,
guillemotleft,
uni00AD,
guillemotright,
uni1780,
uni1781,
uni1782,
uni1783,
uni1784,
uni1785,
uni1786,
uni1787,
uni1788,
uni1789,
uni178A,
uni178B,
uni178C,
uni178D,
uni178E,
uni178F,
uni1790,
uni1791,
uni1792,
uni1793,
uni1794,
uni1795,
uni1796,
uni1797,
uni1798,
uni1799,
uni179A,
uni179B,
uni179C,
uni179D,
uni179E,
uni179F,
uni17A0,
uni17A1,
uni17A2,
uni17A3,
uni17A4,
uni17A5,
uni17A6,
uni17A7,
uni17A8,
uni17A9,
uni17AA,
uni17AB,
uni17AC,
uni17AD,
uni17AE,
uni17AF,
uni17B0,
uni17B1,
uni17B2,
uni17B3,
uni17B6,
uni17B7,
uni17B8,
uni17B9,
uni17BA,
uni17BB,
uni17BC,
uni17BD,
uni17BE,
uni17BF,
uni17C0,
uni17C1,
uni17C2,
uni17C3,
uni17C4,
uni17C5,
uni17C6,
uni17C7,
uni17C8,
uni17C9,
uni17CA,
uni17CB,
uni17CC,
uni17CD,
uni17CE,
uni17CF,
uni17D0,
uni17D1,
uni17D2,
uni17D3,
uni17D4,
uni17D5,
uni17D6,
uni17D7,
uni17D8,
uni17D9,
uni17DA,
uni17DB,
uni17E0,
uni17E1,
uni17E2,
uni17E3,
uni17E4,

glyphs = (
{
glyphname = exclam;
lastChange = "2020-02-04 08:34:44 +0000";
layers = (
{
layerId = "372009DC-CA12-41C8-98C7-C44FC6D5F55D";
paths = (
{
closed = 1;
nodes = (
"85 66 OFFCURVE",
"210 -25 OFFCURVE",
"296 -25 QCURVE SMOOTH",
"380 -25 OFFCURVE",
"503 66 OFFCURVE",
"503 166 QCURVE SMOOTH",
"503 272 OFFCURVE",
"380 358 OFFCURVE",
"296 358 QCURVE SMOOTH",
"210 358 OFFCURVE",
"85 272 OFFCURVE",
"85 166 QCURVE",
"85 166 LINE"
);
},
{
closed = 1;
nodes = (
"513 1462 LINE",
"81 1462 LINE",
"132 516 LINE",
"462 516 LINE",
"462 516 LINE"
);
}
);
width = 593;
},
{
layerId = "A36153DC-C9CC-437F-8D19-86D84E7E38EA";
paths = (
{
closed = 1;
nodes = (
"117 62 OFFCURVE",
"209 -27 OFFCURVE",
"293 -27 QCURVE SMOOTH",
"375 -27 OFFCURVE",
"467 64 OFFCURVE",
"467 143 QCURVE SMOOTH",
"467 225 OFFCURVE",
"376 313 OFFCURVE",
"293 313 QCURVE SMOOTH",
"207 313 OFFCURVE",
"117 227 OFFCURVE",
"117 143 QCURVE",
"117 143 LINE"
);
},
{
closed = 1;
nodes = (
"467 1462 LINE",
"121 1462 LINE",
"172 485 LINE",
"416 485 LINE",
"416 485 LINE"
);
}
);
width = 586;
},
{
layerId = "607A0539-44D7-4182-901A-4BFA5CCC01F8";
paths = (
{
closed = 1;
nodes = (
"147 74 OFFCURVE",
"167 21 OFFCURVE",
"201 -13 OFFCURVE",
"247 -29 OFFCURVE",
"274 -29 QCURVE SMOOTH",
"300 -29 OFFCURVE",
"347 -13 OFFCURVE",
"381 21 OFFCURVE",
"401 74 OFFCURVE",
"401 111 QCURVE SMOOTH",
"401 149 OFFCURVE",
"381 202 OFFCURVE",
"347 235 OFFCURVE",
"300 250 OFFCURVE",
"274 250 QCURVE SMOOTH",
"247 250 OFFCURVE",
"201 235 OFFCURVE",
"167 202 OFFCURVE",
"147 149 OFFCURVE",
"147 111 QCURVE",
"147 111 LINE"
);
},
{
closed = 1;
nodes = (
"387 1462 LINE",
"164 1462 LINE",
"215 414 LINE",
"336 414 LINE",
"336 414 LINE"
);
}
);
width = 551;
},
{
layerId = "DF847F4E-D23C-40FA-8597-1D02BA148938";
paths = (
{
closed = 1;
nodes = (
"159 -23 OFFCURVE",
"249 -23 QCURVE SMOOTH",
"339 -23 OFFCURVE",
"339 78 QCURVE SMOOTH",
"339 178 OFFCURVE",
"249 178 QCURVE SMOOTH",
"159 178 OFFCURVE",
"159 78 QCURVE",
"159 78 LINE"
);
},
{
closed = 1;
nodes = (
"323 1462 LINE",
"184 1462 LINE",
"210 385 LINE",
"294 385 LINE",
"294 385 LINE"
);
}
);
width = 503;
},
{
layerId = "3BE6379C-89A1-45B5-97C8-F079248A4F49";
paths = (
{
closed = 1;
nodes = (
"174 20 OFFCURVE",
"194 -16 OFFCURVE",
"225 -16 QCURVE SMOOTH",
"262 -16 OFFCURVE",
"280 20 OFFCURVE",
"280 47 QCURVE SMOOTH",
"280 72 OFFCURVE",
"262 111 OFFCURVE",
"225 111 QCURVE SMOOTH",
"194 111 OFFCURVE",
"174 72 OFFCURVE",
"174 47 QCURVE",
"174 47 LINE"
);
},
{
closed = 1;
nodes = (
"260 1462 LINE",
"201 1462 LINE",
"205 356 LINE",
"256 356 LINE",
"256 356 LINE"
);
}
);
width = 456;
}
);
note = exclam;
unicode = 0021;
},
{
glyphname = quotedbl;
lastChange = "2020-02-04 08:34:44 +0000";
layers = (
{
layerId = "372009DC-CA12-41C8-98C7-C44FC6D5F55D";
paths = (
{
closed = 1;
nodes = (
"120 1462 LINE",
"161 934 LINE",
"435 934 LINE",
"476 1462 LINE",
"476 1462 LINE"
);
},
{
closed = 1;
nodes = (
"595 1462 LINE",
"636 934 LINE",
"911 934 LINE",
"951 1462 LINE",
"951 1462 LINE"
);
}
);
width = 1073;
},
{
layerId = "A36153DC-C9CC-437F-8D19-86D84E7E38EA";
paths = (
{
closed = 1;
nodes = (
"133 1462 LINE",
"174 934 LINE",
"371 934 LINE",
"412 1462 LINE",
"412 1462 LINE"
);
},
{
closed = 1;
nodes = (
"555 1462 LINE",
"596 934 LINE",
"793 934 LINE",
"834 1462 LINE",
"834 1462 LINE"
);
}
);
width = 967;
},
{
layerId = "607A0539-44D7-4182-901A-4BFA5CCC01F8";
paths = (
{
closed = 1;
nodes = (
"133 1462 LINE",
"174 934 LINE",
"289 934 LINE",
"330 1462 LINE",
"330 1462 LINE"
);
},
{
closed = 1;
nodes = (
"494 1462 LINE",
"535 934 LINE",
"649 934 LINE",
"690 1462 LINE",
"690 1462 LINE"
);
}
);
userData = {
assembly = "NPUSHB[ ]	/* 41 values pushed */\0125 3 4 3 1 0 0 1 87 5 3 4 3 1 1 0 95 2 1 0 1 0 79 4 4 0 0 4 7 4 7 6 5 0 3 0 3 17 6 6 23 \012CALL[ ]	/* CallFunction */";
};
width = 823;
},
{
layerId = "DF847F4E-D23C-40FA-8597-1D02BA148938";
paths = (
{
closed = 1;
nodes = (
"141 1462 LINE",
"166 934 LINE",
"241 934 LINE",
"266 1462 LINE",
"266 1462 LINE"
);
},
{
closed = 1;
nodes = (
"479 1462 LINE",
"503 934 LINE",
"579 934 LINE",
"604 1462 LINE",
"604 1462 LINE"
);
}
);
width = 745;
},
{
layerId = "3BE6379C-89A1-45B5-97C8-F079248A4F49";
paths = (
{
closed = 1;
nodes = (
"149 1462 LINE",
"157 934 LINE",
"198 934 LINE",
"206 1462 LINE",
"206 1462 LINE"
);
},
{
closed = 1;
nodes = (
"448 1462 LINE",
"456 934 LINE",
"497 934 LINE",
"505 1462 LINE",
"505 1462 LINE"
);
}
);
width = 655;
}
);
note = quotedbl;
unicode = 0022;
},
{
glyphname = numbersign;
lastChange = "2020-02-04 08:34:44 +0000";
layers = (
{
layerId = "372009DC-CA12-41C8-98C7-C44FC6D5F55D";
paths = (
{
closed = 1;
nodes = (
"1318 813 LINE",
"1318 1073 LINE",
"1089 1073 LINE",
"1162 1462 LINE",
"894 1462 LINE",
"822 1073 LINE",
"657 1073 LINE",
"730 1462 LINE",
"462 1462 LINE",
"390 1073 LINE",
"104 1073 LINE",
"104 813 LINE",
"341 813 LINE",
"310 645 LINE",
"36 645 LINE",
"36 391 LINE",
"261 391 LINE",
"190 0 LINE",
"456 0 LINE",
"528 391 LINE",
"695 391 LINE",
"622 0 LINE",
"890 0 LINE",
"964 391 LINE",
"1255 391 LINE",
"1255 645 LINE",
"1011 645 LINE",
"1042 813 LINE",
"1042 813 LINE"
);
},
{
closed = 1;
nodes = (
"607 813 LINE",
"773 813 LINE",
"743 645 LINE",
"577 645 LINE",
"577 645 LINE"
);
}
);
width = 1355;
},
{
layerId = "A36153DC-C9CC-437F-8D19-86D84E7E38EA";
paths = (
{
closed = 1;
nodes = (
"1285 767 LINE",
"1285 976 LINE",
"1058 976 LINE",
"1119 1295 LINE",
"904 1295 LINE",
"843 976 LINE",
"645 976 LINE",
"705 1295 LINE",
"486 1295 LINE",
"426 976 LINE",
"151 976 LINE",
"151 767 LINE",
"389 767 LINE",
"342 535 LINE",
"79 535 LINE",
"79 329 LINE",
"303 329 LINE",
"244 0 LINE",
"459 0 LINE",
"520 329 LINE",
"714 329 LINE",
"651 0 LINE",
"871 0 LINE",
"933 329 LINE",
"1217 329 LINE",
"1217 535 LINE",
"972 535 LINE",
"1019 767 LINE",
"1019 767 LINE"
);
},
{
closed = 1;
nodes = (
"606 767 LINE",
"802 767 LINE",
"755 535 LINE",
"559 535 LINE",
"559 535 LINE"
);
}
);
width = 1363;
},
{
layerId = "607A0539-44D7-4182-901A-4BFA5CCC01F8";
paths = (
{
closed = 1;
nodes = (
"1272 893 LINE",
"1272 1030 LINE",
"1010 1030 LINE",
"1094 1462 LINE",
"950 1462 LINE",
"866 1030 LINE",
"573 1030 LINE",
"655 1462 LINE",
"508 1462 LINE",
"426 1030 LINE",
"127 1030 LINE",
"127 893 LINE",
"401 893 LINE",
"336 565 LINE",
"51 565 LINE",
"51 428 LINE",
"309 428 LINE",
"231 0 LINE",
"375 0 LINE",
"457 428 LINE",
"748 428 LINE",
"664 0 LINE",
"811 0 LINE",
"893 428 LINE",
"1200 428 LINE",
"1200 565 LINE",
"920 565 LINE",
"983 893 LINE",
"983 893 LINE"
);
},
{
closed = 1;
nodes = (
"547 893 LINE",
"838 893 LINE",
"774 565 LINE",
"483 565 LINE",
"483 565 LINE"
);
}
);
userData = {
assembly = "NPUSHB[ ]	/* 77 values pushed */\01211 1 9 8 9 133 4 1 2 1 2 134 12 10 2 8 15 16 13 3 7 0 8 7 103 14 6 2 0 1 1 0 87 14 6 2 0 0 1 95 5 3 2 1 0 1 79 0 0 31 30 29 28 0 27 0 27 26 25 24 23 22 21 20 19 17 17 17 17 17 17 17 17 17 17 6 31 \012CALL[ ]	/* CallFunction */";
};
width = 1323;
},
{
layerId = "DF847F4E-D23C-40FA-8597-1D02BA148938";
paths = (
{
closed = 1;
nodes = (
"1267 920 LINE",
"1267 1012 LINE",
"987 1012 LINE",
"1073 1462 LINE",
"977 1462 LINE",
"891 1012 LINE",
"540 1012 LINE",
"626 1462 LINE",
"526 1462 LINE",
"440 1012 LINE",
"131 1012 LINE",
"131 920 LINE",
"424 920 LINE",
"348 541 LINE",
"53 541 LINE",
"53 446 LINE",
"332 446 LINE",
"248 0 LINE",
"344 0 LINE",
"430 446 LINE",
"780 446 LINE",
"692 0 LINE",
"790 0 LINE",
"878 446 LINE",
"1192 446 LINE",
"1192 541 LINE",
"897 541 LINE",
"971 920 LINE",
"971 920 LINE"
);
},
{
closed = 1;
nodes = (
"520 920 LINE",
"872 920 LINE",
"798 541 LINE",
"446 541 LINE",
"446 541 LINE"
);
}
);
width = 1323;
},
{
layerId = "3BE6379C-89A1-45B5-97C8-F079248A4F49";
paths = (
{
closed = 1;
nodes = (
"1265 946 LINE",
"1265 995 LINE",
"964 995 LINE",
"1054 1462 LINE",
"1003 1462 LINE",
"913 995 LINE",
"506 995 LINE",
"596 1462 LINE",
"544 1462 LINE",
"454 995 LINE",
"137 995 LINE",
"137 946 LINE",
"446 946 LINE",
"362 514 LINE",
"57 514 LINE",
"57 465 LINE",
"354 465 LINE",
"264 0 LINE",
"315 0 LINE",
"405 465 LINE",
"813 465 LINE",
"723 0 LINE",
"774 0 LINE",
"864 465 LINE",
"1185 465 LINE",
"1185 514 LINE",
"872 514 LINE",
"956 946 LINE",
"956 946 LINE"
);
},
{
closed = 1;
nodes = (
"497 946 LINE",
"905 946 LINE",
"821 514 LINE",
"413 514 LINE",
"413 514 LINE"
);
}
);
width = 1323;
}
);
note = numbersign;
unicode = 0023;
},
{
glyphname = dollar;
lastChange = "2020-02-04 08:34:44 +0000";
layers = (
{
layerId = "372009DC-CA12-41C8-98C7-C44FC6D5F55D";
paths = (
{
closed = 1;
nodes = (
"684 -119 LINE",
"684 49 LINE",
"917 74 OFFCURVE",
"1134 305 OFFCURVE",
"1134 471 QCURVE SMOOTH",
"1134 592 OFFCURVE",
"1028 741 OFFCURVE",
"827 838 OFFCURVE",
"684 881 QCURVE",
"684 1128 LINE",
"766 1120 OFFCURVE",
"932 1081 OFFCURVE",
"1007 1049 QCURVE",
"1095 1323 LINE",
"1011 1356 OFFCURVE",
"809 1411 OFFCURVE",
"684 1417 QCURVE",
"684 1556 LINE",
"495 1556 LINE",
"495 1415 LINE",
"295 1401 OFFCURVE",
"53 1214 OFFCURVE",
"53 1028 QCURVE SMOOTH",
"53 897 OFFCURVE",
"168 731 OFFCURVE",
"368 629 OFFCURVE",
"495 592 QCURVE",
"495 340 LINE",
"401 348 OFFCURVE",
"182 399 OFFCURVE",
"86 442 QCURVE",
"86 129 LINE",
"172 92 OFFCURVE",
"364 49 OFFCURVE",
"495 45 QCURVE",
"495 -119 LINE",
"495 -119 LINE"
);
},
{
closed = 1;
nodes = (
"434 956 OFFCURVE",
"383 1004 OFFCURVE",
"383 1042 QCURVE SMOOTH",
"383 1116 OFFCURVE",
"495 1126 QCURVE",
"495 936 LINE",
"495 936 LINE"
);
},
{
closed = 1;
nodes = (
"684 545 LINE",
"751 524 OFFCURVE",
"801 477 OFFCURVE",
"801 438 QCURVE SMOOTH",
"801 362 OFFCURVE",
"684 344 QCURVE",
"684 344 LINE"
);
}
);
width = 1181;
},
{
layerId = "A36153DC-C9CC-437F-8D19-86D84E7E38EA";
paths = (
{
closed = 1;
nodes = (
"1092 545 OFFCURVE",
"1015 677 OFFCURVE",
"850 787 OFFCURVE",
"655 862 QCURVE",
"655 1157 LINE",
"819 1143 OFFCURVE",
"975 1079 QCURVE",
"1069 1313 LINE",
"884 1395 OFFCURVE",
"655 1405 QCURVE",
"655 1554 LINE",
"518 1554 LINE",
"518 1401 LINE",
"315 1381 OFFCURVE",
"88 1194 OFFCURVE",
"88 1049 QCURVE SMOOTH",
"88 914 OFFCURVE",
"253 731 OFFCURVE",
"451 653 QCURVE SMOOTH",
"518 627 LINE",
"518 317 LINE",
"422 323 OFFCURVE",
"177 389 OFFCURVE",
"90 432 QCURVE",
"90 168 LINE",
"274 87 OFFCURVE",
"518 82 QCURVE",
"518 -119 LINE",
"655 -119 LINE",
"655 86 LINE",
"862 105 OFFCURVE",
"1092 298 OFFCURVE",
"1092 457 QCURVE",
"1092 457 LINE"
);
},
{
closed = 1;
nodes = (
"791 347 OFFCURVE",
"655 324 QCURVE",
"655 573 LINE",
"723 542 OFFCURVE",
"791 484 OFFCURVE",
"791 442 QCURVE",
"791 442 LINE"
);
},
{
closed = 1;
nodes = (
"389 1134 OFFCURVE",
"518 1153 QCURVE",
"518 918 LINE",
"450 948 OFFCURVE",
"389 1005 OFFCURVE",
"389 1049 QCURVE",
"389 1049 LINE"
);
}
);
width = 1171;
},
{
layerId = "607A0539-44D7-4182-901A-4BFA5CCC01F8";
paths = (
{
closed = 1;
nodes = (
"985 518 OFFCURVE",
"939 625 OFFCURVE",
"848 708 OFFCURVE",
"713 774 OFFCURVE",
"625 805 QCURVE",
"625 1227 LINE",
"699 1221 OFFCURVE",
"839 1180 OFFCURVE",
"895 1155 QCURVE",
"961 1300 LINE",
"894 1331 OFFCURVE",
"725 1373 OFFCURVE",
"625 1378 QCURVE",
"625 1554 LINE",
"487 1554 LINE",
"487 1374 LINE",
"408 1365 OFFCURVE",
"279 1312 OFFCURVE",
"188 1229 OFFCURVE",
"139 1118 OFFCURVE",
"139 1051 QCURVE SMOOTH",
"139 977 OFFCURVE",
"181 867 OFFCURVE",
"267 782 OFFCURVE",
"398 716 OFFCURVE",
"487 686 QCURVE",
"487 252 LINE",
"440 252 OFFCURVE",
"339 269 OFFCURVE",
"243 295 OFFCURVE",
"156 328 OFFCURVE",
"123 344 QCURVE",
"123 172 LINE",
"155 155 OFFCURVE",
"239 129 OFFCURVE",
"335 111 OFFCURVE",
"437 102 OFFCURVE",
"487 102 QCURVE",
"487 -119 LINE",
"625 -119 LINE",
"625 111 LINE",
"709 123 OFFCURVE",
"842 178 OFFCURVE",
"935 262 OFFCURVE",
"985 376 OFFCURVE",
"985 446 QCURVE",
"985 446 LINE"
);
},
{
closed = 1;
nodes = (
"809 374 OFFCURVE",
"718 276 OFFCURVE",
"625 262 QCURVE",
"625 635 LINE",
"676 617 OFFCURVE",
"746 579 OFFCURVE",
"789 534 OFFCURVE",
"809 479 OFFCURVE",
"809 446 QCURVE",
"809 446 LINE"
);
},
{
closed = 1;
nodes = (
"315 1118 OFFCURVE",
"398 1207 OFFCURVE",
"487 1223 QCURVE",
"487 854 LINE",
"438 871 OFFCURVE",
"372 909 OFFCURVE",
"332 956 OFFCURVE",
"315 1013 OFFCURVE",
"315 1049 QCURVE",
"315 1049 LINE"
);
}
);
width = 1128;
},
{
layerId = "DF847F4E-D23C-40FA-8597-1D02BA148938";
paths = (
{
closed = 1;
nodes = (
"608 -119 LINE",
"608 63 LINE",
"791 78 OFFCURVE",
"1008 258 OFFCURVE",
"1008 416 QCURVE SMOOTH",
"1008 520 OFFCURVE",
"911 653 OFFCURVE",
"733 741 OFFCURVE",
"608 782 QCURVE",
"608 1307 LINE",
"682 1303 OFFCURVE",
"840 1266 OFFCURVE",
"915 1233 QCURVE",
"954 1333 LINE",
"801 1403 OFFCURVE",
"608 1409 QCURVE",
"608 1554 LINE",
"518 1554 LINE",
"518 1409 LINE",
"344 1399 OFFCURVE",
"129 1225 OFFCURVE",
"129 1069 QCURVE SMOOTH",
"129 965 OFFCURVE",
"223 827 OFFCURVE",
"397 735 OFFCURVE",
"518 696 QCURVE",
"518 164 LINE",
"410 166 OFFCURVE",
"201 211 OFFCURVE",
"131 240 QCURVE",
"131 123 LINE",
"197 96 OFFCURVE",
"397 61 OFFCURVE",
"518 59 QCURVE",
"518 -119 LINE",
"518 -119 LINE"
);
},
{
closed = 1;
nodes = (
"391 856 OFFCURVE",
"244 967 OFFCURVE",
"244 1077 QCURVE SMOOTH",
"244 1182 OFFCURVE",
"393 1296 OFFCURVE",
"518 1303 QCURVE",
"518 815 LINE",
"518 815 LINE"
);
},
{
closed = 1;
nodes = (
"608 666 LINE",
"754 618 OFFCURVE",
"893 514 OFFCURVE",
"893 410 QCURVE SMOOTH",
"893 299 OFFCURVE",
"741 180 OFFCURVE",
"608 170 QCURVE",
"608 170 LINE"
);
}
);
width = 1169;
},
{
layerId = "3BE6379C-89A1-45B5-97C8-F079248A4F49";
paths = (
{
closed = 1;
nodes = (
"567 -119 LINE",
"567 20 LINE",
"737 29 OFFCURVE",
"960 207 OFFCURVE",
"960 381 QCURVE SMOOTH",
"960 489 OFFCURVE",
"860 625 OFFCURVE",
"682 717 OFFCURVE",
"567 758 QCURVE",
"567 1391 LINE",
"633 1389 OFFCURVE",
"790 1358 OFFCURVE",
"876 1319 QCURVE",
"899 1366 LINE",
"815 1405 OFFCURVE",
"649 1440 OFFCURVE",
"567 1442 QCURVE",
"567 1554 LINE",
"518 1554 LINE",
"518 1442 LINE",
"407 1436 OFFCURVE",
"233 1354 OFFCURVE",
"131 1204 OFFCURVE",
"131 1098 QCURVE SMOOTH",
"131 987 OFFCURVE",
"237 852 OFFCURVE",
"414 762 OFFCURVE",
"518 723 QCURVE",
"518 72 LINE",
"405 74 OFFCURVE",
"209 111 OFFCURVE",
"137 139 QCURVE",
"137 80 LINE",
"201 57 OFFCURVE",
"389 23 OFFCURVE",
"518 20 QCURVE",
"518 -119 LINE",
"518 -119 LINE"
);
},
{
closed = 1;
nodes = (
"430 809 OFFCURVE",
"281 887 OFFCURVE",
"186 1008 OFFCURVE",
"186 1102 QCURVE SMOOTH",
"186 1196 OFFCURVE",
"274 1321 OFFCURVE",
"426 1386 OFFCURVE",
"518 1391 QCURVE",
"518 776 LINE",
"518 776 LINE"
);
},
{
closed = 1;
nodes = (
"567 702 LINE",
"672 664 OFFCURVE",
"823 582 OFFCURVE",
"905 469 OFFCURVE",
"905 383 QCURVE SMOOTH",
"905 229 OFFCURVE",
"713 80 OFFCURVE",
"567 72 QCURVE",
"567 72 LINE"
);
}
);
width = 1167;
}
);
note = dollar;
unicode = 0024;
},
{
glyphname = percent;
lastChange = "2020-02-04 08:34:44 +0000";
layers = (
{
layerId = "372009DC-CA12-41C8-98C7-C44FC6D5F55D";
paths = (
{
closed = 1;
nodes = (
"229 1483 OFFCURVE",
"36 1243 OFFCURVE",
"36 1026 QCURVE SMOOTH",
"36 809 OFFCURVE",
"241 565 OFFCURVE",
"409 565 QCURVE SMOOTH",
"595 565 OFFCURVE",
"790 809 OFFCURVE",
"790 1026 QCURVE SMOOTH",
"790 1243 OFFCURVE",
"581 1483 OFFCURVE",
"409 1483 QCURVE",
"409 1483 LINE"
);
},
{
closed = 1;
nodes = (
"456 1239 OFFCURVE",
"489 1122 OFFCURVE",
"489 1022 QCURVE SMOOTH",
"489 922 OFFCURVE",
"456 805 OFFCURVE",
"413 805 QCURVE SMOOTH",
"370 805 OFFCURVE",
"337 924 OFFCURVE",
"337 1022 QCURVE SMOOTH",
"337 1122 OFFCURVE",
"370 1239 OFFCURVE",
"413 1239 QCURVE",
"413 1239 LINE"
);
},
{
closed = 1;
nodes = (
"1341 901 OFFCURVE",
"1148 662 OFFCURVE",
"1148 444 QCURVE SMOOTH",
"1148 227 OFFCURVE",
"1353 -16 OFFCURVE",
"1521 -16 QCURVE SMOOTH",
"1707 -16 OFFCURVE",
"1902 227 OFFCURVE",
"1902 444 QCURVE SMOOTH",
"1902 662 OFFCURVE",
"1693 901 OFFCURVE",
"1521 901 QCURVE",
"1521 901 LINE"
);
},
{
closed = 1;
nodes = (
"1568 657 OFFCURVE",
"1601 543 OFFCURVE",
"1601 440 QCURVE SMOOTH",
"1601 340 OFFCURVE",
"1568 223 OFFCURVE",
"1525 223 QCURVE SMOOTH",
"1482 223 OFFCURVE",
"1449 342 OFFCURVE",
"1449 440 QCURVE SMOOTH",
"1449 541 OFFCURVE",
"1482 657 OFFCURVE",
"1525 657 QCURVE",
"1525 657 LINE"
);
},
{
closed = 1;
nodes = (
"1222 1462 LINE",
"411 0 LINE",
"708 0 LINE",
"1519 1462 LINE",
"1519 1462 LINE"
);
}
);
width = 1941;
},
{
layerId = "A36153DC-C9CC-437F-8D19-86D84E7E38EA";
paths = (
{
closed = 1;
nodes = (
"324 1006 OFFCURVE",
"374 1086 OFFCURVE",
"429 1086 QCURVE SMOOTH",
"535 1086 OFFCURVE",
"535 924 QCURVE SMOOTH",
"535 841 OFFCURVE",
"483 761 OFFCURVE",
"429 761 QCURVE SMOOTH",
"374 761 OFFCURVE",
"324 842 OFFCURVE",
"324 924 QCURVE",
"324 924 LINE"
);
},
{
closed = 1;
nodes = (
"777 1013 OFFCURVE",
"732 1151 OFFCURVE",
"644 1245 OFFCURVE",
"513 1295 OFFCURVE",
"427 1295 QCURVE SMOOTH",
"337 1295 OFFCURVE",
"207 1245 OFFCURVE",
"122 1151 OFFCURVE",
"82 1013 OFFCURVE",
"82 926 QCURVE SMOOTH",
"82 839 OFFCURVE",
"126 700 OFFCURVE",
"213 605 OFFCURVE",
"342 554 OFFCURVE",
"427 554 QCURVE SMOOTH",
"518 554 OFFCURVE",
"650 605 OFFCURVE",
"736 700 OFFCURVE",
"777 839 OFFCURVE",
"777 926 QCURVE",
"777 926 LINE"
);
},
{
closed = 1;
nodes = (
"1307 433 OFFCURVE",
"1357 513 OFFCURVE",
"1412 513 QCURVE SMOOTH",
"1518 513 OFFCURVE",
"1518 351 QCURVE SMOOTH",
"1518 268 OFFCURVE",
"1466 188 OFFCURVE",
"1412 188 QCURVE SMOOTH",
"1357 188 OFFCURVE",
"1307 269 OFFCURVE",
"1307 351 QCURVE",
"1307 351 LINE"
);
},
{
closed = 1;
nodes = (
"1760 440 OFFCURVE",
"1715 578 OFFCURVE",
"1627 672 OFFCURVE",
"1496 722 OFFCURVE",
"1410 722 QCURVE SMOOTH",
"1320 722 OFFCURVE",
"1190 672 OFFCURVE",
"1106 578 OFFCURVE",
"1066 440 OFFCURVE",
"1066 353 QCURVE SMOOTH",
"1066 266 OFFCURVE",
"1110 128 OFFCURVE",
"1197 33 OFFCURVE",
"1325 -18 OFFCURVE",
"1410 -18 QCURVE SMOOTH",
"1501 -18 OFFCURVE",
"1633 33 OFFCURVE",
"1719 128 OFFCURVE",
"1760 266 OFFCURVE",
"1760 353 QCURVE",
"1760 353 LINE"
);
},
{
closed = 1;
nodes = (
"1205 1274 LINE",
"404 0 LINE",
"633 0 LINE",
"1434 1274 LINE",
"1434 1274 LINE"
);
}
);
width = 1842;
},
{
layerId = "607A0539-44D7-4182-901A-4BFA5CCC01F8";
paths = (
{
closed = 1;
nodes = (
"250 1191 OFFCURVE",
"321 1354 OFFCURVE",
"401 1354 QCURVE SMOOTH",
"557 1354 OFFCURVE",
"557 1026 QCURVE SMOOTH",
"557 696 OFFCURVE",
"401 696 QCURVE SMOOTH",
"321 696 OFFCURVE",
"250 861 OFFCURVE",
"250 1026 QCURVE",
"250 1026 LINE"
);
},
{
closed = 1;
nodes = (
"705 1134 OFFCURVE",
"666 1304 OFFCURVE",
"589 1421 OFFCURVE",
"476 1483 OFFCURVE",
"401 1483 QCURVE SMOOTH",
"323 1483 OFFCURVE",
"210 1421 OFFCURVE",
"137 1304 OFFCURVE",
"102 1134 OFFCURVE",
"102 1026 QCURVE SMOOTH",
"102 918 OFFCURVE",
"140 746 OFFCURVE",
"216 628 OFFCURVE",
"328 565 OFFCURVE",
"401 565 QCURVE SMOOTH",
"480 565 OFFCURVE",
"595 628 OFFCURVE",
"669 746 OFFCURVE",
"705 918 OFFCURVE",
"705 1026 QCURVE",
"705 1026 LINE"
);
},
{
closed = 1;
nodes = (
"1133 605 OFFCURVE",
"1204 768 OFFCURVE",
"1284 768 QCURVE SMOOTH",
"1440 768 OFFCURVE",
"1440 440 QCURVE SMOOTH",
"1440 111 OFFCURVE",
"1284 111 QCURVE SMOOTH",
"1204 111 OFFCURVE",
"1133 275 OFFCURVE",
"1133 440 QCURVE",
"1133 440 LINE"
);
},
{
closed = 1;
nodes = (
"1587 548 OFFCURVE",
"1548 718 OFFCURVE",
"1472 835 OFFCURVE",
"1359 897 OFFCURVE",
"1284 897 QCURVE SMOOTH",
"1206 897 OFFCURVE",
"1093 835 OFFCURVE",
"1020 718 OFFCURVE",
"985 548 OFFCURVE",
"985 440 QCURVE SMOOTH",
"985 332 OFFCURVE",
"1023 161 OFFCURVE",
"1098 43 OFFCURVE",
"1210 -20 OFFCURVE",
"1284 -20 QCURVE SMOOTH",
"1363 -20 OFFCURVE",
"1478 43 OFFCURVE",
"1552 161 OFFCURVE",
"1587 332 OFFCURVE",
"1587 440 QCURVE",
"1587 440 LINE"
);
},
{
closed = 1;
nodes = (
"1174 1462 LINE",
"362 0 LINE",
"520 0 LINE",
"1331 1462 LINE",
"1331 1462 LINE"
);
}
);
width = 1690;
},
{
layerId = "DF847F4E-D23C-40FA-8597-1D02BA148938";
paths = (
{
closed = 1;
nodes = (
"257 1483 OFFCURVE",
"110 1249 OFFCURVE",
"110 1026 QCURVE SMOOTH",
"110 803 OFFCURVE",
"260 565 OFFCURVE",
"399 565 QCURVE SMOOTH",
"544 565 OFFCURVE",
"694 803 OFFCURVE",
"694 1026 QCURVE SMOOTH",
"694 1245 OFFCURVE",
"546 1483 OFFCURVE",
"401 1483 QCURVE",
"401 1483 LINE"
);
},
{
closed = 1;
nodes = (
"499 1393 OFFCURVE",
"591 1206 OFFCURVE",
"591 1026 QCURVE SMOOTH",
"591 655 OFFCURVE",
"399 655 QCURVE SMOOTH",
"212 655 OFFCURVE",
"212 1026 QCURVE SMOOTH",
"212 1393 OFFCURVE",
"401 1393 QCURVE",
"401 1393 LINE"
);
},
{
closed = 1;
nodes = (
"1116 897 OFFCURVE",
"968 664 OFFCURVE",
"968 440 QCURVE SMOOTH",
"968 217 OFFCURVE",
"1116 -20 OFFCURVE",
"1257 -20 QCURVE SMOOTH",
"1400 -20 OFFCURVE",
"1552 217 OFFCURVE",
"1552 440 QCURVE SMOOTH",
"1552 659 OFFCURVE",
"1404 897 OFFCURVE",
"1259 897 QCURVE",
"1259 897 LINE"
);
},
{
closed = 1;
nodes = (
"1357 807 OFFCURVE",
"1449 621 OFFCURVE",
"1449 440 QCURVE SMOOTH",
"1449 70 OFFCURVE",
"1257 70 QCURVE SMOOTH",
"1071 70 OFFCURVE",
"1071 440 QCURVE SMOOTH",
"1071 807 OFFCURVE",
"1259 807 QCURVE",
"1259 807 LINE"
);
},
{
closed = 1;
nodes = (
"1183 1462 LINE",
"372 0 LINE",
"479 0 LINE",
"1290 1462 LINE",
"1290 1462 LINE"
);
}
);
width = 1662;
},
{
layerId = "3BE6379C-89A1-45B5-97C8-F079248A4F49";
paths = (
{
closed = 1;
nodes = (
"272 1483 OFFCURVE",
"120 1253 OFFCURVE",
"120 1026 QCURVE SMOOTH",
"120 799 OFFCURVE",
"263 565 OFFCURVE",
"399 565 QCURVE SMOOTH",
"532 565 OFFCURVE",
"681 795 OFFCURVE",
"681 1026 QCURVE SMOOTH",
"681 1249 OFFCURVE",
"544 1483 OFFCURVE",
"403 1483 QCURVE",
"403 1483 LINE"
);
},
{
closed = 1;
nodes = (
"519 1432 OFFCURVE",
"626 1223 OFFCURVE",
"626 1026 QCURVE SMOOTH",
"626 827 OFFCURVE",
"511 616 OFFCURVE",
"399 616 QCURVE SMOOTH",
"290 616 OFFCURVE",
"175 823 OFFCURVE",
"175 1026 QCURVE SMOOTH",
"175 1231 OFFCURVE",
"294 1432 OFFCURVE",
"403 1432 QCURVE",
"403 1432 LINE"
);
},
{
closed = 1;
nodes = (
"1093 897 OFFCURVE",
"941 668 OFFCURVE",
"941 440 QCURVE SMOOTH",
"941 213 OFFCURVE",
"1085 -20 OFFCURVE",
"1220 -20 QCURVE SMOOTH",
"1351 -20 OFFCURVE",
"1502 209 OFFCURVE",
"1502 440 QCURVE SMOOTH",
"1502 664 OFFCURVE",
"1365 897 OFFCURVE",
"1224 897 QCURVE",
"1224 897 LINE"
);
},
{
closed = 1;
nodes = (
"1341 846 OFFCURVE",
"1447 637 OFFCURVE",
"1447 440 QCURVE SMOOTH",
"1447 242 OFFCURVE",
"1334 31 OFFCURVE",
"1220 31 QCURVE SMOOTH",
"1113 31 OFFCURVE",
"997 238 OFFCURVE",
"997 440 QCURVE SMOOTH",
"997 645 OFFCURVE",
"1117 846 OFFCURVE",
"1224 846 QCURVE",
"1224 846 LINE"
);
},
{
closed = 1;
nodes = (
"1189 1462 LINE",
"378 0 LINE",
"435 0 LINE",
"1246 1462 LINE",
"1246 1462 LINE"
);
}
);
width = 1624;
}
);
note = percent;
unicode = 0025;
},
{
glyphname = ampersand;
lastChange = "2020-02-04 08:34:44 +0000";
layers = (
{
layerId = "372009DC-CA12-41C8-98C7-C44FC6D5F55D";
paths = (
{
closed = 1;
nodes = (
"448 1481 OFFCURVE",
"212 1284 OFFCURVE",
"212 1133 QCURVE SMOOTH",
"212 1034 OFFCURVE",
"282 877 OFFCURVE",
"343 807 QCURVE",
"212 739 OFFCURVE",
"71 537 OFFCURVE",
"71 406 QCURVE SMOOTH",
"71 287 OFFCURVE",
"194 94 OFFCURVE",
"429 -20 OFFCURVE",
"601 -20 QCURVE SMOOTH",
"724 -20 OFFCURVE",
"878 12 OFFCURVE",
"986 68 OFFCURVE",
"1042 102 QCURVE",
"1140 0 LINE",
"1646 0 LINE",
"1326 307 LINE",
"1402 397 OFFCURVE",
"1533 672 OFFCURVE",
"1566 821 QCURVE",
"1161 821 LINE",
"1130 674 OFFCURVE",
"1056 561 QCURVE",
"857 750 LINE",
"974 819 OFFCURVE",
"1122 1006 OFFCURVE",
"1122 1133 QCURVE SMOOTH",
"1122 1296 OFFCURVE",
"882 1481 OFFCURVE",
"675 1481 QCURVE",
"675 1481 LINE"
);
},
{
closed = 1;
nodes = (
"712 1225 OFFCURVE",
"769 1182 OFFCURVE",
"769 1133 QCURVE SMOOTH",
"769 1085 OFFCURVE",
"710 997 OFFCURVE",
"653 965 QCURVE",
"618 997 OFFCURVE",
"565 1075 OFFCURVE",
"565 1120 QCURVE SMOOTH",
"565 1176 OFFCURVE",
"628 1225 OFFCURVE",
"669 1225 QCURVE",
"669 1225 LINE"
);
},
{
closed = 1;
nodes = (
"804 340 LINE",
"782 322 OFFCURVE",
"696 291 OFFCURVE",
"638 291 QCURVE SMOOTH",
"565 291 OFFCURVE",
"474 371 OFFCURVE",
"474 434 QCURVE SMOOTH",
"474 479 OFFCURVE",
"513 559 OFFCURVE",
"556 592 QCURVE",
"556 592 LINE"
);
}
);
width = 1636;
},
{
layerId = "A36153DC-C9CC-437F-8D19-86D84E7E38EA";
paths = (
{
closed = 1;
nodes = (
"1235 293 LINE",
"1315 392 OFFCURVE",
"1441 649 OFFCURVE",
"1477 784 QCURVE",
"1159 784 LINE",
"1107 600 OFFCURVE",
"1036 483 QCURVE",
"752 760 LINE",
"906 849 OFFCURVE",
"1044 1046 OFFCURVE",
"1044 1165 QCURVE SMOOTH",
"1044 1310 OFFCURVE",
"821 1483 OFFCURVE",
"635 1483 QCURVE SMOOTH",
"440 1483 OFFCURVE",
"207 1297 OFFCURVE",
"207 1145 QCURVE SMOOTH",
"207 1052 OFFCURVE",
"275 895 OFFCURVE",
"350 809 QCURVE",
"203 725 OFFCURVE",
"82 532 OFFCURVE",
"82 395 QCURVE SMOOTH",
"82 204 OFFCURVE",
"368 -20 OFFCURVE",
"612 -20 QCURVE SMOOTH",
"853 -20 OFFCURVE",
"1044 113 QCURVE",
"1159 0 LINE",
"1536 0 LINE",
"1536 0 LINE"
);
},
{
closed = 1;
nodes = (
"403 487 OFFCURVE",
"470 583 OFFCURVE",
"528 627 QCURVE",
"860 297 LINE",
"759 236 OFFCURVE",
"633 236 QCURVE SMOOTH",
"532 236 OFFCURVE",
"403 338 OFFCURVE",
"403 424 QCURVE",
"403 424 LINE"
);
},
{
closed = 1;
nodes = (
"762 1071 OFFCURVE",
"670 978 OFFCURVE",
"584 930 QCURVE",
"489 1036 OFFCURVE",
"489 1124 QCURVE SMOOTH",
"489 1183 OFFCURVE",
"566 1247 OFFCURVE",
"633 1247 QCURVE SMOOTH",
"690 1247 OFFCURVE",
"762 1186 OFFCURVE",
"762 1133 QCURVE",
"762 1133 LINE"
);
}
);
width = 1536;
},
{
layerId = "607A0539-44D7-4182-901A-4BFA5CCC01F8";
paths = (
{
closed = 1;
nodes = (
"422 1246 OFFCURVE",
"522 1335 OFFCURVE",
"608 1335 QCURVE SMOOTH",
"650 1335 OFFCURVE",
"716 1310 OFFCURVE",
"763 1266 OFFCURVE",
"788 1205 OFFCURVE",
"788 1169 QCURVE SMOOTH",
"788 1128 OFFCURVE",
"760 1058 OFFCURVE",
"704 994 OFFCURVE",
"618 932 OFFCURVE",
"559 897 QCURVE",
"523 934 OFFCURVE",
"471 1001 OFFCURVE",
"438 1066 OFFCURVE",
"422 1131 OFFCURVE",
"422 1165 QCURVE",
"422 1165 LINE"
);
},
{
closed = 1;
nodes = (
"496 141 OFFCURVE",
"400 177 OFFCURVE",
"334 242 OFFCURVE",
"299 333 OFFCURVE",
"299 387 QCURVE SMOOTH",
"299 443 OFFCURVE",
"327 528 OFFCURVE",
"382 600 OFFCURVE",
"462 663 OFFCURVE",
"514 696 QCURVE",
"901 289 LINE",
"869 258 OFFCURVE",
"797 204 OFFCURVE",
"713 164 OFFCURVE",
"615 141 OFFCURVE",
"557 141 QCURVE",
"557 141 LINE"
);
},
{
closed = 1;
nodes = (
"109 285 OFFCURVE",
"170 136 OFFCURVE",
"285 33 OFFCURVE",
"452 -20 OFFCURVE",
"557 -20 QCURVE SMOOTH",
"635 -20 OFFCURVE",
"759 7 OFFCURVE",
"867 56 OFFCURVE",
"963 127 OFFCURVE",
"1012 172 QCURVE",
"1180 0 LINE",
"1405 0 LINE",
"1128 293 LINE",
"1167 334 OFFCURVE",
"1232 419 OFFCURVE",
"1285 517 OFFCURVE",
"1326 628 OFFCURVE",
"1341 694 QCURVE",
"1157 694 LINE",
"1147 647 OFFCURVE",
"1120 569 OFFCURVE",
"1086 501 OFFCURVE",
"1043 441 OFFCURVE",
"1016 412 QCURVE",
"664 784 LINE",
"724 820 OFFCURVE",
"833 899 OFFCURVE",
"917 992 OFFCURVE",
"967 1101 OFFCURVE",
"967 1165 QCURVE SMOOTH",
"967 1240 OFFCURVE",
"919 1359 OFFCURVE",
"828 1442 OFFCURVE",
"697 1485 OFFCURVE",
"614 1485 QCURVE SMOOTH",
"526 1485 OFFCURVE",
"388 1442 OFFCURVE",
"294 1359 OFFCURVE",
"244 1240 OFFCURVE",
"244 1165 QCURVE SMOOTH",
"244 1108 OFFCURVE",
"272 1009 OFFCURVE",
"317 922 OFFCURVE",
"377 845 OFFCURVE",
"408 809 QCURVE",
"337 767 OFFCURVE",
"226 681 OFFCURVE",
"149 581 OFFCURVE",
"109 459 OFFCURVE",
"109 381 QCURVE",
"109 381 LINE"
);
}
);
width = 1438;
},
{
layerId = "DF847F4E-D23C-40FA-8597-1D02BA148938";
paths = (
{
closed = 1;
nodes = (
"458 1485 OFFCURVE",
"265 1315 OFFCURVE",
"265 1171 QCURVE SMOOTH",
"265 1065 OFFCURVE",
"376 901 OFFCURVE",
"462 811 QCURVE",
"354 754 OFFCURVE",
"200 637 OFFCURVE",
"118 483 OFFCURVE",
"118 373 QCURVE SMOOTH",
"118 182 OFFCURVE",
"368 -20 OFFCURVE",
"573 -20 QCURVE SMOOTH",
"749 -20 OFFCURVE",
"986 98 OFFCURVE",
"1081 193 QCURVE",
"1273 0 LINE",
"1429 0 LINE",
"1158 270 LINE",
"1306 442 OFFCURVE",
"1367 700 QCURVE",
"1248 700 LINE",
"1224 596 OFFCURVE",
"1142 416 OFFCURVE",
"1085 348 QCURVE",
"638 791 LINE",
"780 866 OFFCURVE",
"958 1044 OFFCURVE",
"958 1180 QCURVE SMOOTH",
"958 1323 OFFCURVE",
"773 1485 OFFCURVE",
"622 1485 QCURVE",
"622 1485 LINE"
);
},
{
closed = 1;
nodes = (
"720 1384 OFFCURVE",
"843 1274 OFFCURVE",
"843 1180 QCURVE SMOOTH",
"843 1075 OFFCURVE",
"700 932 OFFCURVE",
"560 862 QCURVE",
"474 950 OFFCURVE",
"380 1090 OFFCURVE",
"380 1174 QCURVE SMOOTH",
"380 1272 OFFCURVE",
"511 1384 OFFCURVE",
"618 1384 QCURVE",
"618 1384 LINE"
);
},
{
closed = 1;
nodes = (
"1007 266 LINE",
"927 186 OFFCURVE",
"724 84 OFFCURVE",
"575 84 QCURVE SMOOTH",
"423 84 OFFCURVE",
"239 240 OFFCURVE",
"239 377 QCURVE SMOOTH",
"239 467 OFFCURVE",
"308 590 OFFCURVE",
"442 686 OFFCURVE",
"536 735 QCURVE",
"536 735 LINE"
);
}
);
width = 1468;
},
{
layerId = "3BE6379C-89A1-45B5-97C8-F079248A4F49";
paths = (
{
closed = 1;
nodes = (
"471 1485 OFFCURVE",
"285 1319 OFFCURVE",
"285 1180 QCURVE SMOOTH",
"285 1110 OFFCURVE",
"334 995 OFFCURVE",
"432 881 OFFCURVE",
"504 809 QCURVE",
"385 752 OFFCURVE",
"217 635 OFFCURVE",
"129 481 OFFCURVE",
"129 367 QCURVE SMOOTH",
"129 180 OFFCURVE",
"379 -20 OFFCURVE",
"575 -20 QCURVE SMOOTH",
"758 -20 OFFCURVE",
"995 113 OFFCURVE",
"1092 215 QCURVE",
"1294 0 LINE",
"1366 0 LINE",
"1124 250 LINE",
"1194 340 OFFCURVE",
"1300 545 OFFCURVE",
"1329 672 QCURVE",
"1274 672 LINE",
"1249 557 OFFCURVE",
"1151 362 OFFCURVE",
"1090 289 QCURVE",
"592 795 LINE",
"752 872 OFFCURVE",
"942 1049 OFFCURVE",
"942 1190 QCURVE SMOOTH",
"942 1327 OFFCURVE",
"762 1485 OFFCURVE",
"623 1485 QCURVE",
"623 1485 LINE"
);
},
{
closed = 1;
nodes = (
"741 1434 OFFCURVE",
"887 1303 OFFCURVE",
"887 1190 QCURVE SMOOTH",
"887 1065 OFFCURVE",
"707 899 OFFCURVE",
"551 831 QCURVE",
"451 934 OFFCURVE",
"340 1085 OFFCURVE",
"340 1180 QCURVE SMOOTH",
"340 1296 OFFCURVE",
"491 1434 OFFCURVE",
"623 1434 QCURVE",
"623 1434 LINE"
);
},
{
closed = 1;
nodes = (
"1057 250 LINE",
"963 147 OFFCURVE",
"745 31 OFFCURVE",
"575 31 QCURVE SMOOTH",
"401 31 OFFCURVE",
"184 205 OFFCURVE",
"184 367 QCURVE SMOOTH",
"184 471 OFFCURVE",
"266 612 OFFCURVE",
"426 717 OFFCURVE",
"541 772 QCURVE",
"541 772 LINE"
);
}
);
width = 1437;
}
);
note = ampersand;
unicode = 0026;
},
{
glyphname = quotesingle;
lastChange = "2020-02-04 08:34:44 +0000";
layers = (
{
layerId = "372009DC-CA12-41C8-98C7-C44FC6D5F55D";
paths = (
{
closed = 1;
nodes = (
"120 1462 LINE",
"161 934 LINE",
"435 934 LINE",
"476 1462 LINE",
"476 1462 LINE"
);
}
);
width = 598;
},
{
layerId = "A36153DC-C9CC-437F-8D19-86D84E7E38EA";
paths = (
{
closed = 1;
nodes = (
"223 1493 LINE",
"264 965 LINE",
"461 965 LINE",
"502 1493 LINE",
"502 1493 LINE"
);
}
);
width = 696;
},
{
layerId = "607A0539-44D7-4182-901A-4BFA5CCC01F8";
paths = (
{
closed = 1;
nodes = (
"133 1462 LINE",
"174 934 LINE",
"289 934 LINE",
"330 1462 LINE",
"330 1462 LINE"
);
}
);
userData = {
assembly = "NPUSHB[ ]	/* 28 values pushed */\0122 1 1 0 0 1 87 2 1 1 1 0 95 0 0 1 0 79 0 0 0 3 0 3 17 3 6 23 \012CALL[ ]	/* CallFunction */";
};
width = 463;
},
{
layerId = "DF847F4E-D23C-40FA-8597-1D02BA148938";
paths = (
{
closed = 1;
nodes = (
"141 1462 LINE",
"166 934 LINE",
"241 934 LINE",
"266 1462 LINE",
"266 1462 LINE"
);
}
);
width = 405;
},
{
layerId = "3BE6379C-89A1-45B5-97C8-F079248A4F49";
paths = (
{
closed = 1;
nodes = (
"149 1462 LINE",
"157 934 LINE",
"198 934 LINE",
"206 1462 LINE",
"206 1462 LINE"
);
}
);
width = 352;
}
);
note = quotesingle;
unicode = 0027;
},
{
glyphname = parenleft;
lastChange = "2020-02-04 08:34:44 +0000";
layers = (
{
layerId = "372009DC-CA12-41C8-98C7-C44FC6D5F55D";
paths = (
{
closed = 1;
nodes = (
"73 418 OFFCURVE",
"126 92 OFFCURVE",
"251 -205 OFFCURVE",
"354 -324 QCURVE",
"677 -324 LINE",
"585 -199 OFFCURVE",
"470 102 OFFCURVE",
"417 426 OFFCURVE",
"417 584 QCURVE SMOOTH",
"417 827 OFFCURVE",
"540 1311 OFFCURVE",
"679 1503 QCURVE",
"354 1503 LINE",
"251 1380 OFFCURVE",
"126 1077 OFFCURVE",
"73 750 OFFCURVE",
"73 582 QCURVE",
"73 582 LINE"
);
}
);
width = 735;
},
{
layerId = "A36153DC-C9CC-437F-8D19-86D84E7E38EA";
paths = (
{
closed = 1;
nodes = (
"135 532 OFFCURVE",
"171 257 OFFCURVE",
"245 0 OFFCURVE",
"358 -235 OFFCURVE",
"436 -338 QCURVE",
"684 -338 LINE",
"615 -231 OFFCURVE",
"509 12 OFFCURVE",
"437 270 OFFCURVE",
"401 540 OFFCURVE",
"401 676 QCURVE SMOOTH",
"401 954 OFFCURVE",
"545 1482 OFFCURVE",
"686 1703 QCURVE",
"436 1703 LINE",
"358 1597 OFFCURVE",
"245 1356 OFFCURVE",
"171 1094 OFFCURVE",
"135 816 OFFCURVE",
"135 673 QCURVE",
"135 673 LINE"
);
}
);
width = 791;
},
{
layerId = "607A0539-44D7-4182-901A-4BFA5CCC01F8";
paths = (
{
closed = 1;
nodes = (
"82 437 OFFCURVE",
"118 197 OFFCURVE",
"192 -28 OFFCURVE",
"305 -234 OFFCURVE",
"383 -324 QCURVE",
"553 -324 LINE",
"484 -230 OFFCURVE",
"378 -18 OFFCURVE",
"307 208 OFFCURVE",
"270 444 OFFCURVE",
"270 563 QCURVE SMOOTH",
"270 807 OFFCURVE",
"415 1269 OFFCURVE",
"555 1462 QCURVE",
"383 1462 LINE",
"305 1369 OFFCURVE",
"192 1158 OFFCURVE",
"118 929 OFFCURVE",
"82 686 OFFCURVE",
"82 561 QCURVE",
"82 561 LINE"
);
}
);
width = 616;
},
{
layerId = "DF847F4E-D23C-40FA-8597-1D02BA148938";
paths = (
{
closed = 1;
nodes = (
"83 303 OFFCURVE",
"235 -147 OFFCURVE",
"382 -324 QCURVE",
"499 -324 LINE",
"351 -135 OFFCURVE",
"202 315 OFFCURVE",
"202 563 QCURVE SMOOTH",
"202 813 OFFCURVE",
"351 1274 OFFCURVE",
"501 1462 QCURVE",
"382 1462 LINE",
"235 1286 OFFCURVE",
"83 823 OFFCURVE",
"83 561 QCURVE",
"83 561 LINE"
);
}
);
width = 569;
},
{
layerId = "3BE6379C-89A1-45B5-97C8-F079248A4F49";
paths = (
{
closed = 1;
nodes = (
"86 293 OFFCURVE",
"244 -152 OFFCURVE",
"383 -324 QCURVE",
"451 -324 LINE",
"295 -141 OFFCURVE",
"141 307 OFFCURVE",
"141 563 QCURVE SMOOTH",
"141 821 OFFCURVE",
"293 1282 OFFCURVE",
"451 1462 QCURVE",
"383 1462 LINE",
"244 1296 OFFCURVE",
"86 834 OFFCURVE",
"86 561 QCURVE",
"86 561 LINE"
);
}
);
width = 522;
}
);
note = parenleft;
unicode = 0028;
},
{
glyphname = parenright;
lastChange = "2020-02-04 08:34:44 +0000";
layers = (
{
layerId = "372009DC-CA12-41C8-98C7-C44FC6D5F55D";
paths = (
{
closed = 1;
nodes = (
"661 750 OFFCURVE",
"608 1077 OFFCURVE",
"483 1380 OFFCURVE",
"381 1503 QCURVE",
"55 1503 LINE",
"192 1311 OFFCURVE",
"317 827 OFFCURVE",
"317 584 QCURVE SMOOTH",
"317 426 OFFCURVE",
"264 102 OFFCURVE",
"147 -199 OFFCURVE",
"57 -324 QCURVE",
"381 -324 LINE",
"483 -205 OFFCURVE",
"608 92 OFFCURVE",
"661 418 OFFCURVE",
"661 582 QCURVE",
"661 582 LINE"
);
}
);
width = 735;
},
{
layerId = "A36153DC-C9CC-437F-8D19-86D84E7E38EA";
paths = (
{
closed = 1;
nodes = (
"656 833 OFFCURVE",
"620 1108 OFFCURVE",
"546 1365 OFFCURVE",
"433 1600 OFFCURVE",
"355 1703 QCURVE",
"107 1703 LINE",
"176 1596 OFFCURVE",
"282 1353 OFFCURVE",
"354 1095 OFFCURVE",
"390 825 OFFCURVE",
"390 689 QCURVE SMOOTH",
"390 411 OFFCURVE",
"246 -117 OFFCURVE",
"105 -338 QCURVE",
"355 -338 LINE",
"433 -232 OFFCURVE",
"546 9 OFFCURVE",
"620 271 OFFCURVE",
"656 549 OFFCURVE",
"656 692 QCURVE",
"656 692 LINE"
);
}
);
width = 791;
},
{
layerId = "607A0539-44D7-4182-901A-4BFA5CCC01F8";
paths = (
{
closed = 1;
nodes = (
"535 686 OFFCURVE",
"499 929 OFFCURVE",
"424 1158 OFFCURVE",
"311 1369 OFFCURVE",
"233 1462 QCURVE",
"61 1462 LINE",
"202 1269 OFFCURVE",
"346 807 OFFCURVE",
"346 563 QCURVE SMOOTH",
"346 444 OFFCURVE",
"310 208 OFFCURVE",
"238 -18 OFFCURVE",
"132 -230 OFFCURVE",
"63 -324 QCURVE",
"233 -324 LINE",
"311 -234 OFFCURVE",
"424 -28 OFFCURVE",
"499 197 OFFCURVE",
"535 437 OFFCURVE",
"535 561 QCURVE",
"535 561 LINE"
);
}
);
width = 616;
},
{
layerId = "DF847F4E-D23C-40FA-8597-1D02BA148938";
paths = (
{
closed = 1;
nodes = (
"485 829 OFFCURVE",
"333 1284 OFFCURVE",
"186 1462 QCURVE",
"67 1462 LINE",
"217 1274 OFFCURVE",
"366 819 OFFCURVE",
"366 569 QCURVE SMOOTH",
"366 319 OFFCURVE",
"219 -135 OFFCURVE",
"69 -324 QCURVE",
"186 -324 LINE",
"333 -152 OFFCURVE",
"485 309 OFFCURVE",
"485 569 QCURVE",
"485 569 LINE"
);
}
);
width = 569;
},
{
layerId = "3BE6379C-89A1-45B5-97C8-F079248A4F49";
paths = (
{
closed = 1;
nodes = (
"438 846 OFFCURVE",
"280 1290 OFFCURVE",
"141 1462 QCURVE",
"73 1462 LINE",
"229 1280 OFFCURVE",
"382 831 OFFCURVE",
"382 575 QCURVE SMOOTH",
"382 317 OFFCURVE",
"231 -143 OFFCURVE",
"73 -324 QCURVE",
"141 -324 LINE",
"280 -158 OFFCURVE",
"438 305 OFFCURVE",
"438 578 QCURVE",
"438 578 LINE"
);
}
);
width = 522;
}
);
note = parenright;
unicode = 0029;
},
{
glyphname = asterisk;
lastChange = "2020-02-04 08:34:44 +0000";
layers = (
{
layerId = "372009DC-CA12-41C8-98C7-C44FC6D5F55D";
paths = (
{
closed = 1;
nodes = (
"399 1556 LINE",
"438 1204 LINE",
"90 1305 LINE",
"45 1014 LINE",
"358 989 LINE",
"151 711 LINE",
"424 575 LINE",
"547 856 LINE",
"690 573 LINE",
"950 711 LINE",
"743 989 LINE",
"1057 1010 LINE",
"1020 1305 LINE",
"663 1204 LINE",
"702 1556 LINE",
"702 1556 LINE"
);
}
);
width = 1099;
},
{
layerId = "A36153DC-C9CC-437F-8D19-86D84E7E38EA";
paths = (
{
closed = 1;
nodes = (
"499 1525 LINE",
"540 1157 LINE",
"175 1261 LINE",
"136 1011 LINE",
"474 985 LINE",
"253 688 LINE",
"489 569 LINE",
"626 880 LINE",
"782 567 LINE",
"1009 688 LINE",
"786 985 LINE",
"1126 1009 LINE",
"1093 1261 LINE",
"720 1157 LINE",
"761 1525 LINE",
"761 1525 LINE"
);
}
);
width = 1243;
},
{
layerId = "607A0539-44D7-4182-901A-4BFA5CCC01F8";
paths = (
{
closed = 1;
nodes = (
"459 1556 LINE",
"502 1163 LINE",
"111 1274 LINE",
"82 1081 LINE",
"457 1053 LINE",
"215 727 LINE",
"399 631 LINE",
"557 989 LINE",
"733 631 LINE",
"911 727 LINE",
"666 1053 LINE",
"1044 1081 LINE",
"1018 1274 LINE",
"621 1163 LINE",
"664 1556 LINE",
"664 1556 LINE"
);
}
);
userData = {
assembly = "NPUSHB[ ]	/* 30 values pushed */\01213 12 11 10 9 8 7 6 5 4 3 2 1 13 0 73 1 1 0 0 118 0 0 0 14 0 14 2 6 22 \012CALL[ ]	/* CallFunction */";
};
width = 1128;
},
{
layerId = "DF847F4E-D23C-40FA-8597-1D02BA148938";
paths = (
{
closed = 1;
nodes = (
"495 1554 LINE",
"522 1147 LINE",
"129 1274 LINE",
"106 1151 LINE",
"495 1077 LINE",
"245 750 LINE",
"360 684 LINE",
"557 1036 LINE",
"763 684 LINE",
"876 750 LINE",
"626 1077 LINE",
"1015 1151 LINE",
"991 1274 LINE",
"598 1147 LINE",
"622 1554 LINE",
"622 1554 LINE"
);
}
);
width = 1128;
},
{
layerId = "3BE6379C-89A1-45B5-97C8-F079248A4F49";
paths = (
{
closed = 1;
nodes = (
"529 1552 LINE",
"542 1130 LINE",
"144 1272 LINE",
"126 1217 LINE",
"532 1100 LINE",
"276 766 LINE",
"323 733 LINE",
"558 1079 LINE",
"796 731 LINE",
"843 766 LINE",
"587 1100 LINE",
"988 1217 LINE",
"972 1272 LINE",
"575 1130 LINE",
"587 1552 LINE",
"587 1552 LINE"
);
}
);
width = 1128;
}
);
note = asterisk;
unicode = 002A;
},
{
glyphname = plus;
lastChange = "2020-02-04 08:34:44 +0000";
layers = (
{
layerId = "372009DC-CA12-41C8-98C7-C44FC6D5F55D";
paths = (
{
closed = 1;
nodes = (
"733 1223 LINE",
"465 1223 LINE",
"465 856 LINE",
"92 856 LINE",
"92 588 LINE",
"465 588 LINE",
"465 227 LINE",
"733 227 LINE",
"733 588 LINE",
"1106 588 LINE",
"1106 856 LINE",
"733 856 LINE",
"733 856 LINE"
);
}
);
width = 1200;
},
{
layerId = "A36153DC-C9CC-437F-8D19-86D84E7E38EA";
paths = (
{
closed = 1;
nodes = (
"475 188 LINE",
"694 188 LINE",
"694 552 LINE",
"1060 552 LINE",
"1060 771 LINE",
"694 771 LINE",
"694 1140 LINE",
"475 1140 LINE",
"475 771 LINE",
"108 771 LINE",
"108 552 LINE",
"475 552 LINE",
"475 552 LINE"
);
}
);
width = 1168;
},
{
layerId = "607A0539-44D7-4182-901A-4BFA5CCC01F8";
paths = (
{
closed = 1;
nodes = (
"489 262 LINE",
"639 262 LINE",
"639 647 LINE",
"1026 647 LINE",
"1026 797 LINE",
"639 797 LINE",
"639 1186 LINE",
"489 1186 LINE",
"489 797 LINE",
"102 797 LINE",
"102 647 LINE",
"489 647 LINE",
"489 647 LINE"
);
}
);
userData = {
assembly = "NPUSHB[ ]	/* 38 values pushed */\0120 2 1 2 133 0 5 0 5 134 3 1 1 0 0 1 87 3 1 1 1 0 95 4 1 0 1 0 79 17 17 17 17 17 16 6 6 28 \012CALL[ ]	/* CallFunction */";
};
width = 1128;
},
{
layerId = "DF847F4E-D23C-40FA-8597-1D02BA148938";
paths = (
{
closed = 1;
nodes = (
"632 1206 LINE",
"534 1206 LINE",
"534 770 LINE",
"106 770 LINE",
"106 674 LINE",
"534 674 LINE",
"534 240 LINE",
"632 240 LINE",
"632 674 LINE",
"1060 674 LINE",
"1060 770 LINE",
"632 770 LINE",
"632 770 LINE"
);
}
);
width = 1169;
},
{
layerId = "3BE6379C-89A1-45B5-97C8-F079248A4F49";
paths = (
{
closed = 1;
nodes = (
"608 1194 LINE",
"558 1194 LINE",
"558 748 LINE",
"112 748 LINE",
"112 698 LINE",
"558 698 LINE",
"558 252 LINE",
"608 252 LINE",
"608 698 LINE",
"1054 698 LINE",
"1054 748 LINE",
"608 748 LINE",
"608 748 LINE"
);
}
);
width = 1167;
}
);
note = plus;
unicode = 002B;
},
{
glyphname = comma;
lastChange = "2020-02-04 08:34:44 +0000";
layers = (
{
layerId = "372009DC-CA12-41C8-98C7-C44FC6D5F55D";
paths = (
{
closed = 1;
nodes = (
"155 299 LINE",
"147 217 OFFCURVE",
"114 16 OFFCURVE",
"77 -193 OFFCURVE",
"57 -285 QCURVE",
"336 -285 LINE",
"368 -209 OFFCURVE",
"436 -2 OFFCURVE",
"493 203 OFFCURVE",
"512 276 QCURVE",
"497 299 LINE",
"497 299 LINE"
);
}
);
width = 632;
},
{
layerId = "A36153DC-C9CC-437F-8D19-86D84E7E38EA";
paths = (
{
closed = 1;
nodes = (
"163 288 LINE",
"156 232 OFFCURVE",
"134 99 OFFCURVE",
"107 -39 OFFCURVE",
"78 -179 OFFCURVE",
"63 -244 QCURVE",
"283 -244 LINE",
"308 -185 OFFCURVE",
"359 -54 OFFCURVE",
"406 77 OFFCURVE",
"445 206 OFFCURVE",
"459 264 QCURVE",
"444 288 LINE",
"444 288 LINE"
);
}
);
width = 594;
},
{
layerId = "607A0539-44D7-4182-901A-4BFA5CCC01F8";
paths = (
{
closed = 1;
nodes = (
"164 238 LINE",
"156 185 OFFCURVE",
"134 60 OFFCURVE",
"107 -71 OFFCURVE",
"78 -203 OFFCURVE",
"63 -264 QCURVE",
"201 -264 LINE",
"226 -208 OFFCURVE",
"277 -85 OFFCURVE",
"324 39 OFFCURVE",
"363 161 OFFCURVE",
"377 215 QCURVE",
"362 238 LINE",
"362 238 LINE"
);
}
);
width = 512;
},
{
layerId = "DF847F4E-D23C-40FA-8597-1D02BA148938";
paths = (
{
closed = 1;
nodes = (
"187 238 LINE",
"157 8 OFFCURVE",
"81 -264 QCURVE",
"169 -264 LINE",
"216 -156 OFFCURVE",
"298 102 OFFCURVE",
"323 213 QCURVE",
"314 238 LINE",
"314 238 LINE"
);
}
);
width = 462;
},
{
layerId = "3BE6379C-89A1-45B5-97C8-F079248A4F49";
paths = (
{
closed = 1;
nodes = (
"192 238 LINE",
"175 121 OFFCURVE",
"122 -115 OFFCURVE",
"77 -264 QCURVE",
"122 -264 LINE",
"165 -158 OFFCURVE",
"233 98 OFFCURVE",
"255 213 QCURVE",
"249 238 LINE",
"249 238 LINE"
);
}
);
width = 374;
}
);
note = comma;
unicode = 002C;
},
{
glyphname = hyphen;
lastChange = "2020-02-04 08:34:44 +0000";
layers = (
{
layerId = "372009DC-CA12-41C8-98C7-C44FC6D5F55D";
paths = (
{
closed = 1;
nodes = (
"608 393 LINE",
"608 705 LINE",
"43 705 LINE",
"43 393 LINE",
"43 393 LINE"
);
}
);
width = 651;
},
{
layerId = "A36153DC-C9CC-437F-8D19-86D84E7E38EA";
paths = (
{
closed = 1;
nodes = (
"643 484 LINE",
"643 734 LINE",
"106 734 LINE",
"106 484 LINE",
"106 484 LINE"
);
}
);
width = 749;
},
{
layerId = "607A0539-44D7-4182-901A-4BFA5CCC01F8";
paths = (
{
closed = 1;
nodes = (
"578 465 LINE",
"578 633 LINE",
"82 633 LINE",
"82 465 LINE",
"82 465 LINE"
);
}
);
userData = {
assembly = "NPUSHB[ ]	/* 27 values pushed */\0120 0 1 1 0 87 0 0 0 1 95 2 1 1 0 1 79 0 0 0 3 0 3 17 3 6 23 \012CALL[ ]	/* CallFunction */";
};
width = 659;
},
{
layerId = "DF847F4E-D23C-40FA-8597-1D02BA148938";
paths = (
{
closed = 1;
nodes = (
"577 500 LINE",
"577 606 LINE",
"81 606 LINE",
"81 500 LINE",
"81 500 LINE"
);
}
);
width = 659;
},
{
layerId = "3BE6379C-89A1-45B5-97C8-F079248A4F49";
paths = (
{
closed = 1;
nodes = (
"577 530 LINE",
"577 582 LINE",
"81 582 LINE",
"81 530 LINE",
"81 530 LINE"
);
}
);
width = 659;
}
);
note = hyphen;
unicode = 002D;
},
{
glyphname = period;
lastChange = "2020-02-04 08:34:44 +0000";
layers = (
{
layerId = "372009DC-CA12-41C8-98C7-C44FC6D5F55D";
paths = (
{
closed = 1;
nodes = (
"86 66 OFFCURVE",
"211 -25 OFFCURVE",
"299 -25 QCURVE SMOOTH",
"381 -25 OFFCURVE",
"504 66 OFFCURVE",
"504 166 QCURVE SMOOTH",
"504 272 OFFCURVE",
"381 358 OFFCURVE",
"299 358 QCURVE SMOOTH",
"211 358 OFFCURVE",
"86 272 OFFCURVE",
"86 166 QCURVE",
"86 166 LINE"
);
}
);
width = 591;
},
{
layerId = "A36153DC-C9CC-437F-8D19-86D84E7E38EA";
paths = (
{
closed = 1;
nodes = (
"117 98 OFFCURVE",
"144 34 OFFCURVE",
"192 -8 OFFCURVE",
"256 -27 OFFCURVE",
"293 -27 QCURVE SMOOTH",
"328 -27 OFFCURVE",
"391 -8 OFFCURVE",
"439 34 OFFCURVE",
"467 98 OFFCURVE",
"467 143 QCURVE SMOOTH",
"467 190 OFFCURVE",
"439 255 OFFCURVE",
"391 295 OFFCURVE",
"328 313 OFFCURVE",
"293 313 QCURVE SMOOTH",
"256 313 OFFCURVE",
"192 295 OFFCURVE",
"144 255 OFFCURVE",
"117 190 OFFCURVE",
"117 143 QCURVE",
"117 143 LINE"
);
}
);
width = 584;
},
{
layerId = "607A0539-44D7-4182-901A-4BFA5CCC01F8";
paths = (
{
closed = 1;
nodes = (
"147 74 OFFCURVE",
"167 21 OFFCURVE",
"201 -13 OFFCURVE",
"247 -29 OFFCURVE",
"274 -29 QCURVE SMOOTH",
"300 -29 OFFCURVE",
"347 -13 OFFCURVE",
"381 21 OFFCURVE",
"401 74 OFFCURVE",
"401 111 QCURVE SMOOTH",
"401 149 OFFCURVE",
"381 202 OFFCURVE",
"347 235 OFFCURVE",
"300 250 OFFCURVE",
"274 250 QCURVE SMOOTH",
"247 250 OFFCURVE",
"201 235 OFFCURVE",
"167 202 OFFCURVE",
"147 149 OFFCURVE",
"147 111 QCURVE",
"147 111 LINE"
);
}
);
width = 549;
},
{
layerId = "DF847F4E-D23C-40FA-8597-1D02BA148938";
paths = (
{
closed = 1;
nodes = (
"159 -23 OFFCURVE",
"249 -23 QCURVE SMOOTH",
"339 -23 OFFCURVE",
"339 78 QCURVE SMOOTH",
"339 178 OFFCURVE",
"249 178 QCURVE SMOOTH",
"159 178 OFFCURVE",
"159 78 QCURVE",
"159 78 LINE"
);
}
);
width = 499;
},
{
layerId = "3BE6379C-89A1-45B5-97C8-F079248A4F49";
paths = (
{
closed = 1;
nodes = (
"174 20 OFFCURVE",
"194 -16 OFFCURVE",
"225 -16 QCURVE SMOOTH",
"262 -16 OFFCURVE",
"280 20 OFFCURVE",
"280 47 QCURVE SMOOTH",
"280 72 OFFCURVE",
"262 111 OFFCURVE",
"225 111 QCURVE SMOOTH",
"194 111 OFFCURVE",
"174 72 OFFCURVE",
"174 47 QCURVE",
"174 47 LINE"
);
}
);
width = 450;
}
);
note = period;
unicode = 002E;
},
{
glyphname = slash;
lastChange = "2020-02-04 08:34:44 +0000";
layers = (
{
layerId = "372009DC-CA12-41C8-98C7-C44FC6D5F55D";
paths = (
{
closed = 1;
nodes = (
"555 1483 LINE",
"10 -20 LINE",
"356 -20 LINE",
"901 1483 LINE",
"901 1483 LINE"
);
}
);
width = 905;
},
{
layerId = "A36153DC-C9CC-437F-8D19-86D84E7E38EA";
paths = (
{
closed = 1;
nodes = (
"632 1705 LINE",
"72 -339 LINE",
"334 -339 LINE",
"894 1705 LINE",
"894 1705 LINE"
);
}
);
width = 966;
},
{
layerId = "607A0539-44D7-4182-901A-4BFA5CCC01F8";
paths = (
{
closed = 1;
nodes = (
"565 1462 LINE",
"20 0 LINE",
"199 0 LINE",
"743 1462 LINE",
"743 1462 LINE"
);
}
);
userData = {
assembly = "NPUSHB[ ]	/* 20 values pushed */\0122 1 1 0 1 133 0 0 0 118 0 0 0 3 0 3 17 3 6 23 \012CALL[ ]	/* CallFunction */";
};
width = 764;
},
{
layerId = "DF847F4E-D23C-40FA-8597-1D02BA148938";
paths = (
{
closed = 1;
nodes = (
"569 1462 LINE",
"24 0 LINE",
"139 0 LINE",
"688 1462 LINE",
"688 1462 LINE"
);
}
);
width = 710;
},
{
layerId = "3BE6379C-89A1-45B5-97C8-F079248A4F49";
paths = (
{
closed = 1;
nodes = (
"575 1462 LINE",
"26 0 LINE",
"83 0 LINE",
"632 1462 LINE",
"632 1462 LINE"
);
}
);
width = 659;
}
);
note = slash;
unicode = 002F;
},
{
glyphname = zero;
lastChange = "2020-02-04 08:34:44 +0000";
layers = (
{
layerId = "372009DC-CA12-41C8-98C7-C44FC6D5F55D";
paths = (
{
closed = 1;
nodes = (
"1128 1085 OFFCURVE",
"872 1483 OFFCURVE",
"599 1483 QCURVE SMOOTH",
"405 1483 OFFCURVE",
"171 1303 OFFCURVE",
"71 967 OFFCURVE",
"71 729 QCURVE SMOOTH",
"71 377 OFFCURVE",
"325 -20 OFFCURVE",
"599 -20 QCURVE SMOOTH",
"794 -20 OFFCURVE",
"1027 160 OFFCURVE",
"1128 496 OFFCURVE",
"1128 729 QCURVE",
"1128 729 LINE"
);
},
{
closed = 1;
nodes = (
"464 946 OFFCURVE",
"515 1167 OFFCURVE",
"599 1167 QCURVE SMOOTH",
"681 1167 OFFCURVE",
"735 946 OFFCURVE",
"735 729 QCURVE SMOOTH",
"735 512 OFFCURVE",
"681 295 OFFCURVE",
"599 295 QCURVE SMOOTH",
"515 295 OFFCURVE",
"464 514 OFFCURVE",
"464 729 QCURVE",
"464 729 LINE"
);
}
);
width = 1200;
},
{
layerId = "A36153DC-C9CC-437F-8D19-86D84E7E38EA";
paths = (
{
closed = 1;
nodes = (
"1065 909 OFFCURVE",
"1003 1189 OFFCURVE",
"877 1383 OFFCURVE",
"689 1485 OFFCURVE",
"563 1485 QCURVE SMOOTH",
"428 1485 OFFCURVE",
"238 1382 OFFCURVE",
"118 1188 OFFCURVE",
"63 908 OFFCURVE",
"63 731 QCURVE SMOOTH",
"63 554 OFFCURVE",
"124 276 OFFCURVE",
"248 82 OFFCURVE",
"436 -20 OFFCURVE",
"563 -20 QCURVE SMOOTH",
"698 -20 OFFCURVE",
"889 82 OFFCURVE",
"1010 276 OFFCURVE",
"1065 554 OFFCURVE",
"1065 731 QCURVE",
"1065 731 LINE"
);
},
{
closed = 1;
nodes = (
"371 856 OFFCURVE",
"391 1045 OFFCURVE",
"437 1171 OFFCURVE",
"510 1235 OFFCURVE",
"563 1235 QCURVE SMOOTH",
"667 1235 OFFCURVE",
"758 982 OFFCURVE",
"758 731 QCURVE SMOOTH",
"758 479 OFFCURVE",
"667 229 OFFCURVE",
"563 229 QCURVE SMOOTH",
"457 229 OFFCURVE",
"371 481 OFFCURVE",
"371 731 QCURVE",
"371 731 LINE"
);
}
);
width = 1128;
},
{
layerId = "607A0539-44D7-4182-901A-4BFA5CCC01F8";
paths = (
{
closed = 1;
nodes = (
"1032 911 OFFCURVE",
"974 1191 OFFCURVE",
"858 1384 OFFCURVE",
"682 1485 OFFCURVE",
"563 1485 QCURVE SMOOTH",
"437 1485 OFFCURVE",
"260 1383 OFFCURVE",
"149 1190 OFFCURVE",
"98 910 OFFCURVE",
"98 733 QCURVE SMOOTH",
"98 556 OFFCURVE",
"155 276 OFFCURVE",
"270 82 OFFCURVE",
"445 -20 OFFCURVE",
"563 -20 QCURVE SMOOTH",
"690 -20 OFFCURVE",
"868 82 OFFCURVE",
"981 276 OFFCURVE",
"1032 556 OFFCURVE",
"1032 733 QCURVE",
"1032 733 LINE"
);
},
{
closed = 1;
nodes = (
"283 883 OFFCURVE",
"313 1107 OFFCURVE",
"379 1255 OFFCURVE",
"486 1329 OFFCURVE",
"563 1329 QCURVE SMOOTH",
"640 1329 OFFCURVE",
"748 1255 OFFCURVE",
"817 1107 OFFCURVE",
"848 883 OFFCURVE",
"848 733 QCURVE SMOOTH",
"848 582 OFFCURVE",
"817 357 OFFCURVE",
"748 209 OFFCURVE",
"640 135 OFFCURVE",
"563 135 QCURVE SMOOTH",
"486 135 OFFCURVE",
"379 210 OFFCURVE",
"313 359 OFFCURVE",
"283 583 OFFCURVE",
"283 733 QCURVE",
"283 733 LINE"
);
}
);
width = 1128;
},
{
layerId = "DF847F4E-D23C-40FA-8597-1D02BA148938";
paths = (
{
closed = 1;
nodes = (
"1054 963 OFFCURVE",
"960 1300 OFFCURVE",
"753 1485 OFFCURVE",
"585 1485 QCURVE SMOOTH",
"413 1485 OFFCURVE",
"206 1296 OFFCURVE",
"114 958 OFFCURVE",
"114 735 QCURVE SMOOTH",
"114 365 OFFCURVE",
"352 -20 OFFCURVE",
"583 -20 QCURVE SMOOTH",
"827 -20 OFFCURVE",
"1054 369 OFFCURVE",
"1054 735 QCURVE",
"1054 735 LINE"
);
},
{
closed = 1;
nodes = (
"231 936 OFFCURVE",
"296 1227 OFFCURVE",
"452 1382 OFFCURVE",
"585 1382 QCURVE SMOOTH",
"718 1382 OFFCURVE",
"872 1229 OFFCURVE",
"935 938 OFFCURVE",
"935 735 QCURVE SMOOTH",
"935 406 OFFCURVE",
"769 82 OFFCURVE",
"583 82 QCURVE SMOOTH",
"401 82 OFFCURVE",
"231 406 OFFCURVE",
"231 735 QCURVE",
"231 735 LINE"
);
}
);
width = 1169;
},
{
layerId = "3BE6379C-89A1-45B5-97C8-F079248A4F49";
paths = (
{
closed = 1;
nodes = (
"1037 956 OFFCURVE",
"955 1294 OFFCURVE",
"759 1485 OFFCURVE",
"585 1485 QCURVE SMOOTH",
"417 1485 OFFCURVE",
"214 1288 OFFCURVE",
"126 950 OFFCURVE",
"126 737 QCURVE SMOOTH",
"126 352 OFFCURVE",
"366 -20 OFFCURVE",
"583 -20 QCURVE SMOOTH",
"1037 -20 OFFCURVE",
"1037 737 QCURVE",
"1037 737 LINE"
);
},
{
closed = 1;
nodes = (
"181 938 OFFCURVE",
"255 1253 OFFCURVE",
"431 1434 OFFCURVE",
"585 1434 QCURVE SMOOTH",
"742 1434 OFFCURVE",
"914 1260 OFFCURVE",
"982 946 OFFCURVE",
"982 737 QCURVE SMOOTH",
"982 379 OFFCURVE",
"794 31 OFFCURVE",
"583 31 QCURVE SMOOTH",
"384 31 OFFCURVE",
"181 377 OFFCURVE",
"181 737 QCURVE",
"181 737 LINE"
);
}
);
width = 1167;
}
);
note = zero;
unicode = 0030;
},
{
glyphname = one;
lastChange = "2020-02-04 08:34:44 +0000";
layers = (
{
layerId = "372009DC-CA12-41C8-98C7-C44FC6D5F55D";
paths = (
{
closed = 1;
nodes = (
"941 1462 LINE",
"585 1462 LINE",
"83 1053 LINE",
"288 801 LINE",
"454 938 LINE SMOOTH",
"474 956 OFFCURVE",
"519 1001 OFFCURVE",
"546 1032 QCURVE",
"544 979 OFFCURVE",
"540 850 OFFCURVE",
"540 796 QCURVE SMOOTH",
"540 0 LINE",
"941 0 LINE",
"941 0 LINE"
);
}
);
width = 1200;
},
{
layerId = "A36153DC-C9CC-437F-8D19-86D84E7E38EA";
paths = (
{
closed = 1;
nodes = (
"817 1462 LINE",
"563 1462 LINE",
"92 1087 LINE",
"242 901 LINE",
"410 1036 LINE SMOOTH",
"425 1048 OFFCURVE",
"457 1078 OFFCURVE",
"487 1107 OFFCURVE",
"511 1131 OFFCURVE",
"516 1137 QCURVE",
"515 1104 OFFCURVE",
"512 1024 OFFCURVE",
"509 945 OFFCURVE",
"508 872 OFFCURVE",
"508 846 QCURVE SMOOTH",
"508 0 LINE",
"817 0 LINE",
"817 0 LINE"
);
}
);
width = 1128;
},
{
layerId = "607A0539-44D7-4182-901A-4BFA5CCC01F8";
paths = (
{
closed = 1;
nodes = (
"711 1462 LINE",
"561 1462 LINE",
"178 1163 LINE",
"274 1040 LINE",
"422 1161 LINE SMOOTH",
"443 1179 OFFCURVE",
"473 1206 OFFCURVE",
"500 1230 OFFCURVE",
"526 1256 OFFCURVE",
"543 1274 QCURVE",
"542 1240 OFFCURVE",
"539 1151 OFFCURVE",
"536 1054 OFFCURVE",
"535 956 OFFCURVE",
"535 913 QCURVE SMOOTH",
"535 0 LINE",
"711 0 LINE",
"711 0 LINE"
);
}
);
width = 1128;
},
{
layerId = "DF847F4E-D23C-40FA-8597-1D02BA148938";
paths = (
{
closed = 1;
nodes = (
"692 1462 LINE",
"593 1462 LINE",
"196 1163 LINE",
"257 1081 LINE",
"462 1237 LINE SMOOTH",
"503 1270 OFFCURVE",
"552 1311 OFFCURVE",
"581 1339 QCURVE",
"577 1288 OFFCURVE",
"577 1232 QCURVE SMOOTH",
"577 0 LINE",
"692 0 LINE",
"692 0 LINE"
);
}
);
width = 1169;
},
{
layerId = "3BE6379C-89A1-45B5-97C8-F079248A4F49";
paths = (
{
closed = 1;
nodes = (
"654 1462 LINE",
"607 1462 LINE",
"208 1171 LINE",
"241 1128 LINE",
"493 1315 LINE SMOOTH",
"532 1343 OFFCURVE",
"579 1380 OFFCURVE",
"603 1403 QCURVE",
"601 1362 OFFCURVE",
"601 1302 QCURVE SMOOTH",
"601 0 LINE",
"654 0 LINE",
"654 0 LINE"
);
}
);
width = 1167;
}
);
note = one;
unicode = 0031;
},
{
glyphname = two;
lastChange = "2020-02-04 08:34:44 +0000";
layers = (
{
layerId = "372009DC-CA12-41C8-98C7-C44FC6D5F55D";
paths = (
{
closed = 1;
nodes = (
"1122 326 LINE",
"569 326 LINE",
"569 336 LINE",
"676 432 LINE SMOOTH",
"815 557 OFFCURVE",
"1001 758 OFFCURVE",
"1094 956 OFFCURVE",
"1094 1083 QCURVE SMOOTH",
"1094 1198 OFFCURVE",
"973 1378 OFFCURVE",
"754 1483 OFFCURVE",
"606 1483 QCURVE SMOOTH",
"461 1483 OFFCURVE",
"258 1415 OFFCURVE",
"111 1307 OFFCURVE",
"45 1249 QCURVE",
"262 995 LINE",
"352 1073 OFFCURVE",
"491 1151 OFFCURVE",
"561 1151 QCURVE SMOOTH",
"618 1151 OFFCURVE",
"702 1094 OFFCURVE",
"702 1028 QCURVE SMOOTH",
"702 975 OFFCURVE",
"651 877 OFFCURVE",
"528 737 OFFCURVE",
"418 621 QCURVE SMOOTH",
"61 260 LINE",
"61 0 LINE",
"1122 0 LINE",
"1122 0 LINE"
);
}
);
width = 1200;
},
{
layerId = "A36153DC-C9CC-437F-8D19-86D84E7E38EA";
paths = (
{
closed = 1;
nodes = (
"1063 260 LINE",
"467 260 LINE",
"467 274 LINE",
"643 451 LINE SMOOTH",
"721 528 OFFCURVE",
"858 677 OFFCURVE",
"962 828 OFFCURVE",
"1022 985 OFFCURVE",
"1022 1071 QCURVE SMOOTH",
"1022 1166 OFFCURVE",
"959 1318 OFFCURVE",
"841 1425 OFFCURVE",
"674 1483 OFFCURVE",
"569 1483 QCURVE SMOOTH",
"481 1483 OFFCURVE",
"339 1448 OFFCURVE",
"221 1390 OFFCURVE",
"123 1315 OFFCURVE",
"78 1274 QCURVE",
"246 1075 LINE",
"326 1147 OFFCURVE",
"472 1225 OFFCURVE",
"551 1225 QCURVE SMOOTH",
"626 1225 OFFCURVE",
"715 1143 OFFCURVE",
"715 1069 QCURVE SMOOTH",
"715 1002 OFFCURVE",
"673 886 OFFCURVE",
"597 774 OFFCURVE",
"491 656 OFFCURVE",
"426 586 QCURVE SMOOTH",
"82 215 LINE",
"82 0 LINE",
"1063 0 LINE",
"1063 0 LINE"
);
}
);
width = 1128;
},
{
layerId = "607A0539-44D7-4182-901A-4BFA5CCC01F8";
paths = (
{
closed = 1;
nodes = (
"1008 166 LINE",
"319 166 LINE",
"319 174 LINE",
"600 473 LINE SMOOTH",
"675 554 OFFCURVE",
"804 704 OFFCURVE",
"897 853 OFFCURVE",
"950 1007 OFFCURVE",
"950 1092 QCURVE SMOOTH",
"950 1183 OFFCURVE",
"891 1328 OFFCURVE",
"783 1429 OFFCURVE",
"628 1483 OFFCURVE",
"532 1483 QCURVE SMOOTH",
"467 1483 OFFCURVE",
"349 1456 OFFCURVE",
"243 1410 OFFCURVE",
"151 1347 OFFCURVE",
"111 1311 QCURVE",
"213 1192 LINE",
"282 1252 OFFCURVE",
"435 1329 OFFCURVE",
"530 1329 QCURVE SMOOTH",
"583 1329 OFFCURVE",
"669 1297 OFFCURVE",
"732 1234 OFFCURVE",
"766 1144 OFFCURVE",
"766 1085 QCURVE SMOOTH",
"766 1009 OFFCURVE",
"722 880 OFFCURVE",
"639 752 OFFCURVE",
"521 618 OFFCURVE",
"446 537 QCURVE SMOOTH",
"96 156 LINE",
"96 0 LINE",
"1008 0 LINE",
"1008 0 LINE"
);
}
);
width = 1128;
},
{
layerId = "DF847F4E-D23C-40FA-8597-1D02BA148938";
paths = (
{
closed = 1;
nodes = (
"1036 106 LINE",
"260 106 LINE",
"260 113 LINE",
"626 487 LINE SMOOTH",
"733 594 OFFCURVE",
"886 782 OFFCURVE",
"970 979 OFFCURVE",
"970 1098 QCURVE SMOOTH",
"970 1274 OFFCURVE",
"745 1483 OFFCURVE",
"556 1483 QCURVE SMOOTH",
"442 1483 OFFCURVE",
"229 1401 OFFCURVE",
"139 1327 QCURVE",
"202 1245 LINE",
"286 1311 OFFCURVE",
"458 1380 OFFCURVE",
"556 1380 QCURVE SMOOTH",
"692 1380 OFFCURVE",
"851 1231 OFFCURVE",
"851 1094 QCURVE SMOOTH",
"851 987 OFFCURVE",
"778 815 OFFCURVE",
"634 643 OFFCURVE",
"530 535 QCURVE SMOOTH",
"110 98 LINE",
"110 0 LINE",
"1036 0 LINE",
"1036 0 LINE"
);
}
);
width = 1169;
},
{
layerId = "3BE6379C-89A1-45B5-97C8-F079248A4F49";
paths = (
{
closed = 1;
nodes = (
"1005 51 LINE",
"194 51 LINE",
"194 53 LINE",
"620 504 LINE SMOOTH",
"720 608 OFFCURVE",
"861 788 OFFCURVE",
"937 981 OFFCURVE",
"937 1104 QCURVE SMOOTH",
"937 1217 OFFCURVE",
"839 1386 OFFCURVE",
"665 1483 OFFCURVE",
"548 1483 QCURVE SMOOTH",
"460 1483 OFFCURVE",
"257 1417 OFFCURVE",
"163 1341 QCURVE",
"194 1300 LINE",
"276 1366 OFFCURVE",
"460 1432 OFFCURVE",
"548 1432 QCURVE SMOOTH",
"704 1432 OFFCURVE",
"882 1257 OFFCURVE",
"882 1104 QCURVE SMOOTH",
"882 991 OFFCURVE",
"812 811 OFFCURVE",
"679 637 OFFCURVE",
"579 532 QCURVE SMOOTH",
"120 47 LINE",
"120 0 LINE",
"1005 0 LINE",
"1005 0 LINE"
);
}
);
width = 1167;
}
);
note = two;
unicode = 0032;
},
{
glyphname = three;
lastChange = "2020-02-04 08:34:44 +0000";
layers = (
{
layerId = "372009DC-CA12-41C8-98C7-C44FC6D5F55D";
paths = (
{
closed = 1;
nodes = (
"1073 1303 OFFCURVE",
"812 1483 OFFCURVE",
"587 1483 QCURVE SMOOTH",
"397 1483 OFFCURVE",
"161 1397 OFFCURVE",
"71 1335 QCURVE",
"235 1071 LINE",
"257 1085 OFFCURVE",
"343 1128 OFFCURVE",
"458 1165 OFFCURVE",
"526 1165 QCURVE SMOOTH",
"599 1165 OFFCURVE",
"690 1110 OFFCURVE",
"690 1051 QCURVE SMOOTH",
"690 983 OFFCURVE",
"556 897 OFFCURVE",
"388 897 QCURVE SMOOTH",
"296 897 LINE",
"296 600 LINE",
"386 600 LINE SMOOTH",
"511 600 OFFCURVE",
"647 561 OFFCURVE",
"698 492 OFFCURVE",
"698 442 QCURVE SMOOTH",
"698 373 OFFCURVE",
"593 291 OFFCURVE",
"448 291 QCURVE SMOOTH",
"364 291 OFFCURVE",
"163 338 OFFCURVE",
"69 387 QCURVE",
"69 59 LINE",
"163 23 OFFCURVE",
"364 -20 OFFCURVE",
"505 -20 QCURVE SMOOTH",
"716 -20 OFFCURVE",
"987 98 OFFCURVE",
"1116 299 OFFCURVE",
"1116 418 QCURVE SMOOTH",
"1116 573 OFFCURVE",
"925 741 OFFCURVE",
"749 764 QCURVE",
"749 770 LINE",
"835 795 OFFCURVE",
"982 891 OFFCURVE",
"1073 1040 OFFCURVE",
"1073 1145 QCURVE",
"1073 1145 LINE"
);
}
);
width = 1200;
},
{
layerId = "A36153DC-C9CC-437F-8D19-86D84E7E38EA";
paths = (
{
closed = 1;
nodes = (
"1006 1218 OFFCURVE",
"937 1347 OFFCURVE",
"811 1436 OFFCURVE",
"634 1483 OFFCURVE",
"526 1483 QCURVE SMOOTH",
"450 1483 OFFCURVE",
"316 1461 OFFCURVE",
"200 1422 OFFCURVE",
"101 1370 OFFCURVE",
"59 1339 QCURVE",
"215 1133 LINE",
"239 1150 OFFCURVE",
"298 1185 OFFCURVE",
"369 1214 OFFCURVE",
"452 1233 OFFCURVE",
"500 1233 QCURVE SMOOTH",
"605 1233 OFFCURVE",
"702 1145 OFFCURVE",
"702 1067 QCURVE SMOOTH",
"702 1024 OFFCURVE",
"672 948 OFFCURVE",
"599 891 OFFCURVE",
"477 858 OFFCURVE",
"385 858 QCURVE SMOOTH",
"283 858 LINE",
"283 641 LINE",
"387 641 LINE SMOOTH",
"485 641 OFFCURVE",
"619 613 OFFCURVE",
"702 562 OFFCURVE",
"739 489 OFFCURVE",
"739 444 QCURVE SMOOTH",
"739 396 OFFCURVE",
"710 315 OFFCURVE",
"642 257 OFFCURVE",
"528 225 OFFCURVE",
"442 225 QCURVE SMOOTH",
"399 225 OFFCURVE",
"302 237 OFFCURVE",
"202 262 OFFCURVE",
"102 298 OFFCURVE",
"57 322 QCURVE",
"57 59 LINE",
"147 19 OFFCURVE",
"355 -20 OFFCURVE",
"473 -20 QCURVE SMOOTH",
"620 -20 OFFCURVE",
"837 47 OFFCURVE",
"980 167 OFFCURVE",
"1049 330 OFFCURVE",
"1049 426 QCURVE SMOOTH",
"1049 571 OFFCURVE",
"867 742 OFFCURVE",
"690 764 QCURVE",
"690 770 LINE",
"757 786 OFFCURVE",
"872 847 OFFCURVE",
"957 938 OFFCURVE",
"1006 1059 OFFCURVE",
"1006 1135 QCURVE",
"1006 1135 LINE"
);
}
);
width = 1128;
},
{
layerId = "607A0539-44D7-4182-901A-4BFA5CCC01F8";
paths = (
{
closed = 1;
nodes = (
"961 1199 OFFCURVE",
"905 1332 OFFCURVE",
"795 1429 OFFCURVE",
"632 1483 OFFCURVE",
"524 1483 QCURVE SMOOTH",
"454 1483 OFFCURVE",
"329 1459 OFFCURVE",
"219 1418 OFFCURVE",
"126 1364 OFFCURVE",
"88 1333 QCURVE",
"180 1208 LINE",
"254 1262 OFFCURVE",
"417 1329 OFFCURVE",
"524 1329 QCURVE SMOOTH",
"580 1329 OFFCURVE",
"672 1299 OFFCURVE",
"738 1242 OFFCURVE",
"774 1160 OFFCURVE",
"774 1108 QCURVE SMOOTH",
"774 1047 OFFCURVE",
"730 945 OFFCURVE",
"645 871 OFFCURVE",
"519 831 OFFCURVE",
"438 831 QCURVE SMOOTH",
"305 831 LINE",
"305 680 LINE",
"438 680 LINE SMOOTH",
"527 680 OFFCURVE",
"668 650 OFFCURVE",
"766 587 OFFCURVE",
"819 490 OFFCURVE",
"819 422 QCURVE SMOOTH",
"819 355 OFFCURVE",
"778 247 OFFCURVE",
"691 173 OFFCURVE",
"557 133 OFFCURVE",
"465 133 QCURVE SMOOTH",
"372 133 OFFCURVE",
"169 183 OFFCURVE",
"82 229 QCURVE",
"82 59 LINE",
"167 14 OFFCURVE",
"360 -20 OFFCURVE",
"469 -20 QCURVE SMOOTH",
"607 -20 OFFCURVE",
"809 44 OFFCURVE",
"941 160 OFFCURVE",
"1006 320 OFFCURVE",
"1006 416 QCURVE SMOOTH",
"1006 561 OFFCURVE",
"822 742 OFFCURVE",
"645 764 QCURVE",
"645 770 LINE",
"716 782 OFFCURVE",
"832 839 OFFCURVE",
"915 927 OFFCURVE",
"961 1047 OFFCURVE",
"961 1120 QCURVE",
"961 1120 LINE"
);
}
);
width = 1128;
},
{
layerId = "DF847F4E-D23C-40FA-8597-1D02BA148938";
paths = (
{
closed = 1;
nodes = (
"987 1288 OFFCURVE",
"762 1483 OFFCURVE",
"557 1483 QCURVE SMOOTH",
"416 1483 OFFCURVE",
"190 1397 OFFCURVE",
"106 1331 QCURVE",
"166 1249 LINE",
"256 1311 OFFCURVE",
"442 1380 OFFCURVE",
"559 1380 QCURVE SMOOTH",
"698 1380 OFFCURVE",
"866 1247 OFFCURVE",
"866 1118 QCURVE SMOOTH",
"866 967 OFFCURVE",
"645 809 OFFCURVE",
"475 809 QCURVE SMOOTH",
"317 809 LINE",
"317 707 LINE",
"473 707 LINE SMOOTH",
"672 707 OFFCURVE",
"909 569 OFFCURVE",
"909 410 QCURVE SMOOTH",
"909 258 OFFCURVE",
"708 80 OFFCURVE",
"500 80 QCURVE SMOOTH",
"395 80 OFFCURVE",
"178 133 OFFCURVE",
"94 174 QCURVE",
"94 61 LINE",
"178 20 OFFCURVE",
"381 -20 OFFCURVE",
"500 -20 QCURVE SMOOTH",
"766 -20 OFFCURVE",
"1032 217 OFFCURVE",
"1032 406 QCURVE SMOOTH",
"1032 559 OFFCURVE",
"852 741 OFFCURVE",
"680 762 QCURVE",
"680 770 LINE",
"815 795 OFFCURVE",
"987 979 OFFCURVE",
"987 1124 QCURVE",
"987 1124 LINE"
);
}
);
width = 1169;
},
{
layerId = "3BE6379C-89A1-45B5-97C8-F079248A4F49";
paths = (
{
closed = 1;
nodes = (
"962 1298 OFFCURVE",
"739 1483 OFFCURVE",
"559 1483 QCURVE SMOOTH",
"424 1483 OFFCURVE",
"202 1401 OFFCURVE",
"112 1331 QCURVE",
"141 1288 LINE",
"241 1360 OFFCURVE",
"444 1432 OFFCURVE",
"559 1432 QCURVE SMOOTH",
"717 1432 OFFCURVE",
"907 1282 OFFCURVE",
"907 1128 QCURVE SMOOTH",
"907 1010 OFFCURVE",
"788 858 OFFCURVE",
"598 786 OFFCURVE",
"489 786 QCURVE SMOOTH",
"319 786 LINE",
"319 735 LINE",
"489 735 LINE SMOOTH",
"626 735 OFFCURVE",
"833 668 OFFCURVE",
"952 520 OFFCURVE",
"952 397 QCURVE SMOOTH",
"952 229 OFFCURVE",
"727 31 OFFCURVE",
"506 31 QCURVE SMOOTH",
"393 31 OFFCURVE",
"172 84 OFFCURVE",
"96 123 QCURVE",
"96 66 LINE",
"174 29 OFFCURVE",
"385 -20 OFFCURVE",
"506 -20 QCURVE SMOOTH",
"751 -20 OFFCURVE",
"1007 215 OFFCURVE",
"1007 397 QCURVE SMOOTH",
"1007 561 OFFCURVE",
"821 741 OFFCURVE",
"651 764 QCURVE",
"651 768 LINE",
"784 791 OFFCURVE",
"962 983 OFFCURVE",
"962 1128 QCURVE",
"962 1128 LINE"
);
}
);
width = 1167;
}
);
note = three;
unicode = 0033;
},
{
glyphname = four;
lastChange = "2020-02-04 08:34:44 +0000";
layers = (
{
layerId = "372009DC-CA12-41C8-98C7-C44FC6D5F55D";
paths = (
{
closed = 1;
nodes = (
"376 578 LINE",
"538 819 LINE SMOOTH",
"564 860 OFFCURVE",
"595 918 OFFCURVE",
"616 963 QCURVE",
"626 963 LINE",
"626 961 OFFCURVE",
"622 879 OFFCURVE",
"618 778 OFFCURVE",
"618 748 QCURVE SMOOTH",
"618 578 LINE",
"618 578 LINE"
);
},
{
closed = 1;
nodes = (
"1169 578 LINE",
"1007 578 LINE",
"1007 1462 LINE",
"642 1462 LINE",
"34 573 LINE",
"34 283 LINE",
"618 283 LINE",
"618 0 LINE",
"1007 0 LINE",
"1007 283 LINE",
"1169 283 LINE",
"1169 283 LINE"
);
}
);
width = 1200;
},
{
layerId = "A36153DC-C9CC-437F-8D19-86D84E7E38EA";
paths = (
{
closed = 1;
nodes = (
"276 543 LINE",
"520 913 LINE SMOOTH",
"549 960 OFFCURVE",
"594 1054 OFFCURVE",
"612 1096 QCURVE",
"621 1096 LINE",
"620 1086 OFFCURVE",
"617 1041 OFFCURVE",
"614 981 OFFCURVE",
"611 915 OFFCURVE",
"609 853 OFFCURVE",
"608 804 OFFCURVE",
"608 791 QCURVE SMOOTH",
"608 543 LINE",
"608 543 LINE"
);
},
{
closed = 1;
nodes = (
"1085 543 LINE",
"909 543 LINE",
"909 1462 LINE",
"625 1462 LINE",
"4 518 LINE",
"4 303 LINE",
"608 303 LINE",
"608 0 LINE",
"909 0 LINE",
"909 303 LINE",
"1085 303 LINE",
"1085 303 LINE"
);
}
);
width = 1128;
},
{
layerId = "607A0539-44D7-4182-901A-4BFA5CCC01F8";
paths = (
{
closed = 1;
nodes = (
"201 494 LINE",
"612 1102 LINE SMOOTH",
"623 1118 OFFCURVE",
"649 1164 OFFCURVE",
"674 1213 OFFCURVE",
"695 1262 OFFCURVE",
"702 1282 QCURVE",
"711 1282 LINE",
"710 1248 OFFCURVE",
"705 1146 OFFCURVE",
"701 1029 OFFCURVE",
"698 906 OFFCURVE",
"698 850 QCURVE SMOOTH",
"698 494 LINE",
"698 494 LINE"
);
},
{
closed = 1;
nodes = (
"1087 494 LINE",
"874 494 LINE",
"874 1470 LINE",
"686 1470 LINE",
"23 487 LINE",
"23 328 LINE",
"698 328 LINE",
"698 0 LINE",
"874 0 LINE",
"874 328 LINE",
"1087 328 LINE",
"1087 328 LINE"
);
}
);
width = 1128;
},
{
layerId = "DF847F4E-D23C-40FA-8597-1D02BA148938";
paths = (
{
closed = 1;
nodes = (
"170 471 LINE",
"672 1165 LINE SMOOTH",
"704 1212 OFFCURVE",
"754 1294 OFFCURVE",
"782 1341 QCURVE",
"786 1341 LINE",
"784 1270 OFFCURVE",
"782 1133 OFFCURVE",
"782 1014 QCURVE SMOOTH",
"782 471 LINE",
"782 471 LINE"
);
},
{
closed = 1;
nodes = (
"1139 471 LINE",
"895 471 LINE",
"895 1470 LINE",
"774 1470 LINE",
"47 459 LINE",
"47 365 LINE",
"782 365 LINE",
"782 0 LINE",
"895 0 LINE",
"895 365 LINE",
"1139 365 LINE",
"1139 365 LINE"
);
}
);
width = 1169;
},
{
layerId = "3BE6379C-89A1-45B5-97C8-F079248A4F49";
paths = (
{
closed = 1;
nodes = (
"123 449 LINE",
"686 1212 LINE SMOOTH",
"733 1276 OFFCURVE",
"782 1350 OFFCURVE",
"817 1405 QCURVE",
"821 1405 LINE",
"819 1352 OFFCURVE",
"819 1311 QCURVE SMOOTH",
"819 449 LINE",
"819 449 LINE"
);
},
{
closed = 1;
nodes = (
"1147 449 LINE",
"872 449 LINE",
"872 1470 LINE",
"815 1470 LINE",
"51 434 LINE",
"51 397 LINE",
"819 397 LINE",
"819 0 LINE",
"872 0 LINE",
"872 397 LINE",
"1147 397 LINE",
"1147 397 LINE"
);
}
);
width = 1167;
}
);
note = four;
unicode = 0034;
},
{
glyphname = five;
lastChange = "2020-02-04 08:34:44 +0000";
layers = (
{
layerId = "372009DC-CA12-41C8-98C7-C44FC6D5F55D";
paths = (
{
closed = 1;
nodes = (
"592 958 OFFCURVE",
"524 946 OFFCURVE",
"491 940 QCURVE",
"510 1133 LINE",
"1007 1133 LINE",
"1007 1462 LINE",
"174 1462 LINE",
"119 690 LINE",
"264 618 LINE",
"303 631 OFFCURVE",
"409 653 OFFCURVE",
"465 653 QCURVE SMOOTH",
"586 653 OFFCURVE",
"706 557 OFFCURVE",
"706 475 QCURVE SMOOTH",
"706 385 OFFCURVE",
"588 291 OFFCURVE",
"479 291 QCURVE SMOOTH",
"389 291 OFFCURVE",
"172 348 OFFCURVE",
"94 383 QCURVE",
"94 59 LINE",
"258 -20 OFFCURVE",
"512 -20 QCURVE SMOOTH",
"811 -20 OFFCURVE",
"1106 242 OFFCURVE",
"1106 487 QCURVE SMOOTH",
"1106 639 OFFCURVE",
"987 848 OFFCURVE",
"786 958 OFFCURVE",
"663 958 QCURVE",
"663 958 LINE"
);
}
);
width = 1200;
},
{
layerId = "A36153DC-C9CC-437F-8D19-86D84E7E38EA";
paths = (
{
closed = 1;
nodes = (
"531 934 OFFCURVE",
"446 920 OFFCURVE",
"414 913 QCURVE",
"438 1200 LINE",
"942 1200 LINE",
"942 1462 LINE",
"170 1462 LINE",
"115 717 LINE",
"238 651 LINE",
"257 657 OFFCURVE",
"309 668 OFFCURVE",
"366 678 OFFCURVE",
"425 684 OFFCURVE",
"451 684 QCURVE SMOOTH",
"594 684 OFFCURVE",
"731 571 OFFCURVE",
"731 463 QCURVE SMOOTH",
"731 342 OFFCURVE",
"591 231 OFFCURVE",
"457 231 QCURVE SMOOTH",
"412 231 OFFCURVE",
"312 246 OFFCURVE",
"213 271 OFFCURVE",
"121 306 OFFCURVE",
"86 326 QCURVE",
"86 59 LINE",
"122 39 OFFCURVE",
"211 9 OFFCURVE",
"310 -10 OFFCURVE",
"418 -20 OFFCURVE",
"473 -20 QCURVE SMOOTH",
"611 -20 OFFCURVE",
"824 50 OFFCURVE",
"968 181 OFFCURVE",
"1042 370 OFFCURVE",
"1042 489 QCURVE SMOOTH",
"1042 597 OFFCURVE",
"974 764 OFFCURVE",
"854 876 OFFCURVE",
"692 934 OFFCURVE",
"598 934 QCURVE",
"598 934 LINE"
);
}
);
width = 1128;
},
{
layerId = "607A0539-44D7-4182-901A-4BFA5CCC01F8";
paths = (
{
closed = 1;
nodes = (
"473 897 OFFCURVE",
"368 883 OFFCURVE",
"336 877 QCURVE",
"375 1296 LINE",
"907 1296 LINE",
"907 1462 LINE",
"217 1462 LINE",
"162 774 LINE",
"252 717 LINE",
"273 721 OFFCURVE",
"330 730 OFFCURVE",
"393 738 OFFCURVE",
"456 743 OFFCURVE",
"483 743 QCURVE SMOOTH",
"651 743 OFFCURVE",
"827 592 OFFCURVE",
"827 449 QCURVE SMOOTH",
"827 368 OFFCURVE",
"781 250 OFFCURVE",
"695 172 OFFCURVE",
"571 135 OFFCURVE",
"492 135 QCURVE SMOOTH",
"450 135 OFFCURVE",
"351 148 OFFCURVE",
"253 172 OFFCURVE",
"164 208 OFFCURVE",
"131 231 QCURVE",
"131 59 LINE",
"164 39 OFFCURVE",
"246 9 OFFCURVE",
"337 -10 OFFCURVE",
"436 -20 OFFCURVE",
"487 -20 QCURVE SMOOTH",
"615 -20 OFFCURVE",
"812 47 OFFCURVE",
"946 173 OFFCURVE",
"1014 355 OFFCURVE",
"1014 469 QCURVE SMOOTH",
"1014 574 OFFCURVE",
"942 734 OFFCURVE",
"815 842 OFFCURVE",
"644 897 OFFCURVE",
"545 897 QCURVE",
"545 897 LINE"
);
}
);
width = 1128;
},
{
layerId = "DF847F4E-D23C-40FA-8597-1D02BA148938";
paths = (
{
closed = 1;
nodes = (
"473 885 OFFCURVE",
"342 860 OFFCURVE",
"299 852 QCURVE",
"340 1356 LINE",
"950 1356 LINE",
"950 1462 LINE",
"241 1462 LINE",
"182 788 LINE",
"245 745 LINE",
"307 762 OFFCURVE",
"454 782 OFFCURVE",
"532 782 QCURVE SMOOTH",
"731 782 OFFCURVE",
"925 606 OFFCURVE",
"925 446 QCURVE SMOOTH",
"925 268 OFFCURVE",
"700 82 OFFCURVE",
"514 82 QCURVE SMOOTH",
"409 82 OFFCURVE",
"211 135 OFFCURVE",
"139 178 QCURVE",
"139 61 LINE",
"207 25 OFFCURVE",
"397 -20 OFFCURVE",
"512 -20 QCURVE SMOOTH",
"757 -20 OFFCURVE",
"1044 233 OFFCURVE",
"1044 455 QCURVE SMOOTH",
"1044 659 OFFCURVE",
"784 885 OFFCURVE",
"561 885 QCURVE",
"561 885 LINE"
);
}
);
width = 1169;
},
{
layerId = "3BE6379C-89A1-45B5-97C8-F079248A4F49";
paths = (
{
closed = 1;
nodes = (
"456 872 OFFCURVE",
"309 844 OFFCURVE",
"257 831 QCURVE",
"309 1411 LINE",
"946 1411 LINE",
"946 1462 LINE",
"262 1462 LINE",
"200 805 LINE",
"239 774 LINE",
"315 795 OFFCURVE",
"466 821 OFFCURVE",
"561 821 QCURVE SMOOTH",
"765 821 OFFCURVE",
"978 618 OFFCURVE",
"978 444 QCURVE SMOOTH",
"978 250 OFFCURVE",
"726 31 OFFCURVE",
"518 31 QCURVE SMOOTH",
"405 31 OFFCURVE",
"221 86 OFFCURVE",
"151 127 QCURVE",
"151 66 LINE",
"217 29 OFFCURVE",
"401 -20 OFFCURVE",
"518 -20 QCURVE SMOOTH",
"671 -20 OFFCURVE",
"905 92 OFFCURVE",
"1034 299 OFFCURVE",
"1034 444 QCURVE SMOOTH",
"1034 651 OFFCURVE",
"780 872 OFFCURVE",
"561 872 QCURVE",
"561 872 LINE"
);
}
);
width = 1167;
}
);
note = five;
unicode = 0035;
},
{
glyphname = six;
lastChange = "2020-02-04 08:34:44 +0000";
layers = (
{
layerId = "372009DC-CA12-41C8-98C7-C44FC6D5F55D";
paths = (
{
closed = 1;
nodes = (
"69 399 OFFCURVE",
"214 117 OFFCURVE",
"462 -20 OFFCURVE",
"620 -20 QCURVE SMOOTH",
"860 -20 OFFCURVE",
"1136 254 OFFCURVE",
"1136 500 QCURVE SMOOTH",
"1136 727 OFFCURVE",
"919 975 OFFCURVE",
"726 975 QCURVE SMOOTH",
"610 975 OFFCURVE",
"477 877 OFFCURVE",
"438 805 QCURVE",
"425 805 LINE",
"431 922 OFFCURVE",
"507 1087 OFFCURVE",
"679 1176 OFFCURVE",
"827 1176 QCURVE SMOOTH",
"900 1176 OFFCURVE",
"1003 1165 OFFCURVE",
"1044 1157 QCURVE",
"1044 1466 LINE",
"1003 1473 OFFCURVE",
"878 1483 OFFCURVE",
"835 1483 QCURVE SMOOTH",
"640 1483 OFFCURVE",
"372 1384 OFFCURVE",
"200 1214 OFFCURVE",
"106 993 OFFCURVE",
"69 743 OFFCURVE",
"69 618 QCURVE",
"69 618 LINE"
);
},
{
closed = 1;
nodes = (
"561 293 OFFCURVE",
"493 358 OFFCURVE",
"462 459 OFFCURVE",
"462 512 QCURVE SMOOTH",
"462 569 OFFCURVE",
"542 670 OFFCURVE",
"616 670 QCURVE SMOOTH",
"687 670 OFFCURVE",
"753 573 OFFCURVE",
"753 492 QCURVE SMOOTH",
"753 389 OFFCURVE",
"675 293 OFFCURVE",
"612 293 QCURVE",
"612 293 LINE"
);
}
);
width = 1200;
},
{
layerId = "A36153DC-C9CC-437F-8D19-86D84E7E38EA";
paths = (
{
closed = 1;
nodes = (
"76 456 OFFCURVE",
"155 215 OFFCURVE",
"294 57 OFFCURVE",
"482 -20 OFFCURVE",
"590 -20 QCURVE SMOOTH",
"700 -20 OFFCURVE",
"876 49 OFFCURVE",
"1000 180 OFFCURVE",
"1067 368 OFFCURVE",
"1067 487 QCURVE SMOOTH",
"1067 598 OFFCURVE",
"1011 770 OFFCURVE",
"906 888 OFFCURVE",
"754 950 OFFCURVE",
"659 950 QCURVE SMOOTH",
"600 950 OFFCURVE",
"505 924 OFFCURVE",
"429 879 OFFCURVE",
"372 816 OFFCURVE",
"352 780 QCURVE",
"340 780 LINE",
"345 882 OFFCURVE",
"388 1050 OFFCURVE",
"490 1170 OFFCURVE",
"664 1237 OFFCURVE",
"799 1237 QCURVE SMOOTH",
"842 1237 OFFCURVE",
"927 1226 OFFCURVE",
"965 1217 QCURVE",
"965 1464 LINE",
"946 1468 OFFCURVE",
"898 1474 OFFCURVE",
"847 1477 OFFCURVE",
"797 1479 OFFCURVE",
"776 1479 QCURVE SMOOTH",
"631 1479 OFFCURVE",
"414 1410 OFFCURVE",
"259 1289 OFFCURVE",
"158 1125 OFFCURVE",
"99 934 OFFCURVE",
"76 726 OFFCURVE",
"76 621 QCURVE",
"76 621 LINE"
);
},
{
closed = 1;
nodes = (
"534 227 OFFCURVE",
"459 277 OFFCURVE",
"408 358 OFFCURVE",
"383 459 OFFCURVE",
"383 510 QCURVE SMOOTH",
"383 547 OFFCURVE",
"412 619 OFFCURVE",
"466 677 OFFCURVE",
"542 713 OFFCURVE",
"588 713 QCURVE SMOOTH",
"679 713 OFFCURVE",
"768 590 OFFCURVE",
"768 483 QCURVE SMOOTH",
"768 417 OFFCURVE",
"741 321 OFFCURVE",
"692 258 OFFCURVE",
"625 227 OFFCURVE",
"584 227 QCURVE",
"584 227 LINE"
);
}
);
width = 1128;
},
{
layerId = "607A0539-44D7-4182-901A-4BFA5CCC01F8";
paths = (
{
closed = 1;
nodes = (
"113 460 OFFCURVE",
"187 218 OFFCURVE",
"315 58 OFFCURVE",
"490 -20 OFFCURVE",
"590 -20 QCURVE SMOOTH",
"692 -20 OFFCURVE",
"856 48 OFFCURVE",
"972 175 OFFCURVE",
"1034 357 OFFCURVE",
"1034 471 QCURVE SMOOTH",
"1034 577 OFFCURVE",
"975 742 OFFCURVE",
"867 856 OFFCURVE",
"713 915 OFFCURVE",
"618 915 QCURVE SMOOTH",
"559 915 OFFCURVE",
"464 889 OFFCURVE",
"388 844 OFFCURVE",
"331 781 OFFCURVE",
"311 745 QCURVE",
"299 745 LINE",
"302 825 OFFCURVE",
"322 973 OFFCURVE",
"364 1104 OFFCURVE",
"431 1212 OFFCURVE",
"531 1290 OFFCURVE",
"668 1333 OFFCURVE",
"758 1333 QCURVE SMOOTH",
"801 1333 OFFCURVE",
"889 1321 OFFCURVE",
"924 1309 QCURVE",
"924 1464 LINE",
"907 1469 OFFCURVE",
"864 1476 OFFCURVE",
"817 1481 OFFCURVE",
"771 1483 OFFCURVE",
"752 1483 QCURVE SMOOTH",
"619 1483 OFFCURVE",
"421 1414 OFFCURVE",
"279 1293 OFFCURVE",
"187 1129 OFFCURVE",
"134 938 OFFCURVE",
"113 730 OFFCURVE",
"113 625 QCURVE",
"113 625 LINE"
);
},
{
closed = 1;
nodes = (
"515 133 OFFCURVE",
"405 200 OFFCURVE",
"332 306 OFFCURVE",
"295 439 OFFCURVE",
"295 506 QCURVE SMOOTH",
"295 554 OFFCURVE",
"338 650 OFFCURVE",
"416 725 OFFCURVE",
"527 772 OFFCURVE",
"594 772 QCURVE SMOOTH",
"660 772 OFFCURVE",
"759 730 OFFCURVE",
"825 652 OFFCURVE",
"858 541 OFFCURVE",
"858 471 QCURVE SMOOTH",
"858 384 OFFCURVE",
"819 257 OFFCURVE",
"747 174 OFFCURVE",
"648 133 OFFCURVE",
"588 133 QCURVE",
"588 133 LINE"
);
}
);
width = 1128;
},
{
layerId = "DF847F4E-D23C-40FA-8597-1D02BA148938";
paths = (
{
closed = 1;
nodes = (
"126 434 OFFCURVE",
"239 145 OFFCURVE",
"454 -20 OFFCURVE",
"609 -20 QCURVE SMOOTH",
"822 -20 OFFCURVE",
"1062 246 OFFCURVE",
"1062 467 QCURVE SMOOTH",
"1062 672 OFFCURVE",
"833 907 OFFCURVE",
"636 907 QCURVE SMOOTH",
"480 907 OFFCURVE",
"292 780 OFFCURVE",
"249 700 QCURVE",
"241 700 LINE",
"249 1028 OFFCURVE",
"505 1384 OFFCURVE",
"769 1384 QCURVE SMOOTH",
"822 1384 OFFCURVE",
"921 1372 OFFCURVE",
"957 1358 QCURVE",
"957 1462 LINE",
"878 1485 OFFCURVE",
"765 1485 QCURVE SMOOTH",
"540 1485 OFFCURVE",
"259 1272 OFFCURVE",
"126 885 OFFCURVE",
"126 623 QCURVE",
"126 623 LINE"
);
},
{
closed = 1;
nodes = (
"507 80 OFFCURVE",
"370 168 OFFCURVE",
"286 303 OFFCURVE",
"249 453 OFFCURVE",
"249 516 QCURVE SMOOTH",
"249 584 OFFCURVE",
"339 721 OFFCURVE",
"505 811 OFFCURVE",
"618 811 QCURVE SMOOTH",
"781 811 OFFCURVE",
"945 627 OFFCURVE",
"945 467 QCURVE SMOOTH",
"945 279 OFFCURVE",
"765 80 OFFCURVE",
"609 80 QCURVE",
"609 80 LINE"
);
}
);
width = 1169;
},
{
layerId = "3BE6379C-89A1-45B5-97C8-F079248A4F49";
paths = (
{
closed = 1;
nodes = (
"139 504 OFFCURVE",
"190 274 OFFCURVE",
"301 90 OFFCURVE",
"483 -20 OFFCURVE",
"612 -20 QCURVE SMOOTH",
"751 -20 OFFCURVE",
"948 102 OFFCURVE",
"1050 319 OFFCURVE",
"1050 461 QCURVE SMOOTH",
"1050 659 OFFCURVE",
"825 899 OFFCURVE",
"622 899 QCURVE SMOOTH",
"506 899 OFFCURVE",
"332 827 OFFCURVE",
"221 717 OFFCURVE",
"194 659 QCURVE",
"190 659 LINE",
"196 938 OFFCURVE",
"342 1278 OFFCURVE",
"590 1436 OFFCURVE",
"751 1436 QCURVE SMOOTH",
"813 1436 OFFCURVE",
"915 1419 OFFCURVE",
"952 1405 QCURVE",
"952 1460 LINE",
"911 1473 OFFCURVE",
"813 1487 OFFCURVE",
"751 1487 QCURVE SMOOTH",
"577 1487 OFFCURVE",
"299 1315 OFFCURVE",
"139 934 OFFCURVE",
"139 621 QCURVE",
"139 621 LINE"
);
},
{
closed = 1;
nodes = (
"487 31 OFFCURVE",
"327 137 OFFCURVE",
"239 299 OFFCURVE",
"205 467 OFFCURVE",
"205 528 QCURVE SMOOTH",
"205 598 OFFCURVE",
"305 745 OFFCURVE",
"493 848 OFFCURVE",
"622 848 QCURVE SMOOTH",
"811 848 OFFCURVE",
"995 641 OFFCURVE",
"995 461 QCURVE SMOOTH",
"995 262 OFFCURVE",
"798 31 OFFCURVE",
"612 31 QCURVE",
"612 31 LINE"
);
}
);
width = 1167;
}
);
note = six;
unicode = 0036;
},
{
glyphname = seven;
lastChange = "2020-02-04 08:34:44 +0000";
layers = (
{
layerId = "372009DC-CA12-41C8-98C7-C44FC6D5F55D";
paths = (
{
closed = 1;
nodes = (
"618 0 LINE",
"1132 1229 LINE",
"1132 1462 LINE",
"77 1462 LINE",
"77 1135 LINE",
"710 1135 LINE",
"208 0 LINE",
"208 0 LINE"
);
}
);
width = 1200;
},
{
layerId = "A36153DC-C9CC-437F-8D19-86D84E7E38EA";
paths = (
{
closed = 1;
nodes = (
"530 0 LINE",
"1063 1266 LINE",
"1063 1460 LINE",
"55 1460 LINE",
"55 1200 LINE",
"727 1200 LINE",
"207 0 LINE",
"207 0 LINE"
);
}
);
width = 1128;
},
{
layerId = "607A0539-44D7-4182-901A-4BFA5CCC01F8";
paths = (
{
closed = 1;
nodes = (
"475 0 LINE",
"1030 1317 LINE",
"1030 1462 LINE",
"90 1462 LINE",
"90 1296 LINE",
"844 1296 LINE",
"281 0 LINE",
"281 0 LINE"
);
}
);
userData = {
assembly = "NPUSHB[ ]	/* 39 values pushed */\0125 1 0 1 1 76 3 1 2 0 2 134 0 1 0 0 1 87 0 1 1 0 95 0 0 1 0 79 0 0 0 6 0 6 17 17 4 6 24 \012CALL[ ]	/* CallFunction */";
};
width = 1128;
},
{
layerId = "DF847F4E-D23C-40FA-8597-1D02BA148938";
paths = (
{
closed = 1;
nodes = (
"454 0 LINE",
"1056 1376 LINE",
"1056 1462 LINE",
"104 1462 LINE",
"104 1356 LINE",
"929 1356 LINE",
"327 0 LINE",
"327 0 LINE"
);
}
);
width = 1169;
},
{
layerId = "3BE6379C-89A1-45B5-97C8-F079248A4F49";
paths = (
{
closed = 1;
nodes = (
"433 0 LINE",
"1044 1427 LINE",
"1044 1462 LINE",
"118 1462 LINE",
"118 1411 LINE",
"982 1411 LINE",
"374 0 LINE",
"374 0 LINE"
);
}
);
width = 1167;
}
);
note = seven;
unicode = 0037;
},
{
glyphname = eight;
lastChange = "2020-02-04 08:34:44 +0000";
layers = (
{
layerId = "372009DC-CA12-41C8-98C7-C44FC6D5F55D";
paths = (
{
closed = 1;
nodes = (
"458 1483 OFFCURVE",
"237 1403 OFFCURVE",
"110 1245 OFFCURVE",
"110 1128 QCURVE SMOOTH",
"110 1001 OFFCURVE",
"241 825 OFFCURVE",
"333 764 QCURVE",
"219 705 OFFCURVE",
"67 537 OFFCURVE",
"67 385 QCURVE SMOOTH",
"67 205 OFFCURVE",
"321 -20 OFFCURVE",
"599 -20 QCURVE SMOOTH",
"784 -20 OFFCURVE",
"1019 86 OFFCURVE",
"1134 270 OFFCURVE",
"1134 389 QCURVE SMOOTH",
"1134 485 OFFCURVE",
"1044 627 OFFCURVE",
"909 731 OFFCURVE",
"839 770 QCURVE",
"950 823 OFFCURVE",
"1091 995 OFFCURVE",
"1091 1126 QCURVE SMOOTH",
"1091 1307 OFFCURVE",
"821 1483 OFFCURVE",
"604 1483 QCURVE",
"604 1483 LINE"
);
},
{
closed = 1;
nodes = (
"649 1198 OFFCURVE",
"720 1141 OFFCURVE",
"720 1092 QCURVE SMOOTH",
"720 1032 OFFCURVE",
"640 965 OFFCURVE",
"597 940 QCURVE",
"548 967 OFFCURVE",
"481 1044 OFFCURVE",
"481 1092 QCURVE SMOOTH",
"481 1141 OFFCURVE",
"552 1198 OFFCURVE",
"602 1198 QCURVE",
"602 1198 LINE"
);
},
{
closed = 1;
nodes = (
"429 467 OFFCURVE",
"528 561 OFFCURVE",
"595 596 QCURVE",
"622 580 LINE SMOOTH",
"647 565 OFFCURVE",
"718 512 OFFCURVE",
"772 438 OFFCURVE",
"772 393 QCURVE SMOOTH",
"772 334 OFFCURVE",
"685 264 OFFCURVE",
"595 264 QCURVE SMOOTH",
"518 264 OFFCURVE",
"429 340 OFFCURVE",
"429 401 QCURVE",
"429 401 LINE"
);
}
);
width = 1200;
},
{
layerId = "A36153DC-C9CC-437F-8D19-86D84E7E38EA";
paths = (
{
closed = 1;
nodes = (
"476 1481 OFFCURVE",
"314 1437 OFFCURVE",
"190 1348 OFFCURVE",
"117 1217 OFFCURVE",
"117 1130 QCURVE SMOOTH",
"117 1065 OFFCURVE",
"154 957 OFFCURVE",
"217 868 OFFCURVE",
"303 795 OFFCURVE",
"352 764 QCURVE",
"294 736 OFFCURVE",
"192 662 OFFCURVE",
"116 566 OFFCURVE",
"72 446 OFFCURVE",
"72 371 QCURVE SMOOTH",
"72 280 OFFCURVE",
"137 134 OFFCURVE",
"263 34 OFFCURVE",
"447 -20 OFFCURVE",
"565 -20 QCURVE SMOOTH",
"674 -20 OFFCURVE",
"855 36 OFFCURVE",
"985 140 OFFCURVE",
"1057 288 OFFCURVE",
"1057 379 QCURVE SMOOTH",
"1057 452 OFFCURVE",
"1005 570 OFFCURVE",
"919 665 OFFCURVE",
"808 741 OFFCURVE",
"750 772 QCURVE",
"806 800 OFFCURVE",
"902 868 OFFCURVE",
"972 955 OFFCURVE",
"1012 1062 OFFCURVE",
"1012 1128 QCURVE SMOOTH",
"1012 1217 OFFCURVE",
"940 1349 OFFCURVE",
"818 1437 OFFCURVE",
"656 1481 OFFCURVE",
"565 1481 QCURVE",
"565 1481 LINE"
);
},
{
closed = 1;
nodes = (
"358 431 OFFCURVE",
"386 503 OFFCURVE",
"437 564 OFFCURVE",
"509 615 OFFCURVE",
"553 637 QCURVE",
"575 623 LINE SMOOTH",
"610 601 OFFCURVE",
"680 553 OFFCURVE",
"735 496 OFFCURVE",
"770 429 OFFCURVE",
"770 387 QCURVE SMOOTH",
"770 306 OFFCURVE",
"666 207 OFFCURVE",
"561 207 QCURVE SMOOTH",
"511 207 OFFCURVE",
"435 234 OFFCURVE",
"384 282 OFFCURVE",
"358 349 OFFCURVE",
"358 389 QCURVE",
"358 389 LINE"
);
},
{
closed = 1;
nodes = (
"597 1255 OFFCURVE",
"655 1235 OFFCURVE",
"697 1197 OFFCURVE",
"721 1141 OFFCURVE",
"721 1106 QCURVE SMOOTH",
"721 1066 OFFCURVE",
"695 1004 OFFCURVE",
"652 955 OFFCURVE",
"596 917 OFFCURVE",
"565 901 QCURVE",
"533 919 OFFCURVE",
"476 956 OFFCURVE",
"433 1003 OFFCURVE",
"408 1064 OFFCURVE",
"408 1106 QCURVE SMOOTH",
"408 1141 OFFCURVE",
"432 1197 OFFCURVE",
"473 1235 OFFCURVE",
"530 1255 OFFCURVE",
"563 1255 QCURVE",
"563 1255 LINE"
);
}
);
width = 1128;
},
{
layerId = "607A0539-44D7-4182-901A-4BFA5CCC01F8";
paths = (
{
closed = 1;
nodes = (
"484 1485 OFFCURVE",
"335 1441 OFFCURVE",
"221 1353 OFFCURVE",
"154 1222 OFFCURVE",
"154 1135 QCURVE SMOOTH",
"154 1069 OFFCURVE",
"191 960 OFFCURVE",
"254 870 OFFCURVE",
"340 797 OFFCURVE",
"389 766 QCURVE",
"331 738 OFFCURVE",
"227 664 OFFCURVE",
"151 568 OFFCURVE",
"106 448 OFFCURVE",
"106 373 QCURVE SMOOTH",
"106 281 OFFCURVE",
"167 135 OFFCURVE",
"284 34 OFFCURVE",
"455 -20 OFFCURVE",
"565 -20 QCURVE SMOOTH",
"667 -20 OFFCURVE",
"836 36 OFFCURVE",
"957 140 OFFCURVE",
"1024 289 OFFCURVE",
"1024 381 QCURVE SMOOTH",
"1024 454 OFFCURVE",
"971 572 OFFCURVE",
"884 667 OFFCURVE",
"773 743 OFFCURVE",
"715 774 QCURVE",
"771 802 OFFCURVE",
"867 871 OFFCURVE",
"937 958 OFFCURVE",
"977 1066 OFFCURVE",
"977 1133 QCURVE SMOOTH",
"977 1221 OFFCURVE",
"911 1353 OFFCURVE",
"798 1441 OFFCURVE",
"649 1485 OFFCURVE",
"565 1485 QCURVE",
"565 1485 LINE"
);
},
{
closed = 1;
nodes = (
"285 481 OFFCURVE",
"413 636 OFFCURVE",
"539 696 QCURVE",
"569 682 LINE SMOOTH",
"632 651 OFFCURVE",
"734 587 OFFCURVE",
"807 515 OFFCURVE",
"846 431 OFFCURVE",
"846 379 QCURVE SMOOTH",
"846 323 OFFCURVE",
"810 231 OFFCURVE",
"738 166 OFFCURVE",
"631 131 OFFCURVE",
"561 131 QCURVE SMOOTH",
"489 131 OFFCURVE",
"385 166 OFFCURVE",
"317 229 OFFCURVE",
"285 318 OFFCURVE",
"285 371 QCURVE",
"285 371 LINE"
);
},
{
closed = 1;
nodes = (
"673 1333 OFFCURVE",
"799 1227 OFFCURVE",
"799 1126 QCURVE SMOOTH",
"799 1072 OFFCURVE",
"763 988 OFFCURVE",
"700 922 OFFCURVE",
"615 870 OFFCURVE",
"567 848 QCURVE",
"516 872 OFFCURVE",
"429 923 OFFCURVE",
"367 987 OFFCURVE",
"332 1069 OFFCURVE",
"332 1126 QCURVE SMOOTH",
"332 1227 OFFCURVE",
"457 1333 OFFCURVE",
"563 1333 QCURVE",
"563 1333 LINE"
);
}
);
width = 1128;
},
{
layerId = "DF847F4E-D23C-40FA-8597-1D02BA148938";
paths = (
{
closed = 1;
nodes = (
"460 1483 OFFCURVE",
"272 1401 OFFCURVE",
"163 1245 OFFCURVE",
"163 1139 QCURVE SMOOTH",
"163 1044 OFFCURVE",
"243 907 OFFCURVE",
"376 811 OFFCURVE",
"458 772 QCURVE",
"360 733 OFFCURVE",
"204 625 OFFCURVE",
"114 471 OFFCURVE",
"114 365 QCURVE SMOOTH",
"114 188 OFFCURVE",
"366 -20 OFFCURVE",
"581 -20 QCURVE SMOOTH",
"716 -20 OFFCURVE",
"927 74 OFFCURVE",
"1048 250 OFFCURVE",
"1048 375 QCURVE SMOOTH",
"1048 528 OFFCURVE",
"851 713 OFFCURVE",
"692 778 QCURVE",
"827 838 OFFCURVE",
"1001 1008 OFFCURVE",
"1001 1141 QCURVE SMOOTH",
"1001 1305 OFFCURVE",
"769 1483 OFFCURVE",
"581 1483 QCURVE",
"581 1483 LINE"
);
},
{
closed = 1;
nodes = (
"720 1384 OFFCURVE",
"884 1257 OFFCURVE",
"884 1139 QCURVE SMOOTH",
"884 1022 OFFCURVE",
"726 883 OFFCURVE",
"589 825 QCURVE",
"452 877 OFFCURVE",
"278 1014 OFFCURVE",
"278 1135 QCURVE SMOOTH",
"278 1253 OFFCURVE",
"450 1384 OFFCURVE",
"581 1384 QCURVE",
"581 1384 LINE"
);
},
{
closed = 1;
nodes = (
"231 504 OFFCURVE",
"413 666 OFFCURVE",
"565 721 QCURVE",
"610 705 LINE SMOOTH",
"763 649 OFFCURVE",
"933 492 OFFCURVE",
"933 373 QCURVE SMOOTH",
"933 233 OFFCURVE",
"741 76 OFFCURVE",
"577 76 QCURVE SMOOTH",
"413 76 OFFCURVE",
"231 236 OFFCURVE",
"231 365 QCURVE",
"231 365 LINE"
);
}
);
width = 1169;
},
{
layerId = "3BE6379C-89A1-45B5-97C8-F079248A4F49";
paths = (
{
closed = 1;
nodes = (
"463 1483 OFFCURVE",
"281 1399 OFFCURVE",
"178 1247 OFFCURVE",
"178 1145 QCURVE SMOOTH",
"178 1044 OFFCURVE",
"270 907 OFFCURVE",
"422 815 OFFCURVE",
"514 780 QCURVE",
"340 721 OFFCURVE",
"131 526 OFFCURVE",
"131 358 QCURVE SMOOTH",
"131 246 OFFCURVE",
"244 76 OFFCURVE",
"442 -20 OFFCURVE",
"571 -20 QCURVE SMOOTH",
"700 -20 OFFCURVE",
"907 72 OFFCURVE",
"1030 246 OFFCURVE",
"1030 371 QCURVE SMOOTH",
"1030 528 OFFCURVE",
"823 721 OFFCURVE",
"643 782 QCURVE",
"799 844 OFFCURVE",
"981 1014 OFFCURVE",
"981 1149 QCURVE SMOOTH",
"981 1307 OFFCURVE",
"764 1483 OFFCURVE",
"580 1483 QCURVE",
"580 1483 LINE"
);
},
{
closed = 1;
nodes = (
"741 1432 OFFCURVE",
"926 1290 OFFCURVE",
"926 1149 QCURVE SMOOTH",
"926 1028 OFFCURVE",
"754 877 OFFCURVE",
"586 807 QCURVE",
"426 862 OFFCURVE",
"233 1014 OFFCURVE",
"233 1145 QCURVE SMOOTH",
"233 1282 OFFCURVE",
"430 1432 OFFCURVE",
"580 1432 QCURVE",
"580 1432 LINE"
);
},
{
closed = 1;
nodes = (
"186 467 OFFCURVE",
"291 618 OFFCURVE",
"467 717 OFFCURVE",
"575 754 QCURVE",
"633 733 LINE SMOOTH",
"801 674 OFFCURVE",
"975 504 OFFCURVE",
"975 371 QCURVE SMOOTH",
"975 203 OFFCURVE",
"745 31 OFFCURVE",
"571 31 QCURVE SMOOTH",
"399 31 OFFCURVE",
"186 207 OFFCURVE",
"186 358 QCURVE",
"186 358 LINE"
);
}
);
width = 1167;
}
);
note = eight;
unicode = 0038;
},
{
glyphname = nine;
lastChange = "2020-02-04 08:34:44 +0000";
layers = (
{
layerId = "372009DC-CA12-41C8-98C7-C44FC6D5F55D";
paths = (
{
closed = 1;
nodes = (
"1130 1053 OFFCURVE",
"983 1343 OFFCURVE",
"733 1483 OFFCURVE",
"581 1483 QCURVE SMOOTH",
"339 1483 OFFCURVE",
"63 1208 OFFCURVE",
"63 965 QCURVE SMOOTH",
"63 735 OFFCURVE",
"282 487 OFFCURVE",
"466 487 QCURVE SMOOTH",
"591 487 OFFCURVE",
"720 584 OFFCURVE",
"761 657 QCURVE",
"774 657 LINE",
"768 549 OFFCURVE",
"694 381 OFFCURVE",
"512 287 OFFCURVE",
"348 287 QCURVE SMOOTH",
"290 287 OFFCURVE",
"204 295 OFFCURVE",
"161 303 QCURVE",
"161 -10 LINE",
"202 -16 OFFCURVE",
"321 -20 OFFCURVE",
"366 -20 QCURVE SMOOTH",
"638 -20 OFFCURVE",
"974 182 OFFCURVE",
"1130 561 OFFCURVE",
"1130 821 QCURVE",
"1130 821 LINE"
);
},
{
closed = 1;
nodes = (
"643 1167 OFFCURVE",
"706 1102 OFFCURVE",
"737 1004 OFFCURVE",
"737 950 QCURVE SMOOTH",
"737 893 OFFCURVE",
"653 791 OFFCURVE",
"587 791 QCURVE SMOOTH",
"516 791 OFFCURVE",
"446 887 OFFCURVE",
"446 969 QCURVE SMOOTH",
"446 1073 OFFCURVE",
"522 1167 OFFCURVE",
"591 1167 QCURVE",
"591 1167 LINE"
);
}
);
width = 1200;
},
{
layerId = "A36153DC-C9CC-437F-8D19-86D84E7E38EA";
paths = (
{
closed = 1;
nodes = (
"1055 1002 OFFCURVE",
"975 1244 OFFCURVE",
"837 1402 OFFCURVE",
"649 1479 OFFCURVE",
"541 1479 QCURVE SMOOTH",
"431 1479 OFFCURVE",
"254 1409 OFFCURVE",
"130 1278 OFFCURVE",
"63 1090 OFFCURVE",
"63 971 QCURVE SMOOTH",
"63 860 OFFCURVE",
"119 688 OFFCURVE",
"224 570 OFFCURVE",
"376 508 OFFCURVE",
"471 508 QCURVE SMOOTH",
"530 508 OFFCURVE",
"626 534 OFFCURVE",
"702 580 OFFCURVE",
"758 642 OFFCURVE",
"778 678 QCURVE",
"791 678 LINE",
"786 577 OFFCURVE",
"743 409 OFFCURVE",
"641 288 OFFCURVE",
"467 221 OFFCURVE",
"332 221 QCURVE SMOOTH",
"288 221 OFFCURVE",
"203 232 OFFCURVE",
"166 242 QCURVE",
"166 -6 LINE",
"184 -10 OFFCURVE",
"232 -15 OFFCURVE",
"283 -18 OFFCURVE",
"333 -20 OFFCURVE",
"354 -20 QCURVE SMOOTH",
"500 -20 OFFCURVE",
"717 49 OFFCURVE",
"872 169 OFFCURVE",
"973 334 OFFCURVE",
"1032 524 OFFCURVE",
"1055 733 OFFCURVE",
"1055 838 QCURVE",
"1055 838 LINE"
);
},
{
closed = 1;
nodes = (
"597 1231 OFFCURVE",
"672 1181 OFFCURVE",
"723 1100 OFFCURVE",
"748 999 OFFCURVE",
"748 948 QCURVE SMOOTH",
"748 911 OFFCURVE",
"719 839 OFFCURVE",
"665 781 OFFCURVE",
"589 745 OFFCURVE",
"543 745 QCURVE SMOOTH",
"452 745 OFFCURVE",
"362 869 OFFCURVE",
"362 975 QCURVE SMOOTH",
"362 1041 OFFCURVE",
"389 1138 OFFCURVE",
"438 1201 OFFCURVE",
"506 1231 OFFCURVE",
"547 1231 QCURVE",
"547 1231 LINE"
);
}
);
width = 1128;
},
{
layerId = "607A0539-44D7-4182-901A-4BFA5CCC01F8";
paths = (
{
closed = 1;
nodes = (
"1028 1002 OFFCURVE",
"954 1245 OFFCURVE",
"826 1405 OFFCURVE",
"652 1483 OFFCURVE",
"551 1483 QCURVE SMOOTH",
"449 1483 OFFCURVE",
"284 1415 OFFCURVE",
"169 1288 OFFCURVE",
"106 1105 OFFCURVE",
"106 991 QCURVE SMOOTH",
"106 885 OFFCURVE",
"165 720 OFFCURVE",
"273 606 OFFCURVE",
"427 547 OFFCURVE",
"522 547 QCURVE SMOOTH",
"581 547 OFFCURVE",
"677 573 OFFCURVE",
"753 619 OFFCURVE",
"809 681 OFFCURVE",
"829 717 QCURVE",
"842 717 LINE",
"837 598 OFFCURVE",
"794 384 OFFCURVE",
"692 223 OFFCURVE",
"518 129 OFFCURVE",
"383 129 QCURVE SMOOTH",
"340 129 OFFCURVE",
"252 141 OFFCURVE",
"217 154 QCURVE",
"217 -2 LINE",
"234 -7 OFFCURVE",
"278 -13 OFFCURVE",
"324 -18 OFFCURVE",
"370 -20 OFFCURVE",
"389 -20 QCURVE SMOOTH",
"522 -20 OFFCURVE",
"720 49 OFFCURVE",
"862 169 OFFCURVE",
"954 334 OFFCURVE",
"1007 524 OFFCURVE",
"1028 733 OFFCURVE",
"1028 838 QCURVE",
"1028 838 LINE"
);
},
{
closed = 1;
nodes = (
"626 1329 OFFCURVE",
"736 1263 OFFCURVE",
"809 1156 OFFCURVE",
"846 1023 OFFCURVE",
"846 956 QCURVE SMOOTH",
"846 908 OFFCURVE",
"803 812 OFFCURVE",
"725 737 OFFCURVE",
"615 690 OFFCURVE",
"547 690 QCURVE SMOOTH",
"481 690 OFFCURVE",
"382 732 OFFCURVE",
"316 810 OFFCURVE",
"283 921 OFFCURVE",
"283 991 QCURVE SMOOTH",
"283 1078 OFFCURVE",
"322 1205 OFFCURVE",
"394 1289 OFFCURVE",
"493 1329 OFFCURVE",
"553 1329 QCURVE",
"553 1329 LINE"
);
}
);
width = 1128;
},
{
layerId = "DF847F4E-D23C-40FA-8597-1D02BA148938";
paths = (
{
closed = 1;
nodes = (
"1044 1030 OFFCURVE",
"933 1319 OFFCURVE",
"718 1483 OFFCURVE",
"561 1483 QCURVE SMOOTH",
"419 1483 OFFCURVE",
"217 1362 OFFCURVE",
"106 1143 OFFCURVE",
"106 997 QCURVE SMOOTH",
"106 791 OFFCURVE",
"333 555 OFFCURVE",
"528 555 QCURVE SMOOTH",
"684 555 OFFCURVE",
"876 682 OFFCURVE",
"919 762 QCURVE",
"927 762 LINE",
"917 434 OFFCURVE",
"663 76 OFFCURVE",
"401 76 QCURVE SMOOTH",
"282 76 OFFCURVE",
"200 106 QCURVE",
"200 2 LINE",
"237 -10 OFFCURVE",
"352 -23 OFFCURVE",
"401 -23 QCURVE SMOOTH",
"626 -23 OFFCURVE",
"911 190 OFFCURVE",
"1044 580 OFFCURVE",
"1044 842 QCURVE",
"1044 842 LINE"
);
},
{
closed = 1;
nodes = (
"663 1380 OFFCURVE",
"800 1294 OFFCURVE",
"884 1159 OFFCURVE",
"921 1010 OFFCURVE",
"921 946 QCURVE SMOOTH",
"921 879 OFFCURVE",
"831 741 OFFCURVE",
"663 651 OFFCURVE",
"550 651 QCURVE SMOOTH",
"387 651 OFFCURVE",
"223 836 OFFCURVE",
"223 999 QCURVE SMOOTH",
"223 1184 OFFCURVE",
"405 1380 OFFCURVE",
"561 1380 QCURVE",
"561 1380 LINE"
);
}
);
width = 1169;
},
{
layerId = "3BE6379C-89A1-45B5-97C8-F079248A4F49";
paths = (
{
closed = 1;
nodes = (
"1023 965 OFFCURVE",
"974 1192 OFFCURVE",
"864 1374 OFFCURVE",
"683 1483 OFFCURVE",
"550 1483 QCURVE SMOOTH",
"411 1483 OFFCURVE",
"214 1362 OFFCURVE",
"112 1147 OFFCURVE",
"112 1006 QCURVE SMOOTH",
"112 805 OFFCURVE",
"333 563 OFFCURVE",
"536 563 QCURVE SMOOTH",
"655 563 OFFCURVE",
"829 637 OFFCURVE",
"941 750 OFFCURVE",
"968 807 QCURVE",
"972 807 LINE",
"966 530 OFFCURVE",
"819 186 OFFCURVE",
"571 27 OFFCURVE",
"411 27 QCURVE SMOOTH",
"348 27 OFFCURVE",
"227 45 OFFCURVE",
"190 59 QCURVE",
"190 2 LINE",
"231 -10 OFFCURVE",
"352 -25 OFFCURVE",
"411 -25 QCURVE SMOOTH",
"585 -25 OFFCURVE",
"864 150 OFFCURVE",
"1023 532 OFFCURVE",
"1023 846 QCURVE",
"1023 846 LINE"
);
},
{
closed = 1;
nodes = (
"675 1432 OFFCURVE",
"835 1325 OFFCURVE",
"923 1165 OFFCURVE",
"958 997 OFFCURVE",
"958 938 QCURVE SMOOTH",
"958 868 OFFCURVE",
"855 719 OFFCURVE",
"669 614 OFFCURVE",
"540 614 QCURVE SMOOTH",
"352 614 OFFCURVE",
"167 823 OFFCURVE",
"167 1006 QCURVE SMOOTH",
"167 1204 OFFCURVE",
"364 1432 OFFCURVE",
"550 1432 QCURVE",
"550 1432 LINE"
);
}
);
width = 1167;
}
);
note = nine;
unicode = 0039;
},
{
glyphname = colon;
lastChange = "2020-02-04 08:34:44 +0000";
layers = (
{
layerId = "372009DC-CA12-41C8-98C7-C44FC6D5F55D";
paths = (
{
closed = 1;
nodes = (
"86 854 OFFCURVE",
"211 764 OFFCURVE",
"299 764 QCURVE SMOOTH",
"381 764 OFFCURVE",
"504 854 OFFCURVE",
"504 956 QCURVE SMOOTH",
"504 1061 OFFCURVE",
"381 1147 OFFCURVE",
"299 1147 QCURVE SMOOTH",
"211 1147 OFFCURVE",
"86 1061 OFFCURVE",
"86 956 QCURVE",
"86 956 LINE"
);
},
{
closed = 1;
nodes = (
"86 66 OFFCURVE",
"211 -25 OFFCURVE",
"299 -25 QCURVE SMOOTH",
"381 -25 OFFCURVE",
"504 66 OFFCURVE",
"504 166 QCURVE SMOOTH",
"504 272 OFFCURVE",
"381 358 OFFCURVE",
"299 358 QCURVE SMOOTH",
"211 358 OFFCURVE",
"86 272 OFFCURVE",
"86 166 QCURVE",
"86 166 LINE"
);
}
);
width = 591;
},
{
layerId = "A36153DC-C9CC-437F-8D19-86D84E7E38EA";
paths = (
{
closed = 1;
nodes = (
"156 98 OFFCURVE",
"183 34 OFFCURVE",
"231 -8 OFFCURVE",
"295 -27 OFFCURVE",
"332 -27 QCURVE SMOOTH",
"367 -27 OFFCURVE",
"430 -8 OFFCURVE",
"478 34 OFFCURVE",
"506 98 OFFCURVE",
"506 143 QCURVE SMOOTH",
"506 190 OFFCURVE",
"478 255 OFFCURVE",
"430 295 OFFCURVE",
"367 313 OFFCURVE",
"332 313 QCURVE SMOOTH",
"295 313 OFFCURVE",
"231 295 OFFCURVE",
"183 255 OFFCURVE",
"156 190 OFFCURVE",
"156 143 QCURVE",
"156 143 LINE"
);
},
{
closed = 1;
nodes = (
"156 924 OFFCURVE",
"183 859 OFFCURVE",
"231 818 OFFCURVE",
"295 799 OFFCURVE",
"332 799 QCURVE SMOOTH",
"367 799 OFFCURVE",
"430 818 OFFCURVE",
"478 859 OFFCURVE",
"506 924 OFFCURVE",
"506 969 QCURVE SMOOTH",
"506 1016 OFFCURVE",
"478 1081 OFFCURVE",
"430 1121 OFFCURVE",
"367 1139 OFFCURVE",
"332 1139 QCURVE SMOOTH",
"295 1139 OFFCURVE",
"231 1121 OFFCURVE",
"183 1081 OFFCURVE",
"156 1016 OFFCURVE",
"156 969 QCURVE",
"156 969 LINE"
);
}
);
width = 663;
},
{
layerId = "607A0539-44D7-4182-901A-4BFA5CCC01F8";
paths = (
{
closed = 1;
nodes = (
"147 74 OFFCURVE",
"167 21 OFFCURVE",
"201 -13 OFFCURVE",
"247 -29 OFFCURVE",
"274 -29 QCURVE SMOOTH",
"300 -29 OFFCURVE",
"347 -13 OFFCURVE",
"381 21 OFFCURVE",
"401 74 OFFCURVE",
"401 111 QCURVE SMOOTH",
"401 149 OFFCURVE",
"381 202 OFFCURVE",
"347 235 OFFCURVE",
"300 250 OFFCURVE",
"274 250 QCURVE SMOOTH",
"247 250 OFFCURVE",
"201 235 OFFCURVE",
"167 202 OFFCURVE",
"147 149 OFFCURVE",
"147 111 QCURVE",
"147 111 LINE"
);
},
{
closed = 1;
nodes = (
"147 950 OFFCURVE",
"167 898 OFFCURVE",
"201 864 OFFCURVE",
"247 848 OFFCURVE",
"274 848 QCURVE SMOOTH",
"300 848 OFFCURVE",
"347 864 OFFCURVE",
"381 898 OFFCURVE",
"401 950 OFFCURVE",
"401 987 QCURVE SMOOTH",
"401 1026 OFFCURVE",
"381 1079 OFFCURVE",
"347 1112 OFFCURVE",
"300 1126 OFFCURVE",
"274 1126 QCURVE SMOOTH",
"247 1126 OFFCURVE",
"201 1112 OFFCURVE",
"167 1079 OFFCURVE",
"147 1026 OFFCURVE",
"147 987 QCURVE",
"147 987 LINE"
);
}
);
width = 549;
},
{
layerId = "DF847F4E-D23C-40FA-8597-1D02BA148938";
paths = (
{
closed = 1;
nodes = (
"159 905 OFFCURVE",
"249 905 QCURVE SMOOTH",
"339 905 OFFCURVE",
"339 1008 QCURVE SMOOTH",
"339 1108 OFFCURVE",
"249 1108 QCURVE SMOOTH",
"159 1108 OFFCURVE",
"159 1008 QCURVE",
"159 1008 LINE"
);
},
{
closed = 1;
nodes = (
"159 -23 OFFCURVE",
"249 -23 QCURVE SMOOTH",
"339 -23 OFFCURVE",
"339 78 QCURVE SMOOTH",
"339 178 OFFCURVE",
"249 178 QCURVE SMOOTH",
"159 178 OFFCURVE",
"159 78 QCURVE",
"159 78 LINE"
);
}
);
width = 499;
},
{
layerId = "3BE6379C-89A1-45B5-97C8-F079248A4F49";
paths = (
{
closed = 1;
nodes = (
"174 999 OFFCURVE",
"194 963 OFFCURVE",
"225 963 QCURVE SMOOTH",
"262 963 OFFCURVE",
"280 999 OFFCURVE",
"280 1026 QCURVE SMOOTH",
"280 1051 OFFCURVE",
"262 1090 OFFCURVE",
"225 1090 QCURVE SMOOTH",
"194 1090 OFFCURVE",
"174 1051 OFFCURVE",
"174 1026 QCURVE",
"174 1026 LINE"
);
},
{
closed = 1;
nodes = (
"174 20 OFFCURVE",
"194 -16 OFFCURVE",
"225 -16 QCURVE SMOOTH",
"262 -16 OFFCURVE",
"280 20 OFFCURVE",
"280 47 QCURVE SMOOTH",
"280 72 OFFCURVE",
"262 111 OFFCURVE",
"225 111 QCURVE SMOOTH",
"194 111 OFFCURVE",
"174 72 OFFCURVE",
"174 47 QCURVE",
"174 47 LINE"
);
}
);
width = 450;
}
);
note = colon;
unicode = 003A;
},
{
glyphname = semicolon;
lastChange = "2020-02-04 08:34:44 +0000";
layers = (
{
layerId = "372009DC-CA12-41C8-98C7-C44FC6D5F55D";
paths = (
{
closed = 1;
nodes = (
"92 854 OFFCURVE",
"215 764 OFFCURVE",
"303 764 QCURVE SMOOTH",
"385 764 OFFCURVE",
"510 854 OFFCURVE",
"510 956 QCURVE SMOOTH",
"510 1061 OFFCURVE",
"385 1147 OFFCURVE",
"303 1147 QCURVE SMOOTH",
"215 1147 OFFCURVE",
"92 1061 OFFCURVE",
"92 956 QCURVE",
"92 956 LINE"
);
},
{
closed = 1;
nodes = (
"155 299 LINE",
"147 217 OFFCURVE",
"114 16 OFFCURVE",
"77 -193 OFFCURVE",
"57 -285 QCURVE",
"336 -285 LINE",
"368 -209 OFFCURVE",
"436 -2 OFFCURVE",
"493 203 OFFCURVE",
"512 276 QCURVE",
"497 299 LINE",
"497 299 LINE"
);
}
);
width = 608;
},
{
layerId = "A36153DC-C9CC-437F-8D19-86D84E7E38EA";
paths = (
{
closed = 1;
nodes = (
"203 288 LINE",
"195 232 OFFCURVE",
"173 99 OFFCURVE",
"146 -39 OFFCURVE",
"117 -179 OFFCURVE",
"102 -244 QCURVE",
"322 -244 LINE",
"347 -185 OFFCURVE",
"398 -54 OFFCURVE",
"445 77 OFFCURVE",
"484 206 OFFCURVE",
"498 264 QCURVE",
"483 288 LINE",
"483 288 LINE"
);
},
{
closed = 1;
nodes = (
"156 924 OFFCURVE",
"183 859 OFFCURVE",
"231 818 OFFCURVE",
"295 799 OFFCURVE",
"332 799 QCURVE SMOOTH",
"367 799 OFFCURVE",
"430 818 OFFCURVE",
"478 859 OFFCURVE",
"506 924 OFFCURVE",
"506 969 QCURVE SMOOTH",
"506 1016 OFFCURVE",
"478 1081 OFFCURVE",
"430 1121 OFFCURVE",
"367 1139 OFFCURVE",
"332 1139 QCURVE SMOOTH",
"295 1139 OFFCURVE",
"231 1121 OFFCURVE",
"183 1081 OFFCURVE",
"156 1016 OFFCURVE",
"156 969 QCURVE",
"156 969 LINE"
);
}
);
width = 663;
},
{
layerId = "607A0539-44D7-4182-901A-4BFA5CCC01F8";
paths = (
{
closed = 1;
nodes = (
"164 238 LINE",
"156 185 OFFCURVE",
"134 60 OFFCURVE",
"107 -71 OFFCURVE",
"78 -203 OFFCURVE",
"63 -264 QCURVE",
"201 -264 LINE",
"226 -208 OFFCURVE",
"277 -85 OFFCURVE",
"324 39 OFFCURVE",
"363 161 OFFCURVE",
"377 215 QCURVE",
"362 238 LINE",
"362 238 LINE"
);
},
{
closed = 1;
nodes = (
"147 950 OFFCURVE",
"167 898 OFFCURVE",
"201 864 OFFCURVE",
"247 848 OFFCURVE",
"274 848 QCURVE SMOOTH",
"300 848 OFFCURVE",
"347 864 OFFCURVE",
"381 898 OFFCURVE",
"401 950 OFFCURVE",
"401 987 QCURVE SMOOTH",
"401 1026 OFFCURVE",
"381 1079 OFFCURVE",
"347 1112 OFFCURVE",
"300 1126 OFFCURVE",
"274 1126 QCURVE SMOOTH",
"247 1126 OFFCURVE",
"201 1112 OFFCURVE",
"167 1079 OFFCURVE",
"147 1026 OFFCURVE",
"147 987 QCURVE",
"147 987 LINE"
);
}
);
width = 549;
},
{
layerId = "DF847F4E-D23C-40FA-8597-1D02BA148938";
paths = (
{
closed = 1;
nodes = (
"159 905 OFFCURVE",
"245 905 QCURVE SMOOTH",
"339 905 OFFCURVE",
"339 1008 QCURVE SMOOTH",
"339 1108 OFFCURVE",
"245 1108 QCURVE SMOOTH",
"159 1108 OFFCURVE",
"159 1008 QCURVE",
"159 1008 LINE"
);
},
{
closed = 1;
nodes = (
"180 238 LINE",
"163 125 OFFCURVE",
"106 -131 OFFCURVE",
"69 -264 QCURVE",
"159 -264 LINE",
"204 -156 OFFCURVE",
"290 102 OFFCURVE",
"315 213 QCURVE",
"305 238 LINE",
"305 238 LINE"
);
}
);
width = 499;
},
{
layerId = "3BE6379C-89A1-45B5-97C8-F079248A4F49";
paths = (
{
closed = 1;
nodes = (
"173 999 OFFCURVE",
"194 963 OFFCURVE",
"224 963 QCURVE SMOOTH",
"261 963 OFFCURVE",
"280 999 OFFCURVE",
"280 1026 QCURVE SMOOTH",
"280 1051 OFFCURVE",
"261 1090 OFFCURVE",
"224 1090 QCURVE SMOOTH",
"194 1090 OFFCURVE",
"173 1051 OFFCURVE",
"173 1026 QCURVE",
"173 1026 LINE"
);
},
{
closed = 1;
nodes = (
"192 238 LINE",
"175 121 OFFCURVE",
"122 -115 OFFCURVE",
"77 -264 QCURVE",
"122 -264 LINE",
"165 -158 OFFCURVE",
"233 98 OFFCURVE",
"255 213 QCURVE",
"249 238 LINE",
"249 238 LINE"
);
}
);
width = 450;
}
);
note = semicolon;
unicode = 003B;
},
{
glyphname = less;
lastChange = "2020-02-04 08:34:44 +0000";
layers = (
{
layerId = "372009DC-CA12-41C8-98C7-C44FC6D5F55D";
paths = (
{
closed = 1;
nodes = (
"1104 473 LINE",
"483 725 LINE",
"1104 1008 LINE",
"1104 1305 LINE",
"92 799 LINE",
"92 627 LINE",
"1104 178 LINE",
"1104 178 LINE"
);
}
);
width = 1200;
},
{
layerId = "A36153DC-C9CC-437F-8D19-86D84E7E38EA";
paths = (
{
closed = 1;
nodes = (
"1060 382 LINE",
"417 663 LINE",
"1060 980 LINE",
"1060 1220 LINE",
"108 724 LINE",
"108 581 LINE",
"1060 143 LINE",
"1060 143 LINE"
);
}
);
width = 1168;
},
{
layerId = "607A0539-44D7-4182-901A-4BFA5CCC01F8";
paths = (
{
closed = 1;
nodes = (
"1026 399 LINE",
"291 721 LINE",
"1026 1085 LINE",
"1026 1245 LINE",
"102 764 LINE",
"102 662 LINE",
"1026 238 LINE",
"1026 238 LINE"
);
}
);
userData = {
assembly = "PUSHB[ ]	/* 4 values pushed */\0123 0 1 50 \012CALL[ ]	/* CallFunction */";
};
width = 1128;
},
{
layerId = "DF847F4E-D23C-40FA-8597-1D02BA148938";
paths = (
{
closed = 1;
nodes = (
"1060 367 LINE",
"239 731 LINE",
"1060 1116 LINE",
"1060 1223 LINE",
"108 762 LINE",
"108 692 LINE",
"1060 260 LINE",
"1060 260 LINE"
);
}
);
width = 1169;
},
{
layerId = "3BE6379C-89A1-45B5-97C8-F079248A4F49";
paths = (
{
closed = 1;
nodes = (
"1052 336 LINE",
"186 741 LINE",
"1052 1147 LINE",
"1052 1200 LINE",
"114 760 LINE",
"114 723 LINE",
"1052 283 LINE",
"1052 283 LINE"
);
}
);
width = 1167;
}
);
note = less;
unicode = 003C;
},
{
glyphname = equal;
lastChange = "2020-02-04 08:34:44 +0000";
layers = (
{
layerId = "372009DC-CA12-41C8-98C7-C44FC6D5F55D";
paths = (
{
closed = 1;
nodes = (
"1108 815 LINE",
"1108 1083 LINE",
"92 1083 LINE",
"92 815 LINE",
"92 815 LINE"
);
},
{
closed = 1;
nodes = (
"1108 358 LINE",
"1108 629 LINE",
"92 629 LINE",
"92 358 LINE",
"92 358 LINE"
);
}
);
width = 1200;
},
{
layerId = "A36153DC-C9CC-437F-8D19-86D84E7E38EA";
paths = (
{
closed = 1;
nodes = (
"1060 747 LINE",
"1060 964 LINE",
"108 964 LINE",
"108 747 LINE",
"108 747 LINE"
);
},
{
closed = 1;
nodes = (
"1060 358 LINE",
"1060 577 LINE",
"108 577 LINE",
"108 358 LINE",
"108 358 LINE"
);
}
);
width = 1168;
},
{
layerId = "607A0539-44D7-4182-901A-4BFA5CCC01F8";
paths = (
{
closed = 1;
nodes = (
"1026 852 LINE",
"1026 1001 LINE",
"102 1001 LINE",
"102 852 LINE",
"102 852 LINE"
);
},
{
closed = 1;
nodes = (
"1026 442 LINE",
"1026 592 LINE",
"102 592 LINE",
"102 442 LINE",
"102 442 LINE"
);
}
);
userData = {
assembly = "NPUSHB[ ]	/* 44 values pushed */\0120 0 4 1 1 2 0 1 103 0 2 3 3 2 87 0 2 2 3 95 5 1 3 2 3 79 4 4 0 0 4 7 4 7 6 5 0 3 0 3 17 6 6 23 \012CALL[ ]	/* CallFunction */";
};
width = 1128;
},
{
layerId = "DF847F4E-D23C-40FA-8597-1D02BA148938";
paths = (
{
closed = 1;
nodes = (
"1052 881 LINE",
"1052 977 LINE",
"114 977 LINE",
"114 881 LINE",
"114 881 LINE"
);
},
{
closed = 1;
nodes = (
"1052 467 LINE",
"1052 565 LINE",
"114 565 LINE",
"114 467 LINE",
"114 467 LINE"
);
}
);
width = 1169;
},
{
layerId = "3BE6379C-89A1-45B5-97C8-F079248A4F49";
paths = (
{
closed = 1;
nodes = (
"1054 907 LINE",
"1054 956 LINE",
"112 956 LINE",
"112 907 LINE",
"112 907 LINE"
);
},
{
closed = 1;
nodes = (
"1054 489 LINE",
"1054 539 LINE",
"112 539 LINE",
"112 489 LINE",
"112 489 LINE"
);
}
);
width = 1167;
}
);
note = equal;
unicode = 003D;
},
{
glyphname = greater;
lastChange = "2020-02-04 08:34:44 +0000";
layers = (
{
layerId = "372009DC-CA12-41C8-98C7-C44FC6D5F55D";
paths = (
{
closed = 1;
nodes = (
"92 178 LINE",
"1104 627 LINE",
"1104 799 LINE",
"92 1305 LINE",
"92 1008 LINE",
"713 725 LINE",
"92 473 LINE",
"92 473 LINE"
);
}
);
width = 1200;
},
{
layerId = "A36153DC-C9CC-437F-8D19-86D84E7E38EA";
paths = (
{
closed = 1;
nodes = (
"108 143 LINE",
"1060 581 LINE",
"1060 724 LINE",
"108 1220 LINE",
"108 980 LINE",
"751 663 LINE",
"108 382 LINE",
"108 382 LINE"
);
}
);
width = 1168;
},
{
layerId = "607A0539-44D7-4182-901A-4BFA5CCC01F8";
paths = (
{
closed = 1;
nodes = (
"102 238 LINE",
"1026 662 LINE",
"1026 764 LINE",
"102 1245 LINE",
"102 1085 LINE",
"838 721 LINE",
"102 399 LINE",
"102 399 LINE"
);
}
);
userData = {
assembly = "PUSHB[ ]	/* 4 values pushed */\0126 3 1 50 \012CALL[ ]	/* CallFunction */";
};
width = 1128;
},
{
layerId = "DF847F4E-D23C-40FA-8597-1D02BA148938";
paths = (
{
closed = 1;
nodes = (
"108 260 LINE",
"1060 692 LINE",
"1060 762 LINE",
"108 1223 LINE",
"108 1116 LINE",
"927 729 LINE",
"108 367 LINE",
"108 367 LINE"
);
}
);
width = 1169;
},
{
layerId = "3BE6379C-89A1-45B5-97C8-F079248A4F49";
paths = (
{
closed = 1;
nodes = (
"114 283 LINE",
"1052 723 LINE",
"1052 760 LINE",
"114 1200 LINE",
"114 1147 LINE",
"980 741 LINE",
"114 336 LINE",
"114 336 LINE"
);
}
);
width = 1167;
}
);
note = greater;
unicode = 003E;
},
{
glyphname = question;
lastChange = "2020-02-04 08:34:44 +0000";
layers = (
{
layerId = "372009DC-CA12-41C8-98C7-C44FC6D5F55D";
paths = (
{
closed = 1;
nodes = (
"602 516 LINE",
"602 567 LINE SMOOTH",
"602 614 OFFCURVE",
"670 684 OFFCURVE",
"760 741 QCURVE SMOOTH",
"887 823 OFFCURVE",
"997 999 OFFCURVE",
"997 1118 QCURVE SMOOTH",
"997 1282 OFFCURVE",
"748 1483 OFFCURVE",
"520 1483 QCURVE SMOOTH",
"369 1483 OFFCURVE",
"113 1405 OFFCURVE",
"0 1341 QCURVE",
"139 1069 LINE",
"342 1176 OFFCURVE",
"492 1176 QCURVE SMOOTH",
"553 1176 OFFCURVE",
"629 1126 OFFCURVE",
"629 1085 QCURVE SMOOTH",
"629 1057 OFFCURVE",
"610 1006 OFFCURVE",
"545 942 OFFCURVE",
"477 899 QCURVE SMOOTH",
"369 831 OFFCURVE",
"295 694 OFFCURVE",
"295 602 QCURVE SMOOTH",
"295 516 LINE",
"295 516 LINE"
);
},
{
closed = 1;
nodes = (
"252 66 OFFCURVE",
"375 -25 OFFCURVE",
"463 -25 QCURVE SMOOTH",
"547 -25 OFFCURVE",
"670 66 OFFCURVE",
"670 166 QCURVE SMOOTH",
"670 272 OFFCURVE",
"547 358 OFFCURVE",
"463 358 QCURVE SMOOTH",
"375 358 OFFCURVE",
"252 272 OFFCURVE",
"252 166 QCURVE",
"252 166 LINE"
);
}
);
width = 1034;
},
{
layerId = "A36153DC-C9CC-437F-8D19-86D84E7E38EA";
paths = (
{
closed = 1;
nodes = (
"630 485 LINE",
"630 545 LINE SMOOTH",
"630 577 OFFCURVE",
"641 624 OFFCURVE",
"671 668 OFFCURVE",
"724 717 OFFCURVE",
"766 750 QCURVE SMOOTH",
"821 794 OFFCURVE",
"904 873 OFFCURVE",
"959 958 OFFCURVE",
"987 1057 OFFCURVE",
"987 1120 QCURVE SMOOTH",
"987 1206 OFFCURVE",
"926 1340 OFFCURVE",
"812 1434 OFFCURVE",
"648 1483 OFFCURVE",
"546 1483 QCURVE SMOOTH",
"492 1483 OFFCURVE",
"380 1463 OFFCURVE",
"271 1428 OFFCURVE",
"170 1383 OFFCURVE",
"127 1358 QCURVE",
"229 1137 LINE",
"314 1179 OFFCURVE",
"473 1237 OFFCURVE",
"542 1237 QCURVE SMOOTH",
"621 1237 OFFCURVE",
"698 1163 OFFCURVE",
"698 1106 QCURVE SMOOTH",
"698 1069 OFFCURVE",
"682 1013 OFFCURVE",
"646 962 OFFCURVE",
"588 910 OFFCURVE",
"546 877 QCURVE SMOOTH",
"498 839 OFFCURVE",
"430 768 OFFCURVE",
"387 693 OFFCURVE",
"366 610 OFFCURVE",
"366 559 QCURVE SMOOTH",
"366 485 LINE",
"366 485 LINE"
);
},
{
closed = 1;
nodes = (
"333 98 OFFCURVE",
"360 34 OFFCURVE",
"408 -8 OFFCURVE",
"473 -27 OFFCURVE",
"510 -27 QCURVE SMOOTH",
"545 -27 OFFCURVE",
"608 -8 OFFCURVE",
"656 34 OFFCURVE",
"684 98 OFFCURVE",
"684 143 QCURVE SMOOTH",
"684 190 OFFCURVE",
"656 255 OFFCURVE",
"608 295 OFFCURVE",
"545 313 OFFCURVE",
"510 313 QCURVE SMOOTH",
"473 313 OFFCURVE",
"408 295 OFFCURVE",
"360 255 OFFCURVE",
"333 190 OFFCURVE",
"333 143 QCURVE",
"333 143 LINE"
);
}
);
width = 1114;
},
{
layerId = "607A0539-44D7-4182-901A-4BFA5CCC01F8";
paths = (
{
closed = 1;
nodes = (
"420 414 LINE",
"420 432 LINE SMOOTH",
"420 476 OFFCURVE",
"434 542 OFFCURVE",
"472 605 OFFCURVE",
"538 672 OFFCURVE",
"590 717 QCURVE SMOOTH",
"644 764 OFFCURVE",
"724 848 OFFCURVE",
"778 938 OFFCURVE",
"805 1043 OFFCURVE",
"805 1110 QCURVE SMOOTH",
"805 1197 OFFCURVE",
"749 1336 OFFCURVE",
"645 1432 OFFCURVE",
"496 1483 OFFCURVE",
"403 1483 QCURVE SMOOTH",
"306 1483 OFFCURVE",
"118 1424 OFFCURVE",
"37 1382 QCURVE",
"100 1237 LINE",
"170 1271 OFFCURVE",
"320 1323 OFFCURVE",
"403 1323 QCURVE SMOOTH",
"459 1323 OFFCURVE",
"544 1292 OFFCURVE",
"601 1235 OFFCURVE",
"631 1156 OFFCURVE",
"631 1108 QCURVE SMOOTH",
"631 1055 OFFCURVE",
"610 976 OFFCURVE",
"567 907 OFFCURVE",
"499 840 OFFCURVE",
"451 799 QCURVE SMOOTH",
"401 757 OFFCURVE",
"335 680 OFFCURVE",
"296 600 OFFCURVE",
"281 508 OFFCURVE",
"281 451 QCURVE SMOOTH",
"281 414 LINE",
"281 414 LINE"
);
},
{
closed = 1;
nodes = (
"233 74 OFFCURVE",
"253 21 OFFCURVE",
"287 -13 OFFCURVE",
"333 -29 OFFCURVE",
"360 -29 QCURVE SMOOTH",
"386 -29 OFFCURVE",
"433 -13 OFFCURVE",
"467 21 OFFCURVE",
"487 74 OFFCURVE",
"487 111 QCURVE SMOOTH",
"487 149 OFFCURVE",
"467 202 OFFCURVE",
"433 235 OFFCURVE",
"386 250 OFFCURVE",
"360 250 QCURVE SMOOTH",
"333 250 OFFCURVE",
"287 235 OFFCURVE",
"253 202 OFFCURVE",
"233 149 OFFCURVE",
"233 111 QCURVE",
"233 111 LINE"
);
}
);
width = 872;
},
{
layerId = "DF847F4E-D23C-40FA-8597-1D02BA148938";
paths = (
{
closed = 1;
nodes = (
"389 385 LINE",
"389 414 LINE SMOOTH",
"389 489 OFFCURVE",
"416 594 OFFCURVE",
"483 678 OFFCURVE",
"545 725 QCURVE SMOOTH",
"622 784 OFFCURVE",
"737 895 OFFCURVE",
"801 1032 OFFCURVE",
"801 1130 QCURVE SMOOTH",
"801 1298 OFFCURVE",
"590 1483 OFFCURVE",
"405 1483 QCURVE SMOOTH",
"303 1483 OFFCURVE",
"137 1438 OFFCURVE",
"51 1399 QCURVE",
"94 1300 LINE",
"164 1335 OFFCURVE",
"311 1378 OFFCURVE",
"401 1378 QCURVE SMOOTH",
"532 1378 OFFCURVE",
"688 1253 OFFCURVE",
"688 1126 QCURVE SMOOTH",
"688 1049 OFFCURVE",
"639 942 OFFCURVE",
"540 846 OFFCURVE",
"463 786 QCURVE SMOOTH",
"395 733 OFFCURVE",
"319 635 OFFCURVE",
"291 512 OFFCURVE",
"291 424 QCURVE SMOOTH",
"291 385 LINE",
"291 385 LINE"
);
},
{
closed = 1;
nodes = (
"256 -23 OFFCURVE",
"344 -23 QCURVE SMOOTH",
"434 -23 OFFCURVE",
"434 78 QCURVE SMOOTH",
"434 178 OFFCURVE",
"344 178 QCURVE SMOOTH",
"256 178 OFFCURVE",
"256 78 QCURVE",
"256 78 LINE"
);
}
);
width = 868;
},
{
layerId = "3BE6379C-89A1-45B5-97C8-F079248A4F49";
paths = (
{
closed = 1;
nodes = (
"345 356 LINE",
"345 381 LINE SMOOTH",
"345 520 OFFCURVE",
"415 662 OFFCURVE",
"495 717 QCURVE SMOOTH",
"577 774 OFFCURVE",
"698 887 OFFCURVE",
"765 1032 OFFCURVE",
"765 1135 QCURVE SMOOTH",
"765 1311 OFFCURVE",
"556 1483 OFFCURVE",
"384 1483 QCURVE SMOOTH",
"302 1483 OFFCURVE",
"167 1452 OFFCURVE",
"77 1415 QCURVE",
"97 1362 LINE",
"171 1399 OFFCURVE",
"308 1432 OFFCURVE",
"384 1432 QCURVE SMOOTH",
"528 1432 OFFCURVE",
"710 1288 OFFCURVE",
"710 1135 QCURVE SMOOTH",
"710 1040 OFFCURVE",
"650 913 OFFCURVE",
"542 811 OFFCURVE",
"468 760 QCURVE SMOOTH",
"396 709 OFFCURVE",
"323 612 OFFCURVE",
"294 483 OFFCURVE",
"294 381 QCURVE SMOOTH",
"294 356 LINE",
"294 356 LINE"
);
},
{
closed = 1;
nodes = (
"272 20 OFFCURVE",
"292 -16 OFFCURVE",
"323 -16 QCURVE SMOOTH",
"360 -16 OFFCURVE",
"378 20 OFFCURVE",
"378 47 QCURVE SMOOTH",
"378 72 OFFCURVE",
"360 111 OFFCURVE",
"323 111 QCURVE SMOOTH",
"292 111 OFFCURVE",
"272 72 OFFCURVE",
"272 47 QCURVE",
"272 47 LINE"
);
}
);
width = 845;
}
);
note = question;
unicode = 003F;
},
{
glyphname = at;
lastChange = "2020-02-04 08:34:44 +0000";
layers = (
{
layerId = "372009DC-CA12-41C8-98C7-C44FC6D5F55D";
paths = (
{
closed = 1;
nodes = (
"1754 979 OFFCURVE",
"1558 1305 OFFCURVE",
"1203 1481 OFFCURVE",
"968 1481 QCURVE SMOOTH",
"765 1481 OFFCURVE",
"437 1348 OFFCURVE",
"206 1112 OFFCURVE",
"81 795 OFFCURVE",
"81 610 QCURVE SMOOTH",
"81 373 OFFCURVE",
"278 31 OFFCURVE",
"650 -154 OFFCURVE",
"912 -154 QCURVE SMOOTH",
"1050 -154 OFFCURVE",
"1306 -104 OFFCURVE",
"1412 -59 QCURVE",
"1412 170 LINE",
"1289 125 OFFCURVE",
"1011 74 OFFCURVE",
"898 74 QCURVE SMOOTH",
"626 74 OFFCURVE",
"353 365 OFFCURVE",
"353 606 QCURVE SMOOTH",
"353 795 OFFCURVE",
"493 1090 OFFCURVE",
"769 1257 OFFCURVE",
"972 1257 QCURVE SMOOTH",
"1230 1257 OFFCURVE",
"1490 987 OFFCURVE",
"1490 758 QCURVE SMOOTH",
"1490 676 OFFCURVE",
"1461 535 OFFCURVE",
"1410 451 OFFCURVE",
"1373 451 QCURVE SMOOTH",
"1351 451 OFFCURVE",
"1324 489 OFFCURVE",
"1324 537 QCURVE SMOOTH",
"1324 565 OFFCURVE",
"1326 621 OFFCURVE",
"1326 631 QCURVE SMOOTH",
"1347 1053 LINE",
"1281 1075 OFFCURVE",
"1091 1114 OFFCURVE",
"990 1114 QCURVE SMOOTH",
"822 1114 OFFCURVE",
"595 989 OFFCURVE",
"478 774 OFFCURVE",
"478 639 QCURVE SMOOTH",
"478 457 OFFCURVE",
"667 233 OFFCURVE",
"857 233 QCURVE SMOOTH",
"941 233 OFFCURVE",
"1072 301 OFFCURVE",
"1117 352 QCURVE",
"1132 352 LINE",
"1171 295 OFFCURVE",
"1302 233 OFFCURVE",
"1375 233 QCURVE SMOOTH",
"1467 233 OFFCURVE",
"1609 324 OFFCURVE",
"1705 473 OFFCURVE",
"1754 659 OFFCURVE",
"1754 756 QCURVE",
"1754 756 LINE"
);
},
{
closed = 1;
nodes = (
"759 743 OFFCURVE",
"872 895 OFFCURVE",
"994 895 QCURVE SMOOTH",
"1013 895 OFFCURVE",
"1042 893 OFFCURVE",
"1062 889 QCURVE",
"1052 733 LINE SMOOTH",
"1044 582 OFFCURVE",
"974 451 OFFCURVE",
"892 451 QCURVE SMOOTH",
"833 451 OFFCURVE",
"759 541 OFFCURVE",
"759 641 QCURVE",
"759 641 LINE"
);
}
);
width = 1837;
},
{
layerId = "A36153DC-C9CC-437F-8D19-86D84E7E38EA";
paths = (
{
closed = 1;
nodes = (
"1735 950 OFFCURVE",
"1547 1282 OFFCURVE",
"1201 1462 OFFCURVE",
"981 1462 QCURVE SMOOTH",
"723 1462 OFFCURVE",
"321 1235 OFFCURVE",
"102 831 OFFCURVE",
"102 584 QCURVE SMOOTH",
"102 228 OFFCURVE",
"527 -172 OFFCURVE",
"907 -172 QCURVE SMOOTH",
"1170 -172 OFFCURVE",
"1382 -82 QCURVE",
"1382 111 LINE",
"1267 68 OFFCURVE",
"1011 18 OFFCURVE",
"899 18 QCURVE SMOOTH",
"619 18 OFFCURVE",
"324 313 OFFCURVE",
"324 590 QCURVE SMOOTH",
"324 794 OFFCURVE",
"482 1106 OFFCURVE",
"782 1274 OFFCURVE",
"983 1274 QCURVE SMOOTH",
"1140 1274 OFFCURVE",
"1383 1143 OFFCURVE",
"1516 896 OFFCURVE",
"1516 735 QCURVE SMOOTH",
"1516 584 OFFCURVE",
"1440 397 OFFCURVE",
"1376 397 QCURVE SMOOTH",
"1300 397 OFFCURVE",
"1300 537 QCURVE",
"1323 1026 LINE",
"1256 1050 OFFCURVE",
"1044 1081 OFFCURVE",
"963 1081 QCURVE SMOOTH",
"744 1081 OFFCURVE",
"479 821 OFFCURVE",
"479 612 QCURVE SMOOTH",
"479 428 OFFCURVE",
"683 215 OFFCURVE",
"860 215 QCURVE SMOOTH",
"946 215 OFFCURVE",
"1086 284 OFFCURVE",
"1135 344 QCURVE",
"1151 344 LINE",
"1175 286 OFFCURVE",
"1290 215 OFFCURVE",
"1364 215 QCURVE SMOOTH",
"1475 215 OFFCURVE",
"1643 349 OFFCURVE",
"1735 589 OFFCURVE",
"1735 733 QCURVE",
"1735 733 LINE"
);
},
{
closed = 1;
nodes = (
"711 743 OFFCURVE",
"850 899 OFFCURVE",
"975 899 QCURVE SMOOTH",
"1044 899 OFFCURVE",
"1090 889 QCURVE",
"1077 668 LINE SMOOTH",
"1067 524 OFFCURVE",
"972 397 OFFCURVE",
"883 397 QCURVE SMOOTH",
"711 397 OFFCURVE",
"711 608 QCURVE",
"711 608 LINE"
);
}
);
width = 1837;
},
{
layerId = "607A0539-44D7-4182-901A-4BFA5CCC01F8";
paths = (
{
closed = 1;
nodes = (
"1665 901 OFFCURVE",
"1559 1172 OFFCURVE",
"1368 1361 OFFCURVE",
"1106 1462 OFFCURVE",
"950 1462 QCURVE SMOOTH",
"757 1462 OFFCURVE",
"446 1326 OFFCURVE",
"227 1088 OFFCURVE",
"109 763 OFFCURVE",
"109 575 QCURVE SMOOTH",
"109 396 OFFCURVE",
"211 115 OFFCURVE",
"406 -80 OFFCURVE",
"687 -182 OFFCURVE",
"866 -182 QCURVE SMOOTH",
"996 -182 OFFCURVE",
"1212 -138 OFFCURVE",
"1298 -100 QCURVE",
"1298 41 LINE",
"1255 24 OFFCURVE",
"1155 -7 OFFCURVE",
"1044 -31 OFFCURVE",
"925 -45 OFFCURVE",
"864 -45 QCURVE SMOOTH",
"717 -45 OFFCURVE",
"490 37 OFFCURVE",
"337 197 OFFCURVE",
"258 431 OFFCURVE",
"258 582 QCURVE SMOOTH",
"258 744 OFFCURVE",
"348 1017 OFFCURVE",
"523 1216 OFFCURVE",
"781 1327 OFFCURVE",
"950 1327 QCURVE SMOOTH",
"1073 1327 OFFCURVE",
"1282 1248 OFFCURVE",
"1434 1096 OFFCURVE",
"1520 875 OFFCURVE",
"1520 733 QCURVE SMOOTH",
"1520 655 OFFCURVE",
"1496 515 OFFCURVE",
"1449 411 OFFCURVE",
"1379 350 OFFCURVE",
"1333 350 QCURVE SMOOTH",
"1310 350 OFFCURVE",
"1267 365 OFFCURVE",
"1233 405 OFFCURVE",
"1212 473 OFFCURVE",
"1212 526 QCURVE SMOOTH",
"1212 545 LINE SMOOTH",
"1212 553 OFFCURVE",
"1213 580 OFFCURVE",
"1214 602 QCURVE SMOOTH",
"1237 1018 LINE",
"1214 1026 OFFCURVE",
"1145 1043 OFFCURVE",
"1063 1057 OFFCURVE",
"973 1065 OFFCURVE",
"928 1065 QCURVE SMOOTH",
"830 1065 OFFCURVE",
"672 997 OFFCURVE",
"561 875 OFFCURVE",
"502 707 OFFCURVE",
"502 606 QCURVE SMOOTH",
"502 520 OFFCURVE",
"545 378 OFFCURVE",
"627 277 OFFCURVE",
"746 221 OFFCURVE",
"823 221 QCURVE SMOOTH",
"876 221 OFFCURVE",
"965 249 OFFCURVE",
"1036 298 OFFCURVE",
"1090 364 OFFCURVE",
"1108 401 QCURVE",
"1112 401 LINE",
"1118 366 OFFCURVE",
"1151 301 OFFCURVE",
"1203 251 OFFCURVE",
"1276 221 OFFCURVE",
"1321 221 QCURVE SMOOTH",
"1379 221 OFFCURVE",
"1476 262 OFFCURVE",
"1552 334 OFFCURVE",
"1609 431 OFFCURVE",
"1646 544 OFFCURVE",
"1665 669 OFFCURVE",
"1665 731 QCURVE",
"1665 731 LINE"
);
},
{
closed = 1;
nodes = (
"662 664 OFFCURVE",
"690 784 OFFCURVE",
"753 878 OFFCURVE",
"854 936 OFFCURVE",
"928 936 QCURVE SMOOTH",
"970 936 OFFCURVE",
"1047 923 OFFCURVE",
"1075 915 QCURVE",
"1061 662 LINE SMOOTH",
"1057 593 OFFCURVE",
"1031 478 OFFCURVE",
"981 395 OFFCURVE",
"903 350 OFFCURVE",
"848 350 QCURVE SMOOTH",
"763 350 OFFCURVE",
"662 469 OFFCURVE",
"662 602 QCURVE",
"662 602 LINE"
);
}
);
width = 1774;
},
{
layerId = "DF847F4E-D23C-40FA-8597-1D02BA148938";
paths = (
{
closed = 1;
nodes = (
"1707 950 OFFCURVE",
"1523 1278 OFFCURVE",
"1191 1454 OFFCURVE",
"970 1454 QCURVE SMOOTH",
"710 1454 OFFCURVE",
"325 1237 OFFCURVE",
"112 844 OFFCURVE",
"112 578 QCURVE SMOOTH",
"112 338 OFFCURVE",
"294 -8 OFFCURVE",
"632 -193 OFFCURVE",
"868 -193 QCURVE SMOOTH",
"991 -193 OFFCURVE",
"1204 -150 OFFCURVE",
"1294 -113 QCURVE",
"1294 -14 LINE",
"1202 -53 OFFCURVE",
"982 -100 OFFCURVE",
"868 -100 QCURVE SMOOTH",
"554 -100 OFFCURVE",
"212 258 OFFCURVE",
"212 582 QCURVE SMOOTH",
"212 819 OFFCURVE",
"397 1169 OFFCURVE",
"737 1360 OFFCURVE",
"970 1360 QCURVE SMOOTH",
"1167 1360 OFFCURVE",
"1451 1206 OFFCURVE",
"1607 922 OFFCURVE",
"1607 725 QCURVE SMOOTH",
"1607 606 OFFCURVE",
"1556 420 OFFCURVE",
"1453 311 OFFCURVE",
"1376 311 QCURVE SMOOTH",
"1304 311 OFFCURVE",
"1228 406 OFFCURVE",
"1228 516 QCURVE SMOOTH",
"1228 545 OFFCURVE",
"1230 612 OFFCURVE",
"1232 649 QCURVE SMOOTH",
"1249 1006 LINE",
"1195 1026 OFFCURVE",
"1044 1051 OFFCURVE",
"962 1051 QCURVE SMOOTH",
"831 1051 OFFCURVE",
"636 932 OFFCURVE",
"528 725 OFFCURVE",
"528 594 QCURVE SMOOTH",
"528 418 OFFCURVE",
"694 221 OFFCURVE",
"847 221 QCURVE SMOOTH",
"1062 221 OFFCURVE",
"1150 418 QCURVE",
"1154 418 LINE",
"1163 330 OFFCURVE",
"1275 221 OFFCURVE",
"1369 221 QCURVE SMOOTH",
"1482 221 OFFCURVE",
"1634 362 OFFCURVE",
"1707 592 OFFCURVE",
"1707 725 QCURVE",
"1707 725 LINE"
);
},
{
closed = 1;
nodes = (
"634 694 OFFCURVE",
"710 862 OFFCURVE",
"855 961 OFFCURVE",
"962 961 QCURVE SMOOTH",
"1015 961 OFFCURVE",
"1107 946 OFFCURVE",
"1142 934 QCURVE",
"1130 653 LINE SMOOTH",
"1122 487 OFFCURVE",
"989 311 OFFCURVE",
"860 311 QCURVE SMOOTH",
"751 311 OFFCURVE",
"634 451 OFFCURVE",
"634 590 QCURVE",
"634 590 LINE"
);
}
);
width = 1818;
},
{
layerId = "3BE6379C-89A1-45B5-97C8-F079248A4F49";
paths = (
{
closed = 1;
nodes = (
"1691 942 OFFCURVE",
"1513 1268 OFFCURVE",
"1183 1446 OFFCURVE",
"956 1446 QCURVE SMOOTH",
"704 1446 OFFCURVE",
"321 1245 OFFCURVE",
"106 860 OFFCURVE",
"106 582 QCURVE SMOOTH",
"106 340 OFFCURVE",
"286 -12 OFFCURVE",
"618 -205 OFFCURVE",
"847 -205 QCURVE SMOOTH",
"964 -205 OFFCURVE",
"1171 -164 OFFCURVE",
"1261 -127 QCURVE",
"1261 -70 LINE",
"1163 -111 OFFCURVE",
"950 -154 OFFCURVE",
"847 -154 QCURVE SMOOTH",
"632 -154 OFFCURVE",
"325 25 OFFCURVE",
"161 354 OFFCURVE",
"161 582 QCURVE SMOOTH",
"161 844 OFFCURVE",
"364 1206 OFFCURVE",
"724 1395 OFFCURVE",
"956 1395 QCURVE SMOOTH",
"1177 1395 OFFCURVE",
"1480 1225 OFFCURVE",
"1636 922 OFFCURVE",
"1636 719 QCURVE SMOOTH",
"1636 588 OFFCURVE",
"1581 385 OFFCURVE",
"1462 270 OFFCURVE",
"1372 270 QCURVE SMOOTH",
"1277 270 OFFCURVE",
"1202 393 OFFCURVE",
"1202 504 QCURVE SMOOTH",
"1202 557 OFFCURVE",
"1208 662 OFFCURVE",
"1210 698 QCURVE SMOOTH",
"1224 995 LINE",
"1167 1016 OFFCURVE",
"1036 1036 OFFCURVE",
"962 1036 QCURVE SMOOTH",
"833 1036 OFFCURVE",
"638 918 OFFCURVE",
"528 713 OFFCURVE",
"528 582 QCURVE SMOOTH",
"528 406 OFFCURVE",
"692 219 OFFCURVE",
"841 219 QCURVE SMOOTH",
"940 219 OFFCURVE",
"1112 319 OFFCURVE",
"1159 434 QCURVE",
"1163 330 OFFCURVE",
"1280 219 OFFCURVE",
"1372 219 QCURVE SMOOTH",
"1480 219 OFFCURVE",
"1622 352 OFFCURVE",
"1691 578 OFFCURVE",
"1691 719 QCURVE",
"1691 719 LINE"
);
},
{
closed = 1;
nodes = (
"583 768 OFFCURVE",
"794 985 OFFCURVE",
"962 985 QCURVE SMOOTH",
"1081 985 OFFCURVE",
"1171 954 QCURVE",
"1155 647 LINE SMOOTH",
"1144 453 OFFCURVE",
"985 270 OFFCURVE",
"841 270 QCURVE SMOOTH",
"710 270 OFFCURVE",
"583 434 OFFCURVE",
"583 582 QCURVE",
"583 582 LINE"
);
}
);
width = 1798;
}
);
note = at;
unicode = 0040;
},
{
glyphname = braceleft;
lastChange = "2020-02-04 08:34:44 +0000";
layers = (
{
layerId = "372009DC-CA12-41C8-98C7-C44FC6D5F55D";
paths = (
{
closed = 1;
nodes = (
"821 -66 LINE",
"782 -66 OFFCURVE",
"692 -53 OFFCURVE",
"630 -8 OFFCURVE",
"630 41 QCURVE SMOOTH",
"630 317 LINE SMOOTH",
"630 434 OFFCURVE",
"507 545 OFFCURVE",
"391 563 QCURVE",
"391 575 LINE",
"503 590 OFFCURVE",
"630 702 OFFCURVE",
"630 827 QCURVE SMOOTH",
"630 1098 LINE SMOOTH",
"630 1149 OFFCURVE",
"692 1192 OFFCURVE",
"780 1204 OFFCURVE",
"821 1204 QCURVE",
"821 1483 LINE",
"608 1483 OFFCURVE",
"387 1409 OFFCURVE",
"307 1260 OFFCURVE",
"307 1143 QCURVE SMOOTH",
"307 889 LINE SMOOTH",
"307 827 OFFCURVE",
"237 752 OFFCURVE",
"124 719 OFFCURVE",
"61 719 QCURVE",
"61 418 LINE",
"122 418 OFFCURVE",
"235 385 OFFCURVE",
"307 309 OFFCURVE",
"307 248 QCURVE SMOOTH",
"307 0 LINE SMOOTH",
"307 -119 OFFCURVE",
"389 -272 OFFCURVE",
"610 -344 OFFCURVE",
"821 -344 QCURVE",
"821 -344 LINE"
);
}
);
width = 886;
},
{
layerId = "A36153DC-C9CC-437F-8D19-86D84E7E38EA";
paths = (
{
closed = 1;
nodes = (
"203 562 OFFCURVE",
"334 466 OFFCURVE",
"334 353 QCURVE SMOOTH",
"334 -14 LINE SMOOTH",
"334 -100 OFFCURVE",
"372 -224 OFFCURVE",
"471 -302 OFFCURVE",
"641 -339 OFFCURVE",
"772 -339 QCURVE",
"772 -113 LINE",
"732 -112 OFFCURVE",
"667 -97 OFFCURVE",
"622 -60 OFFCURVE",
"598 4 OFFCURVE",
"598 55 QCURVE SMOOTH",
"598 422 LINE SMOOTH",
"598 527 OFFCURVE",
"540 590 QCURVE SMOOTH",
"479 656 OFFCURVE",
"364 676 QCURVE",
"364 688 LINE",
"592 730 OFFCURVE",
"598 953 QCURVE SMOOTH",
"598 1310 LINE SMOOTH",
"598 1361 OFFCURVE",
"622 1425 OFFCURVE",
"667 1462 OFFCURVE",
"732 1477 OFFCURVE",
"772 1478 QCURVE",
"772 1703 LINE",
"641 1703 OFFCURVE",
"471 1666 OFFCURVE",
"372 1588 OFFCURVE",
"334 1465 OFFCURVE",
"334 1379 QCURVE SMOOTH",
"334 996 LINE SMOOTH",
"334 948 OFFCURVE",
"320 913 QCURVE SMOOTH",
"303 873 OFFCURVE",
"237 823 OFFCURVE",
"140 801 OFFCURVE",
"78 801 QCURVE",
"78 562 LINE",
"78 562 LINE"
);
}
);
width = 872;
},
{
layerId = "607A0539-44D7-4182-901A-4BFA5CCC01F8";
paths = (
{
closed = 1;
nodes = (
"500 315 LINE SMOOTH",
"500 421 OFFCURVE",
"381 543 OFFCURVE",
"266 563 QCURVE",
"266 575 LINE",
"381 595 OFFCURVE",
"500 718 OFFCURVE",
"500 823 QCURVE SMOOTH",
"500 1155 LINE SMOOTH",
"500 1203 OFFCURVE",
"524 1264 OFFCURVE",
"569 1299 OFFCURVE",
"634 1312 OFFCURVE",
"674 1313 QCURVE",
"674 1462 LINE",
"597 1461 OFFCURVE",
"466 1428 OFFCURVE",
"371 1357 OFFCURVE",
"317 1247 OFFCURVE",
"317 1169 QCURVE SMOOTH",
"317 836 LINE SMOOTH",
"317 733 OFFCURVE",
"186 647 OFFCURVE",
"61 647 QCURVE",
"61 492 LINE",
"186 492 OFFCURVE",
"317 406 OFFCURVE",
"317 303 QCURVE SMOOTH",
"317 -31 LINE SMOOTH",
"317 -109 OFFCURVE",
"371 -219 OFFCURVE",
"466 -290 OFFCURVE",
"597 -323 OFFCURVE",
"674 -324 QCURVE",
"674 -174 LINE",
"634 -173 OFFCURVE",
"569 -160 OFFCURVE",
"524 -125 OFFCURVE",
"500 -64 OFFCURVE",
"500 -16 QCURVE",
"500 -16 LINE"
);
}
);
width = 725;
},
{
layerId = "DF847F4E-D23C-40FA-8597-1D02BA148938";
paths = (
{
closed = 1;
nodes = (
"663 -225 LINE",
"536 -223 OFFCURVE",
"409 -123 OFFCURVE",
"409 -14 QCURVE SMOOTH",
"409 313 LINE SMOOTH",
"409 418 OFFCURVE",
"319 547 OFFCURVE",
"217 565 QCURVE",
"217 573 LINE",
"319 592 OFFCURVE",
"409 723 OFFCURVE",
"409 827 QCURVE SMOOTH",
"409 1147 LINE SMOOTH",
"409 1262 OFFCURVE",
"536 1360 OFFCURVE",
"663 1364 QCURVE",
"663 1462 LINE",
"489 1462 OFFCURVE",
"293 1311 OFFCURVE",
"293 1163 QCURVE SMOOTH",
"293 836 LINE SMOOTH",
"293 719 OFFCURVE",
"176 621 OFFCURVE",
"55 618 QCURVE",
"55 520 LINE",
"176 520 OFFCURVE",
"293 420 OFFCURVE",
"293 303 QCURVE SMOOTH",
"293 -23 LINE SMOOTH",
"293 -172 OFFCURVE",
"485 -324 OFFCURVE",
"663 -324 QCURVE",
"663 -324 LINE"
);
}
);
width = 733;
},
{
layerId = "3BE6379C-89A1-45B5-97C8-F079248A4F49";
paths = (
{
closed = 1;
nodes = (
"614 -272 LINE",
"469 -272 OFFCURVE",
"334 -160 OFFCURVE",
"334 -41 QCURVE SMOOTH",
"334 311 LINE SMOOTH",
"334 416 OFFCURVE",
"262 551 OFFCURVE",
"172 567 QCURVE",
"172 571 LINE",
"262 588 OFFCURVE",
"334 723 OFFCURVE",
"334 827 QCURVE SMOOTH",
"334 1174 LINE SMOOTH",
"334 1298 OFFCURVE",
"469 1411 OFFCURVE",
"614 1411 QCURVE",
"614 1462 LINE",
"446 1462 OFFCURVE",
"278 1319 OFFCURVE",
"278 1186 QCURVE SMOOTH",
"278 836 LINE SMOOTH",
"278 705 OFFCURVE",
"176 594 OFFCURVE",
"53 594 QCURVE",
"53 545 LINE",
"176 545 OFFCURVE",
"278 430 OFFCURVE",
"278 303 QCURVE SMOOTH",
"278 -47 LINE SMOOTH",
"278 -180 OFFCURVE",
"446 -324 OFFCURVE",
"614 -324 QCURVE",
"614 -324 LINE"
);
}
);
width = 690;
}
);
note = braceleft;
unicode = 007B;
},
{
glyphname = bar;
lastChange = "2020-02-04 08:34:44 +0000";
layers = (
{
layerId = "372009DC-CA12-41C8-98C7-C44FC6D5F55D";
paths = (
{
closed = 1;
nodes = (
"387 -446 LINE",
"655 -446 LINE",
"655 1556 LINE",
"387 1556 LINE",
"387 1556 LINE"
);
}
);
width = 1042;
},
{
layerId = "A36153DC-C9CC-437F-8D19-86D84E7E38EA";
paths = (
{
closed = 1;
nodes = (
"443 -339 LINE",
"662 -339 LINE",
"662 1703 LINE",
"443 1703 LINE",
"443 1703 LINE"
);
}
);
width = 1105;
},
{
layerId = "607A0539-44D7-4182-901A-4BFA5CCC01F8";
paths = (
{
closed = 1;
nodes = (
"489 -492 LINE",
"639 -492 LINE",
"639 1556 LINE",
"489 1556 LINE",
"489 1556 LINE"
);
}
);
userData = {
assembly = "NPUSHB[ ]	/* 14 values pushed */\0120 0 1 0 133 0 1 1 118 17 16 2 6 24 \012CALL[ ]	/* CallFunction */";
};
width = 1128;
},
{
layerId = "DF847F4E-D23C-40FA-8597-1D02BA148938";
paths = (
{
closed = 1;
nodes = (
"503 -504 LINE",
"603 -504 LINE",
"603 1561 LINE",
"503 1561 LINE",
"503 1561 LINE"
);
}
);
width = 1112;
},
{
layerId = "3BE6379C-89A1-45B5-97C8-F079248A4F49";
paths = (
{
closed = 1;
nodes = (
"518 -514 LINE",
"569 -514 LINE",
"569 1563 LINE",
"518 1563 LINE",
"518 1563 LINE"
);
}
);
width = 1095;
}
);
note = bar;
unicode = 007C;
},
{
glyphname = braceright;
lastChange = "2020-02-04 08:34:44 +0000";
layers = (
{
layerId = "372009DC-CA12-41C8-98C7-C44FC6D5F55D";
paths = (
{
closed = 1;
nodes = (
"274 -344 OFFCURVE",
"497 -272 OFFCURVE",
"579 -119 OFFCURVE",
"579 0 QCURVE SMOOTH",
"579 248 LINE SMOOTH",
"579 309 OFFCURVE",
"651 385 OFFCURVE",
"763 418 OFFCURVE",
"825 418 QCURVE",
"825 719 LINE",
"761 719 OFFCURVE",
"649 752 OFFCURVE",
"579 827 OFFCURVE",
"579 889 QCURVE SMOOTH",
"579 1143 LINE SMOOTH",
"579 1260 OFFCURVE",
"499 1409 OFFCURVE",
"278 1483 OFFCURVE",
"65 1483 QCURVE",
"65 1204 LINE",
"106 1204 OFFCURVE",
"194 1192 OFFCURVE",
"255 1149 OFFCURVE",
"255 1098 QCURVE SMOOTH",
"255 827 LINE SMOOTH",
"255 702 OFFCURVE",
"380 590 OFFCURVE",
"495 575 QCURVE",
"495 563 LINE",
"378 545 OFFCURVE",
"255 434 OFFCURVE",
"255 317 QCURVE SMOOTH",
"255 41 LINE SMOOTH",
"255 -8 OFFCURVE",
"194 -53 OFFCURVE",
"106 -66 OFFCURVE",
"65 -66 QCURVE",
"65 -344 LINE",
"65 -344 LINE"
);
}
);
width = 886;
},
{
layerId = "A36153DC-C9CC-437F-8D19-86D84E7E38EA";
paths = (
{
closed = 1;
nodes = (
"794 802 LINE",
"669 802 OFFCURVE",
"538 898 OFFCURVE",
"538 1011 QCURVE SMOOTH",
"538 1378 LINE SMOOTH",
"538 1464 OFFCURVE",
"500 1588 OFFCURVE",
"401 1666 OFFCURVE",
"231 1703 OFFCURVE",
"100 1703 QCURVE",
"100 1477 LINE",
"140 1476 OFFCURVE",
"205 1461 OFFCURVE",
"250 1424 OFFCURVE",
"274 1360 OFFCURVE",
"274 1309 QCURVE SMOOTH",
"274 942 LINE SMOOTH",
"274 837 OFFCURVE",
"332 774 QCURVE SMOOTH",
"393 708 OFFCURVE",
"508 688 QCURVE",
"508 676 LINE",
"280 634 OFFCURVE",
"274 411 QCURVE SMOOTH",
"274 54 LINE SMOOTH",
"274 3 OFFCURVE",
"250 -61 OFFCURVE",
"205 -98 OFFCURVE",
"140 -113 OFFCURVE",
"100 -114 QCURVE",
"100 -339 LINE",
"231 -339 OFFCURVE",
"401 -302 OFFCURVE",
"500 -224 OFFCURVE",
"538 -101 OFFCURVE",
"538 -15 QCURVE SMOOTH",
"538 368 LINE SMOOTH",
"538 416 OFFCURVE",
"553 452 QCURVE SMOOTH",
"569 491 OFFCURVE",
"635 541 OFFCURVE",
"732 563 OFFCURVE",
"794 563 QCURVE",
"794 563 LINE"
);
}
);
width = 872;
},
{
layerId = "607A0539-44D7-4182-901A-4BFA5CCC01F8";
paths = (
{
closed = 1;
nodes = (
"225 -16 LINE SMOOTH",
"225 -64 OFFCURVE",
"201 -125 OFFCURVE",
"156 -160 OFFCURVE",
"91 -173 OFFCURVE",
"51 -174 QCURVE",
"51 -324 LINE",
"128 -323 OFFCURVE",
"259 -290 OFFCURVE",
"354 -219 OFFCURVE",
"408 -109 OFFCURVE",
"408 -31 QCURVE SMOOTH",
"408 303 LINE SMOOTH",
"408 406 OFFCURVE",
"539 492 OFFCURVE",
"664 492 QCURVE",
"664 647 LINE",
"602 647 OFFCURVE",
"506 667 OFFCURVE",
"441 712 OFFCURVE",
"408 784 OFFCURVE",
"408 836 QCURVE SMOOTH",
"408 1169 LINE SMOOTH",
"408 1247 OFFCURVE",
"354 1357 OFFCURVE",
"259 1428 OFFCURVE",
"128 1461 OFFCURVE",
"51 1462 QCURVE",
"51 1313 LINE",
"91 1312 OFFCURVE",
"156 1299 OFFCURVE",
"201 1264 OFFCURVE",
"225 1203 OFFCURVE",
"225 1155 QCURVE SMOOTH",
"225 823 LINE SMOOTH",
"225 718 OFFCURVE",
"344 595 OFFCURVE",
"459 575 QCURVE",
"459 563 LINE",
"344 543 OFFCURVE",
"225 421 OFFCURVE",
"225 315 QCURVE",
"225 315 LINE"
);
}
);
width = 725;
},
{
layerId = "DF847F4E-D23C-40FA-8597-1D02BA148938";
paths = (
{
closed = 1;
nodes = (
"243 -324 OFFCURVE",
"440 -172 OFFCURVE",
"440 -25 QCURVE SMOOTH",
"440 303 LINE SMOOTH",
"440 420 OFFCURVE",
"556 520 OFFCURVE",
"677 520 QCURVE",
"677 618 LINE",
"556 618 OFFCURVE",
"440 719 OFFCURVE",
"440 836 QCURVE SMOOTH",
"440 1161 LINE SMOOTH",
"440 1311 OFFCURVE",
"247 1462 OFFCURVE",
"69 1462 QCURVE",
"69 1364 LINE",
"196 1362 OFFCURVE",
"323 1262 OFFCURVE",
"323 1149 QCURVE SMOOTH",
"323 827 LINE SMOOTH",
"323 723 OFFCURVE",
"413 592 OFFCURVE",
"515 573 QCURVE",
"515 565 LINE",
"413 547 OFFCURVE",
"323 416 OFFCURVE",
"323 311 QCURVE SMOOTH",
"323 -12 LINE SMOOTH",
"323 -123 OFFCURVE",
"196 -221 OFFCURVE",
"69 -225 QCURVE",
"69 -324 LINE",
"69 -324 LINE"
);
}
);
width = 733;
},
{
layerId = "3BE6379C-89A1-45B5-97C8-F079248A4F49";
paths = (
{
closed = 1;
nodes = (
"241 -324 OFFCURVE",
"409 -180 OFFCURVE",
"409 -47 QCURVE SMOOTH",
"409 303 LINE SMOOTH",
"409 430 OFFCURVE",
"511 545 OFFCURVE",
"634 545 QCURVE",
"634 594 LINE",
"511 594 OFFCURVE",
"409 705 OFFCURVE",
"409 836 QCURVE SMOOTH",
"409 1186 LINE SMOOTH",
"409 1319 OFFCURVE",
"241 1462 OFFCURVE",
"73 1462 QCURVE",
"73 1411 LINE",
"218 1411 OFFCURVE",
"354 1298 OFFCURVE",
"354 1174 QCURVE SMOOTH",
"354 827 LINE SMOOTH",
"354 723 OFFCURVE",
"425 588 OFFCURVE",
"515 571 QCURVE",
"515 567 LINE",
"425 551 OFFCURVE",
"354 416 OFFCURVE",
"354 311 QCURVE SMOOTH",
"354 -41 LINE SMOOTH",
"354 -160 OFFCURVE",
"218 -272 OFFCURVE",
"73 -272 QCURVE",
"73 -324 LINE",
"73 -324 LINE"
);
}
);
width = 690;
}
);
note = braceright;
unicode = 007D;
},
{
glyphname = asciitilde;
lastChange = "2020-02-04 08:34:44 +0000";
layers = (
{
layerId = "372009DC-CA12-41C8-98C7-C44FC6D5F55D";
paths = (
{
closed = 1;
nodes = (
"661 553 OFFCURVE",
"782 528 OFFCURVE",
"842 528 QCURVE SMOOTH",
"1001 528 OFFCURVE",
"1106 637 QCURVE",
"1106 918 LINE",
"1053 866 OFFCURVE",
"932 797 OFFCURVE",
"874 797 QCURVE SMOOTH",
"827 797 OFFCURVE",
"713 819 OFFCURVE",
"637 852 QCURVE SMOOTH",
"536 893 OFFCURVE",
"416 915 OFFCURVE",
"356 915 QCURVE SMOOTH",
"274 915 OFFCURVE",
"143 860 OFFCURVE",
"92 807 QCURVE",
"92 526 LINE",
"143 578 OFFCURVE",
"266 647 OFFCURVE",
"325 647 QCURVE SMOOTH",
"373 647 OFFCURVE",
"485 625 OFFCURVE",
"561 592 QCURVE",
"561 592 LINE"
);
}
);
width = 1200;
},
{
layerId = "A36153DC-C9CC-437F-8D19-86D84E7E38EA";
paths = (
{
closed = 1;
nodes = (
"596 536 OFFCURVE",
"666 511 OFFCURVE",
"723 498 OFFCURVE",
"774 493 OFFCURVE",
"804 493 QCURVE SMOOTH",
"959 493 OFFCURVE",
"1060 602 QCURVE",
"1060 833 LINE",
"1035 808 OFFCURVE",
"978 763 OFFCURVE",
"918 731 OFFCURVE",
"856 712 OFFCURVE",
"827 712 QCURVE SMOOTH",
"805 712 OFFCURVE",
"763 717 OFFCURVE",
"715 730 OFFCURVE",
"658 751 OFFCURVE",
"620 767 QCURVE SMOOTH",
"572 787 OFFCURVE",
"502 812 OFFCURVE",
"445 826 OFFCURVE",
"394 831 OFFCURVE",
"364 831 QCURVE SMOOTH",
"286 831 OFFCURVE",
"159 776 OFFCURVE",
"108 722 QCURVE",
"108 491 LINE",
"134 516 OFFCURVE",
"191 560 OFFCURVE",
"251 593 OFFCURVE",
"313 612 OFFCURVE",
"342 612 QCURVE SMOOTH",
"365 612 OFFCURVE",
"407 607 OFFCURVE",
"454 594 OFFCURVE",
"511 572 OFFCURVE",
"548 556 QCURVE",
"548 556 LINE"
);
}
);
width = 1168;
},
{
layerId = "607A0539-44D7-4182-901A-4BFA5CCC01F8";
paths = (
{
closed = 1;
nodes = (
"577 631 OFFCURVE",
"644 606 OFFCURVE",
"699 593 OFFCURVE",
"749 588 OFFCURVE",
"778 588 QCURVE SMOOTH",
"927 588 OFFCURVE",
"1026 696 QCURVE",
"1026 858 LINE",
"1002 833 OFFCURVE",
"946 789 OFFCURVE",
"887 756 OFFCURVE",
"827 737 OFFCURVE",
"799 737 QCURVE SMOOTH",
"777 737 OFFCURVE",
"737 742 OFFCURVE",
"690 755 OFFCURVE",
"635 777 OFFCURVE",
"598 793 QCURVE SMOOTH",
"551 813 OFFCURVE",
"484 838 OFFCURVE",
"429 851 OFFCURVE",
"379 856 OFFCURVE",
"350 856 QCURVE SMOOTH",
"202 856 OFFCURVE",
"102 748 QCURVE",
"102 586 LINE",
"127 611 OFFCURVE",
"183 655 OFFCURVE",
"242 688 OFFCURVE",
"302 707 OFFCURVE",
"330 707 QCURVE SMOOTH",
"352 707 OFFCURVE",
"393 702 OFFCURVE",
"438 689 OFFCURVE",
"493 667 OFFCURVE",
"530 651 QCURVE",
"530 651 LINE"
);
}
);
width = 1128;
},
{
layerId = "DF847F4E-D23C-40FA-8597-1D02BA148938";
paths = (
{
closed = 1;
nodes = (
"643 643 OFFCURVE",
"753 610 OFFCURVE",
"819 610 QCURVE SMOOTH",
"892 610 OFFCURVE",
"1015 668 OFFCURVE",
"1060 717 QCURVE",
"1060 823 LINE",
"1005 766 OFFCURVE",
"882 709 OFFCURVE",
"825 709 QCURVE SMOOTH",
"772 709 OFFCURVE",
"675 739 OFFCURVE",
"610 768 QCURVE SMOOTH",
"534 803 OFFCURVE",
"421 836 OFFCURVE",
"352 836 QCURVE SMOOTH",
"282 836 OFFCURVE",
"155 780 OFFCURVE",
"108 731 QCURVE",
"108 618 LINE",
"221 737 OFFCURVE",
"344 737 QCURVE SMOOTH",
"401 737 OFFCURVE",
"499 707 OFFCURVE",
"565 676 QCURVE",
"565 676 LINE"
);
}
);
width = 1169;
},
{
layerId = "3BE6379C-89A1-45B5-97C8-F079248A4F49";
paths = (
{
closed = 1;
nodes = (
"638 670 OFFCURVE",
"745 633 OFFCURVE",
"819 633 QCURVE SMOOTH",
"892 633 OFFCURVE",
"1013 692 OFFCURVE",
"1052 733 QCURVE",
"1052 793 LINE",
"991 729 OFFCURVE",
"874 682 OFFCURVE",
"819 682 QCURVE SMOOTH",
"755 682 OFFCURVE",
"659 717 OFFCURVE",
"603 745 QCURVE SMOOTH",
"544 774 OFFCURVE",
"440 813 OFFCURVE",
"354 813 QCURVE SMOOTH",
"286 813 OFFCURVE",
"159 760 OFFCURVE",
"114 715 QCURVE",
"114 651 LINE",
"171 713 OFFCURVE",
"294 764 OFFCURVE",
"354 764 QCURVE SMOOTH",
"425 764 OFFCURVE",
"522 729 OFFCURVE",
"577 700 QCURVE",
"577 700 LINE"
);
}
);
width = 1167;
}
);
note = asciitilde;
unicode = 007E;
},
{
glyphname = guillemotleft;
lastChange = "2020-02-04 08:34:44 +0000";
layers = (
{
layerId = "372009DC-CA12-41C8-98C7-C44FC6D5F55D";
paths = (
{
closed = 1;
nodes = (
"73 561 LINE",
"462 80 LINE",
"743 227 LINE",
"470 575 LINE",
"743 922 LINE",
"462 1071 LINE",
"73 588 LINE",
"73 588 LINE"
);
},
{
closed = 1;
nodes = (
"648 561 LINE",
"1036 80 LINE",
"1318 227 LINE",
"1044 575 LINE",
"1318 922 LINE",
"1036 1071 LINE",
"648 588 LINE",
"648 588 LINE"
);
}
);
width = 1394;
},
{
layerId = "A36153DC-C9CC-437F-8D19-86D84E7E38EA";
paths = (
{
closed = 1;
nodes = (
"82 547 LINE",
"453 94 LINE",
"672 213 LINE",
"393 561 LINE",
"672 909 LINE",
"453 1028 LINE",
"82 573 LINE",
"82 573 LINE"
);
},
{
closed = 1;
nodes = (
"588 547 LINE",
"958 94 LINE",
"1178 213 LINE",
"899 561 LINE",
"1178 909 LINE",
"958 1028 LINE",
"588 573 LINE",
"588 573 LINE"
);
}
);
width = 1260;
},
{
layerId = "607A0539-44D7-4182-901A-4BFA5CCC01F8";
paths = (
{
closed = 1;
nodes = (
"82 526 LINE",
"391 115 LINE",
"508 193 LINE",
"270 541 LINE",
"508 889 LINE",
"391 967 LINE",
"82 553 LINE",
"82 553 LINE"
);
},
{
closed = 1;
nodes = (
"489 526 LINE",
"799 115 LINE",
"915 193 LINE",
"678 541 LINE",
"915 889 LINE",
"799 967 LINE",
"489 553 LINE",
"489 553 LINE"
);
}
);
userData = {
assembly = "PUSHB[ ]	/* 6 values pushed */\01212 8 5 1 2 50 \012CALL[ ]	/* CallFunction */";
};
width = 997;
},
{
layerId = "DF847F4E-D23C-40FA-8597-1D02BA148938";
paths = (
{
closed = 1;
nodes = (
"67 541 LINE",
"395 147 LINE",
"475 197 LINE",
"192 557 LINE",
"475 918 LINE",
"395 967 LINE",
"67 569 LINE",
"67 569 LINE"
);
},
{
closed = 1;
nodes = (
"442 541 LINE",
"774 147 LINE",
"851 197 LINE",
"569 557 LINE",
"851 918 LINE",
"774 967 LINE",
"442 569 LINE",
"442 569 LINE"
);
}
);
width = 919;
},
{
layerId = "3BE6379C-89A1-45B5-97C8-F079248A4F49";
paths = (
{
closed = 1;
nodes = (
"53 557 LINE",
"364 178 LINE",
"397 201 LINE",
"116 571 LINE",
"397 942 LINE",
"364 967 LINE",
"53 584 LINE",
"53 584 LINE"
);
},
{
closed = 1;
nodes = (
"399 557 LINE",
"710 178 LINE",
"743 201 LINE",
"463 571 LINE",
"743 942 LINE",
"710 967 LINE",
"399 584 LINE",
"399 584 LINE"
);
}
);
width = 796;
}
);
note = guillemotleft;
unicode = 00AB;
},
{
glyphname = uni00AD;
lastChange = "2020-02-04 08:34:44 +0000";
layers = (
{
layerId = "372009DC-CA12-41C8-98C7-C44FC6D5F55D";
paths = (
{
closed = 1;
nodes = (
"608 393 LINE",
"608 705 LINE",
"43 705 LINE",
"43 393 LINE",
"43 393 LINE"
);
}
);
width = 651;
},
{
layerId = "A36153DC-C9CC-437F-8D19-86D84E7E38EA";
paths = (
{
closed = 1;
nodes = (
"598 424 LINE",
"598 674 LINE",
"61 674 LINE",
"61 424 LINE",
"61 424 LINE"
);
}
);
width = 659;
},
{
layerId = "607A0539-44D7-4182-901A-4BFA5CCC01F8";
paths = (
{
closed = 1;
nodes = (
"578 465 LINE",
"578 633 LINE",
"82 633 LINE",
"82 465 LINE",
"82 465 LINE"
);
}
);
userData = {
assembly = "NPUSHB[ ]	/* 27 values pushed */\0120 0 1 1 0 87 0 0 0 1 95 2 1 1 0 1 79 0 0 0 3 0 3 17 3 6 23 \012CALL[ ]	/* CallFunction */";
};
width = 659;
},
{
layerId = "DF847F4E-D23C-40FA-8597-1D02BA148938";
paths = (
{
closed = 1;
nodes = (
"577 500 LINE",
"577 606 LINE",
"81 606 LINE",
"81 500 LINE",
"81 500 LINE"
);
}
);
width = 659;
},
{
layerId = "3BE6379C-89A1-45B5-97C8-F079248A4F49";
paths = (
{
closed = 1;
nodes = (
"577 530 LINE",
"577 582 LINE",
"81 582 LINE",
"81 530 LINE",
"81 530 LINE"
);
}
);
width = 659;
}
);
note = uni00AD;
unicode = 00AD;
},
{
glyphname = guillemotright;
lastChange = "2020-02-04 08:34:44 +0000";
layers = (
{
layerId = "372009DC-CA12-41C8-98C7-C44FC6D5F55D";
paths = (
{
closed = 1;
nodes = (
"745 588 LINE",
"358 1071 LINE",
"75 922 LINE",
"347 575 LINE",
"75 227 LINE",
"358 80 LINE",
"745 561 LINE",
"745 561 LINE"
);
},
{
closed = 1;
nodes = (
"1320 588 LINE",
"933 1071 LINE",
"648 922 LINE",
"923 575 LINE",
"648 227 LINE",
"933 80 LINE",
"1320 561 LINE",
"1320 561 LINE"
);
}
);
width = 1394;
},
{
layerId = "A36153DC-C9CC-437F-8D19-86D84E7E38EA";
paths = (
{
closed = 1;
nodes = (
"672 573 LINE",
"301 1028 LINE",
"82 909 LINE",
"360 561 LINE",
"82 213 LINE",
"301 94 LINE",
"672 547 LINE",
"672 547 LINE"
);
},
{
closed = 1;
nodes = (
"1178 573 LINE",
"807 1028 LINE",
"588 909 LINE",
"866 561 LINE",
"588 213 LINE",
"807 94 LINE",
"1178 547 LINE",
"1178 547 LINE"
);
}
);
width = 1260;
},
{
layerId = "607A0539-44D7-4182-901A-4BFA5CCC01F8";
paths = (
{
closed = 1;
nodes = (
"510 553 LINE",
"201 967 LINE",
"84 889 LINE",
"322 541 LINE",
"84 193 LINE",
"201 115 LINE",
"510 526 LINE",
"510 526 LINE"
);
},
{
closed = 1;
nodes = (
"918 553 LINE",
"608 967 LINE",
"492 889 LINE",
"729 541 LINE",
"492 193 LINE",
"608 115 LINE",
"918 526 LINE",
"918 526 LINE"
);
}
);
userData = {
assembly = "PUSHB[ ]	/* 6 values pushed */\01212 8 5 1 2 50 \012CALL[ ]	/* CallFunction */";
};
width = 997;
},
{
layerId = "DF847F4E-D23C-40FA-8597-1D02BA148938";
paths = (
{
closed = 1;
nodes = (
"475 569 LINE",
"145 967 LINE",
"65 918 LINE",
"350 557 LINE",
"65 197 LINE",
"145 147 LINE",
"475 545 LINE",
"475 545 LINE"
);
},
{
closed = 1;
nodes = (
"851 569 LINE",
"522 967 LINE",
"442 918 LINE",
"724 557 LINE",
"442 197 LINE",
"522 147 LINE",
"851 545 LINE",
"851 545 LINE"
);
}
);
width = 919;
},
{
layerId = "3BE6379C-89A1-45B5-97C8-F079248A4F49";
paths = (
{
closed = 1;
nodes = (
"397 588 LINE",
"86 967 LINE",
"53 944 LINE",
"334 573 LINE",
"53 203 LINE",
"86 178 LINE",
"397 561 LINE",
"397 561 LINE"
);
},
{
closed = 1;
nodes = (
"743 588 LINE",
"432 967 LINE",
"399 944 LINE",
"680 573 LINE",
"399 203 LINE",
"432 178 LINE",
"743 561 LINE",
"743 561 LINE"
);
}
);
width = 796;
}
);
note = guillemotright;
unicode = 00BB;
},
{
glyphname = uni1780;
lastChange = "2020-02-04 09:00:17 +0000";
layers = (
{
layerId = "372009DC-CA12-41C8-98C7-C44FC6D5F55D";
paths = (
{
closed = 1;
nodes = (
"1190 932 LINE",
"1190 1160 LINE",
"110 1160 LINE",
"110 932 LINE"
);
},
{
closed = 1;
nodes = (
"110 0 LINE",
"478 0 LINE",
"478 487 LINE SMOOTH",
"478 557 OFFCURVE",
"535 592 OFFCURVE",
"650 592 CURVE SMOOTH",
"765 592 OFFCURVE",
"822 557 OFFCURVE",
"822 487 CURVE SMOOTH",
"822 0 LINE",
"1190 0 LINE",
"1190 487 LINE SMOOTH",
"1190 702 OFFCURVE",
"1010 810 OFFCURVE",
"650 810 CURVE SMOOTH",
"290 810 OFFCURVE",
"110 702 OFFCURVE",
"110 487 CURVE SMOOTH"
);
}
);
width = 1300;
},
{
layerId = "A36153DC-C9CC-437F-8D19-86D84E7E38EA";
paths = (
{
closed = 1;
nodes = (
"140 1130 LINE",
"140 932 LINE",
"1160 932 LINE",
"1160 1130 LINE"
);
},
{
closed = 1;
nodes = (
"140 0 LINE",
"448 0 LINE",
"448 487 LINE SMOOTH",
"448 577 OFFCURVE",
"515 622 OFFCURVE",
"650 622 CURVE SMOOTH",
"785 622 OFFCURVE",
"852 577 OFFCURVE",
"852 487 CURVE SMOOTH",
"852 0 LINE",
"1160 0 LINE",
"1160 487 LINE SMOOTH",
"1160 702 OFFCURVE",
"990 810 OFFCURVE",
"650 810 CURVE SMOOTH",
"310 810 OFFCURVE",
"140 702 OFFCURVE",
"140 487 CURVE SMOOTH"
);
}
);
width = 1300;
},
{
layerId = "607A0539-44D7-4182-901A-4BFA5CCC01F8";
paths = (
{
closed = 1;
nodes = (
"1100 1130 LINE",
"200 1130 LINE",
"200 992 LINE",
"1100 992 LINE"
);
},
{
closed = 1;
nodes = (
"200 0 LINE",
"388 0 LINE",
"388 517 LINE SMOOTH",
"388 640 OFFCURVE",
"475 702 OFFCURVE",
"650 702 CURVE SMOOTH",
"825 702 OFFCURVE",
"912 640 OFFCURVE",
"912 517 CURVE SMOOTH",
"912 0 LINE",
"1100 0 LINE",
"1100 517 LINE SMOOTH",
"1100 732 OFFCURVE",
"950 840 OFFCURVE",
"650 840 CURVE SMOOTH",
"350 840 OFFCURVE",
"200 732 OFFCURVE",
"200 517 CURVE SMOOTH"
);
}
);
userData = {
assembly = "NPUSHB[ ]	/* 34 values pushed */\0120 2 0 4 3 2 4 105 0 0 0 1 95 0 1 1 17 77 5 1 3 3 19 3 78 18 34 18 33 17 16 6 7 28 \012CALL[ ]	/* CallFunction */";
};
width = 1300;
},
{
layerId = "DF847F4E-D23C-40FA-8597-1D02BA148938";
paths = (
{
closed = 1;
nodes = (
"230 1130 LINE",
"230 1032 LINE",
"1070 1032 LINE",
"1070 1130 LINE"
);
},
{
closed = 1;
nodes = (
"230 0 LINE",
"348 0 LINE",
"348 517 LINE SMOOTH",
"348 667 OFFCURVE",
"449 742 OFFCURVE",
"650 742 CURVE SMOOTH",
"851 742 OFFCURVE",
"952 667 OFFCURVE",
"952 517 CURVE SMOOTH",
"952 0 LINE",
"1070 0 LINE",
"1070 517 LINE SMOOTH",
"1070 732 OFFCURVE",
"930 840 OFFCURVE",
"650 840 CURVE SMOOTH",
"370 840 OFFCURVE",
"230 732 OFFCURVE",
"230 517 CURVE SMOOTH"
);
}
);
width = 1300;
},
{
layerId = "3BE6379C-89A1-45B5-97C8-F079248A4F49";
paths = (
{
closed = 1;
nodes = (
"260 1130 LINE",
"260 1072 LINE",
"1040 1072 LINE",
"1040 1130 LINE"
);
},
{
closed = 1;
nodes = (
"260 0 LINE",
"318 0 LINE",
"318 517 LINE SMOOTH",
"318 694 OFFCURVE",
"429 782 OFFCURVE",
"650 782 CURVE SMOOTH",
"871 782 OFFCURVE",
"982 694 OFFCURVE",
"982 517 CURVE SMOOTH",
"982 0 LINE",
"1040 0 LINE",
"1040 517 LINE SMOOTH",
"1040 732 OFFCURVE",
"910 840 OFFCURVE",
"650 840 CURVE SMOOTH",
"390 840 OFFCURVE",
"260 732 OFFCURVE",
"260 517 CURVE SMOOTH"
);
}
);
width = 1300;
}
);
note = uni1780;
unicode = 1780;
},
{
glyphname = uni1781;
lastChange = "2020-02-04 09:00:33 +0000";
layers = (
{
layerId = "372009DC-CA12-41C8-98C7-C44FC6D5F55D";
paths = (
{
closed = 1;
nodes = (
"110 726 OFFCURVE",
"233 672 OFFCURVE",
"478 672 CURVE SMOOTH",
"564 672 LINE",
"564 835 LINE",
"478 835 LINE",
"478 916 OFFCURVE",
"535 957 OFFCURVE",
"650 957 CURVE SMOOTH",
"765 957 OFFCURVE",
"822 916 OFFCURVE",
"822 835 CURVE SMOOTH",
"822 662 OFFCURVE",
"732 589 OFFCURVE",
"540 589 CURVE SMOOTH",
"259 589 OFFCURVE",
"110 492 OFFCURVE",
"110 325 CURVE SMOOTH",
"110 108 OFFCURVE",
"290 0 OFFCURVE",
"650 0 CURVE SMOOTH",
"1011 0 OFFCURVE",
"1190 116 OFFCURVE",
"1190 356 CURVE",
"822 356 LINE",
"822 288 OFFCURVE",
"797 253 OFFCURVE",
"748 239 CURVE SMOOTH",
"723 232 OFFCURVE",
"691 228 OFFCURVE",
"650 228 CURVE SMOOTH",
"567 228 OFFCURVE",
"521 236 OFFCURVE",
"497 264 CURVE SMOOTH",
"484 278 OFFCURVE",
"478 298 OFFCURVE",
"478 325 CURVE SMOOTH",
"478 369 OFFCURVE",
"501 406 OFFCURVE",
"540 406 CURVE SMOOTH",
"979 406 OFFCURVE",
"1190 539 OFFCURVE",
"1190 835 CURVE SMOOTH",
"1190 1052 OFFCURVE",
"1010 1160 OFFCURVE",
"650 1160 CURVE SMOOTH",
"290 1160 OFFCURVE",
"110 1052 OFFCURVE",
"110 835 CURVE SMOOTH"
);
}
);
width = 1300;
},
{
layerId = "A36153DC-C9CC-437F-8D19-86D84E7E38EA";
paths = (
{
closed = 1;
nodes = (
"140 708 OFFCURVE",
"243 655 OFFCURVE",
"448 655 CURVE SMOOTH",
"534 655 LINE",
"534 813 LINE",
"448 813 LINE",
"448 892 OFFCURVE",
"515 932 OFFCURVE",
"650 932 CURVE SMOOTH",
"785 932 OFFCURVE",
"852 892 OFFCURVE",
"852 813 CURVE SMOOTH",
"852 644 OFFCURVE",
"743 574 OFFCURVE",
"510 574 CURVE SMOOTH",
"261 574 OFFCURVE",
"140 493 OFFCURVE",
"140 317 CURVE SMOOTH",
"140 106 OFFCURVE",
"310 0 OFFCURVE",
"650 0 CURVE SMOOTH",
"990 0 OFFCURVE",
"1160 112 OFFCURVE",
"1160 337 CURVE",
"852 337 LINE",
"852 244 OFFCURVE",
"785 198 OFFCURVE",
"650 198 CURVE SMOOTH",
"515 198 OFFCURVE",
"448 238 OFFCURVE",
"448 317 CURVE SMOOTH",
"448 366 OFFCURVE",
"470 396 OFFCURVE",
"510 396 CURVE SMOOTH",
"949 396 OFFCURVE",
"1160 525 OFFCURVE",
"1160 813 CURVE SMOOTH",
"1160 1024 OFFCURVE",
"990 1130 OFFCURVE",
"650 1130 CURVE SMOOTH",
"310 1130 OFFCURVE",
"140 1024 OFFCURVE",
"140 813 CURVE SMOOTH"
);
}
);
width = 1300;
},
{
layerId = "607A0539-44D7-4182-901A-4BFA5CCC01F8";
paths = (
{
closed = 1;
nodes = (
"200 721 OFFCURVE",
"263 675 OFFCURVE",
"388 675 CURVE SMOOTH",
"500 675 LINE",
"500 813 LINE",
"388 813 LINE",
"388 932 OFFCURVE",
"475 992 OFFCURVE",
"650 992 CURVE SMOOTH",
"825 992 OFFCURVE",
"912 932 OFFCURVE",
"912 813 CURVE SMOOTH",
"912 630 OFFCURVE",
"765 554 OFFCURVE",
"450 554 CURVE SMOOTH",
"286 554 OFFCURVE",
"200 465 OFFCURVE",
"200 317 CURVE SMOOTH",
"200 106 OFFCURVE",
"350 0 OFFCURVE",
"650 0 CURVE SMOOTH",
"950 0 OFFCURVE",
"1100 106 OFFCURVE",
"1100 317 CURVE",
"912 317 LINE",
"912 198 OFFCURVE",
"825 138 OFFCURVE",
"650 138 CURVE SMOOTH",
"475 138 OFFCURVE",
"388 198 OFFCURVE",
"388 317 CURVE SMOOTH",
"388 373 OFFCURVE",
"411 416 OFFCURVE",
"450 416 CURVE SMOOTH",
"889 416 OFFCURVE",
"1100 538 OFFCURVE",
"1100 813 CURVE SMOOTH",
"1100 1024 OFFCURVE",
"950 1130 OFFCURVE",
"650 1130 CURVE SMOOTH",
"350 1130 OFFCURVE",
"200 1024 OFFCURVE",
"200 813 CURVE SMOOTH"
);
}
);
width = 1300;
},
{
layerId = "DF847F4E-D23C-40FA-8597-1D02BA148938";
paths = (
{
closed = 1;
nodes = (
"230 721 OFFCURVE",
"295 675 OFFCURVE",
"424 675 CURVE SMOOTH",
"500 675 LINE",
"500 773 LINE",
"424 773 LINE SMOOTH",
"373 773 OFFCURVE",
"348 786 OFFCURVE",
"348 813 CURVE SMOOTH",
"348 959 OFFCURVE",
"449 1032 OFFCURVE",
"650 1032 CURVE SMOOTH",
"851 1032 OFFCURVE",
"952 959 OFFCURVE",
"952 813 CURVE SMOOTH",
"952 614 OFFCURVE",
"785 514 OFFCURVE",
"450 514 CURVE SMOOTH",
"303 514 OFFCURVE",
"230 448 OFFCURVE",
"230 317 CURVE SMOOTH",
"230 106 OFFCURVE",
"370 0 OFFCURVE",
"650 0 CURVE SMOOTH",
"930 0 OFFCURVE",
"1070 106 OFFCURVE",
"1070 317 CURVE",
"952 317 LINE",
"952 171 OFFCURVE",
"851 98 OFFCURVE",
"650 98 CURVE SMOOTH",
"449 98 OFFCURVE",
"348 171 OFFCURVE",
"348 317 CURVE SMOOTH",
"348 383 OFFCURVE",
"382 416 OFFCURVE",
"450 416 CURVE SMOOTH",
"863 416 OFFCURVE",
"1070 548 OFFCURVE",
"1070 813 CURVE SMOOTH",
"1070 1024 OFFCURVE",
"930 1130 OFFCURVE",
"650 1130 CURVE SMOOTH",
"370 1130 OFFCURVE",
"230 1024 OFFCURVE",
"230 813 CURVE SMOOTH"
);
}
);
width = 1300;
},
{
layerId = "3BE6379C-89A1-45B5-97C8-F079248A4F49";
paths = (
{
closed = 1;
nodes = (
"260 721 OFFCURVE",
"315 675 OFFCURVE",
"424 675 CURVE SMOOTH",
"500 675 LINE",
"500 733 LINE",
"424 733 LINE SMOOTH",
"353 733 OFFCURVE",
"318 760 OFFCURVE",
"318 813 CURVE SMOOTH",
"318 986 OFFCURVE",
"429 1072 OFFCURVE",
"650 1072 CURVE SMOOTH",
"871 1072 OFFCURVE",
"982 986 OFFCURVE",
"982 813 CURVE SMOOTH",
"982 600 OFFCURVE",
"805 494 OFFCURVE",
"450 494 CURVE SMOOTH",
"323 494 OFFCURVE",
"260 435 OFFCURVE",
"260 317 CURVE SMOOTH",
"260 106 OFFCURVE",
"390 0 OFFCURVE",
"650 0 CURVE SMOOTH",
"910 0 OFFCURVE",
"1040 106 OFFCURVE",
"1040 317 CURVE",
"982 317 LINE",
"982 144 OFFCURVE",
"871 58 OFFCURVE",
"650 58 CURVE SMOOTH",
"429 58 OFFCURVE",
"318 144 OFFCURVE",
"318 317 CURVE SMOOTH",
"318 396 OFFCURVE",
"362 436 OFFCURVE",
"450 436 CURVE SMOOTH",
"843 436 OFFCURVE",
"1040 562 OFFCURVE",
"1040 813 CURVE SMOOTH",
"1040 1024 OFFCURVE",
"910 1130 OFFCURVE",
"650 1130 CURVE SMOOTH",
"390 1130 OFFCURVE",
"260 1024 OFFCURVE",
"260 813 CURVE SMOOTH"
);
}
);
width = 1300;
}
);
note = uni1781;
unicode = 1781;
},
{
glyphname = uni1782;
lastChange = "2020-02-04 08:34:44 +0000";
layers = (
{
layerId = "372009DC-CA12-41C8-98C7-C44FC6D5F55D";
paths = (
{
closed = 1;
nodes = (
"1190 1160 LINE",
"110 1160 LINE",
"110 932 LINE",
"1190 932 LINE",
"1190 932 LINE"
);
},
{
closed = 1;
nodes = (
"110 810 OFFCURVE",
"110 487 QCURVE SMOOTH",
"110 0 LINE",
"478 0 LINE",
"478 80 LINE",
"491 99 OFFCURVE",
"493 102 QCURVE SMOOTH",
"526 150 OFFCURVE",
"562 188 OFFCURVE",
"590 200 QCURVE SMOOTH",
"619 212 OFFCURVE",
"666 212 QCURVE SMOOTH",
"700 212 LINE",
"700 400 LINE",
"662 400 LINE SMOOTH",
"533 400 OFFCURVE",
"478 321 QCURVE",
"478 487 LINE SMOOTH",
"478 592 OFFCURVE",
"650 592 QCURVE SMOOTH",
"822 592 OFFCURVE",
"822 487 QCURVE SMOOTH",
"822 0 LINE",
"1190 0 LINE",
"1190 487 LINE SMOOTH",
"1190 810 OFFCURVE",
"650 810 QCURVE",
"650 810 LINE"
);
}
);
width = 1300;
},
{
layerId = "A36153DC-C9CC-437F-8D19-86D84E7E38EA";
paths = (
{
closed = 1;
nodes = (
"140 1130 LINE",
"140 932 LINE",
"1160 932 LINE",
"1160 1130 LINE",
"1160 1130 LINE"
);
},
{
closed = 1;
nodes = (
"448 487 LINE SMOOTH",
"448 652 OFFCURVE",
"650 652 QCURVE SMOOTH",
"852 652 OFFCURVE",
"852 487 QCURVE SMOOTH",
"852 0 LINE",
"1160 0 LINE",
"1160 487 LINE SMOOTH",
"1160 810 OFFCURVE",
"650 810 QCURVE SMOOTH",
"140 810 OFFCURVE",
"140 487 QCURVE SMOOTH",
"140 0 LINE",
"448 0 LINE",
"448 86 LINE",
"470 146 OFFCURVE",
"558 212 OFFCURVE",
"636 212 QCURVE SMOOTH",
"700 212 LINE",
"700 400 LINE",
"636 400 LINE SMOOTH",
"517 400 OFFCURVE",
"448 320 QCURVE",
"448 320 LINE"
);
}
);
width = 1300;
},
{
layerId = "607A0539-44D7-4182-901A-4BFA5CCC01F8";
paths = (
{
closed = 1;
nodes = (
"388 517 LINE SMOOTH",
"388 702 OFFCURVE",
"650 702 QCURVE SMOOTH",
"912 702 OFFCURVE",
"912 517 QCURVE SMOOTH",
"912 0 LINE",
"1100 0 LINE",
"1100 517 LINE SMOOTH",
"1100 840 OFFCURVE",
"650 840 QCURVE SMOOTH",
"200 840 OFFCURVE",
"200 517 QCURVE SMOOTH",
"200 0 LINE",
"388 0 LINE",
"388 86 LINE",
"403 147 OFFCURVE",
"448 222 OFFCURVE",
"529 262 OFFCURVE",
"596 262 QCURVE SMOOTH",
"700 262 LINE",
"700 400 LINE",
"596 400 LINE SMOOTH",
"457 400 OFFCURVE",
"388 320 QCURVE",
"388 320 LINE"
);
},
{
closed = 1;
nodes = (
"200 1130 LINE",
"200 992 LINE",
"1100 992 LINE",
"1100 1130 LINE",
"1100 1130 LINE"
);
}
);
width = 1300;
},
{
layerId = "DF847F4E-D23C-40FA-8597-1D02BA148938";
paths = (
{
closed = 1;
nodes = (
"230 1130 LINE",
"230 1032 LINE",
"1070 1032 LINE",
"1070 1130 LINE",
"1070 1130 LINE"
);
},
{
closed = 1;
nodes = (
"348 517 LINE SMOOTH",
"348 742 OFFCURVE",
"650 742 QCURVE SMOOTH",
"952 742 OFFCURVE",
"952 517 QCURVE SMOOTH",
"952 0 LINE",
"1070 0 LINE",
"1070 517 LINE SMOOTH",
"1070 840 OFFCURVE",
"650 840 QCURVE SMOOTH",
"230 840 OFFCURVE",
"230 517 QCURVE SMOOTH",
"230 0 LINE",
"348 0 LINE",
"348 36 LINE",
"371 132 OFFCURVE",
"491 262 OFFCURVE",
"586 262 QCURVE SMOOTH",
"660 262 LINE",
"660 360 LINE",
"586 360 LINE SMOOTH",
"447 360 OFFCURVE",
"348 230 QCURVE",
"348 230 LINE"
);
}
);
width = 1300;
},
{
layerId = "3BE6379C-89A1-45B5-97C8-F079248A4F49";
paths = (
{
closed = 1;
nodes = (
"260 1130 LINE",
"260 1072 LINE",
"1040 1072 LINE",
"1040 1130 LINE",
"1040 1130 LINE"
);
},
{
closed = 1;
nodes = (
"318 517 LINE SMOOTH",
"318 782 OFFCURVE",
"650 782 QCURVE SMOOTH",
"982 782 OFFCURVE",
"982 517 QCURVE SMOOTH",
"982 0 LINE",
"1040 0 LINE",
"1040 517 LINE SMOOTH",
"1040 840 OFFCURVE",
"650 840 QCURVE SMOOTH",
"260 840 OFFCURVE",
"260 517 QCURVE SMOOTH",
"260 0 LINE",
"318 0 LINE",
"318 66 LINE",
"333 116 OFFCURVE",
"404 216 OFFCURVE",
"512 282 OFFCURVE",
"576 282 QCURVE SMOOTH",
"650 282 LINE",
"650 340 LINE",
"576 340 LINE SMOOTH",
"417 340 OFFCURVE",
"318 170 QCURVE",
"318 170 LINE"
);
}
);
width = 1300;
}
);
note = uni1782;
unicode = 1782;
},
{
glyphname = uni1783;
lastChange = "2020-02-04 08:34:44 +0000";
layers = (
{
layerId = "372009DC-CA12-41C8-98C7-C44FC6D5F55D";
paths = (
{
closed = 1;
nodes = (
"682 827 LINE",
"772 704 LINE",
"772 323 LINE SMOOTH",
"772 228 OFFCURVE",
"625 228 QCURVE SMOOTH",
"478 228 OFFCURVE",
"478 323 QCURVE SMOOTH",
"478 495 LINE",
"580 677 OFFCURVE",
"580 890 QCURVE SMOOTH",
"580 1160 LINE",
"110 1160 LINE",
"110 932 LINE",
"262 932 LINE",
"262 890 LINE SMOOTH",
"262 698 OFFCURVE",
"110 543 QCURVE",
"110 323 LINE SMOOTH",
"110 0 OFFCURVE",
"625 0 QCURVE SMOOTH",
"850 0 OFFCURVE",
"956 91 QCURVE",
"1062 0 OFFCURVE",
"1287 0 QCURVE SMOOTH",
"1802 0 OFFCURVE",
"1802 323 QCURVE SMOOTH",
"1802 704 LINE SMOOTH",
"1802 772 OFFCURVE",
"1702 826 QCURVE SMOOTH",
"1602 880 LINE",
"1602 932 LINE",
"1802 932 LINE",
"1802 1160 LINE",
"1512 1160 LINE SMOOTH",
"1284 1160 OFFCURVE",
"1284 932 QCURVE SMOOTH",
"1284 827 LINE",
"1434 704 LINE",
"1434 323 LINE SMOOTH",
"1434 228 OFFCURVE",
"1287 228 QCURVE SMOOTH",
"1140 228 OFFCURVE",
"1140 323 QCURVE SMOOTH",
"1140 704 LINE SMOOTH",
"1140 772 OFFCURVE",
"1065 826 QCURVE SMOOTH",
"990 880 LINE",
"990 932 LINE",
"1160 932 LINE",
"1160 1160 LINE",
"900 1160 LINE SMOOTH",
"682 1160 OFFCURVE",
"682 962 QCURVE",
"682 962 LINE"
);
}
);
width = 1912;
},
{
layerId = "A36153DC-C9CC-437F-8D19-86D84E7E38EA";
paths = (
{
closed = 1;
nodes = (
"692 827 LINE",
"802 704 LINE",
"802 323 LINE SMOOTH",
"802 198 OFFCURVE",
"625 198 QCURVE SMOOTH",
"448 198 OFFCURVE",
"448 323 QCURVE SMOOTH",
"448 495 LINE",
"560 677 OFFCURVE",
"560 890 QCURVE SMOOTH",
"560 1130 LINE",
"140 1130 LINE",
"140 932 LINE",
"292 932 LINE",
"292 890 LINE SMOOTH",
"292 697 OFFCURVE",
"140 543 QCURVE",
"140 323 LINE SMOOTH",
"140 0 OFFCURVE",
"625 0 QCURVE SMOOTH",
"850 0 OFFCURVE",
"956 91 QCURVE",
"1062 0 OFFCURVE",
"1287 0 QCURVE SMOOTH",
"1772 0 OFFCURVE",
"1772 323 QCURVE SMOOTH",
"1772 704 LINE SMOOTH",
"1772 772 OFFCURVE",
"1672 826 QCURVE SMOOTH",
"1572 880 LINE",
"1572 932 LINE",
"1772 932 LINE",
"1772 1130 LINE",
"1512 1130 LINE SMOOTH",
"1304 1130 OFFCURVE",
"1304 932 QCURVE SMOOTH",
"1304 827 LINE",
"1464 704 LINE",
"1464 323 LINE SMOOTH",
"1464 198 OFFCURVE",
"1287 198 QCURVE SMOOTH",
"1110 198 OFFCURVE",
"1110 323 QCURVE SMOOTH",
"1110 704 LINE SMOOTH",
"1110 772 OFFCURVE",
"1035 826 QCURVE SMOOTH",
"960 880 LINE",
"960 932 LINE",
"1160 932 LINE",
"1160 1130 LINE",
"900 1130 LINE SMOOTH",
"692 1130 OFFCURVE",
"692 962 QCURVE",
"692 962 LINE"
);
}
);
width = 1912;
},
{
layerId = "607A0539-44D7-4182-901A-4BFA5CCC01F8";
paths = (
{
closed = 1;
nodes = (
"200 962 LINE",
"352 962 LINE",
"352 890 LINE SMOOTH",
"352 697 OFFCURVE",
"200 543 QCURVE",
"200 323 LINE SMOOTH",
"200 0 OFFCURVE",
"625 0 QCURVE SMOOTH",
"850 0 OFFCURVE",
"956 91 QCURVE",
"1062 0 OFFCURVE",
"1287 0 QCURVE SMOOTH",
"1712 0 OFFCURVE",
"1712 323 QCURVE SMOOTH",
"1712 734 LINE SMOOTH",
"1712 793 OFFCURVE",
"1607 851 QCURVE SMOOTH",
"1502 910 LINE",
"1502 992 LINE",
"1712 992 LINE",
"1712 1130 LINE",
"1512 1130 LINE SMOOTH",
"1334 1130 OFFCURVE",
"1334 992 QCURVE SMOOTH",
"1334 857 LINE",
"1524 734 LINE",
"1524 323 LINE SMOOTH",
"1524 138 OFFCURVE",
"1287 138 QCURVE SMOOTH",
"1050 138 OFFCURVE",
"1050 323 QCURVE SMOOTH",
"1050 734 LINE SMOOTH",
"1050 792 OFFCURVE",
"970 851 QCURVE SMOOTH",
"890 910 LINE",
"890 992 LINE",
"1100 992 LINE",
"1100 1130 LINE",
"900 1130 LINE SMOOTH",
"722 1130 OFFCURVE",
"722 992 QCURVE SMOOTH",
"722 857 LINE",
"862 734 LINE",
"862 323 LINE SMOOTH",
"862 138 OFFCURVE",
"625 138 QCURVE SMOOTH",
"388 138 OFFCURVE",
"388 323 QCURVE SMOOTH",
"388 495 LINE",
"520 678 OFFCURVE",
"520 890 QCURVE SMOOTH",
"520 1130 LINE",
"200 1130 LINE",
"200 1130 LINE"
);
}
);
width = 1912;
},
{
layerId = "DF847F4E-D23C-40FA-8597-1D02BA148938";
paths = (
{
closed = 1;
nodes = (
"1052 0 OFFCURVE",
"1292 0 QCURVE SMOOTH",
"1682 0 OFFCURVE",
"1682 323 QCURVE SMOOTH",
"1682 714 LINE SMOOTH",
"1682 802 OFFCURVE",
"1582 856 QCURVE SMOOTH",
"1482 910 LINE",
"1482 992 LINE SMOOTH",
"1482 1032 OFFCURVE",
"1532 1032 QCURVE SMOOTH",
"1682 1032 LINE",
"1682 1130 LINE",
"1532 1130 LINE SMOOTH",
"1374 1130 OFFCURVE",
"1374 992 QCURVE SMOOTH",
"1374 857 LINE",
"1517 772 LINE SMOOTH",
"1564 743 OFFCURVE",
"1564 714 QCURVE SMOOTH",
"1564 323 LINE SMOOTH",
"1564 98 OFFCURVE",
"1292 98 QCURVE SMOOTH",
"1020 98 OFFCURVE",
"1020 323 QCURVE SMOOTH",
"1020 714 LINE SMOOTH",
"1020 802 OFFCURVE",
"945 856 QCURVE SMOOTH",
"870 910 LINE",
"870 992 LINE SMOOTH",
"870 1032 OFFCURVE",
"920 1032 QCURVE SMOOTH",
"1110 1032 LINE",
"1110 1130 LINE",
"920 1130 LINE SMOOTH",
"762 1130 OFFCURVE",
"762 992 QCURVE SMOOTH",
"762 857 LINE",
"867 772 LINE SMOOTH",
"902 743 OFFCURVE",
"902 714 QCURVE SMOOTH",
"902 323 LINE SMOOTH",
"902 98 OFFCURVE",
"625 98 QCURVE SMOOTH",
"348 98 OFFCURVE",
"348 323 QCURVE SMOOTH",
"348 615 LINE",
"480 798 OFFCURVE",
"480 910 QCURVE SMOOTH",
"480 1130 LINE",
"230 1130 LINE",
"230 1032 LINE",
"382 1032 LINE",
"382 910 LINE SMOOTH",
"382 817 OFFCURVE",
"230 663 QCURVE",
"230 323 LINE SMOOTH",
"230 0 OFFCURVE",
"625 0 QCURVE SMOOTH",
"867 0 OFFCURVE",
"961 121 QCURVE",
"961 121 LINE"
);
}
);
width = 1912;
},
{
layerId = "3BE6379C-89A1-45B5-97C8-F079248A4F49";
paths = (
{
closed = 1;
nodes = (
"960 714 LINE SMOOTH",
"960 785 OFFCURVE",
"880 842 QCURVE SMOOTH",
"800 899 LINE",
"800 992 LINE SMOOTH",
"800 1072 OFFCURVE",
"890 1072 QCURVE SMOOTH",
"1050 1072 LINE",
"1050 1130 LINE",
"890 1130 LINE SMOOTH",
"742 1130 OFFCURVE",
"742 992 QCURVE SMOOTH",
"742 869 LINE",
"842 797 LINE SMOOTH",
"902 753 OFFCURVE",
"902 714 QCURVE SMOOTH",
"902 323 LINE SMOOTH",
"902 58 OFFCURVE",
"610 58 QCURVE SMOOTH",
"318 58 OFFCURVE",
"318 323 QCURVE SMOOTH",
"318 615 LINE",
"450 798 OFFCURVE",
"450 910 QCURVE SMOOTH",
"450 1130 LINE",
"220 1130 LINE",
"220 1072 LINE",
"392 1072 LINE",
"392 910 LINE SMOOTH",
"392 806 OFFCURVE",
"260 633 QCURVE",
"260 323 LINE SMOOTH",
"260 0 OFFCURVE",
"610 0 QCURVE SMOOTH",
"860 0 OFFCURVE",
"931 165 QCURVE",
"1005 0 OFFCURVE",
"1262 0 QCURVE SMOOTH",
"1622 0 OFFCURVE",
"1622 323 QCURVE SMOOTH",
"1622 714 LINE SMOOTH",
"1622 769 OFFCURVE",
"1512 837 QCURVE SMOOTH",
"1402 903 LINE",
"1402 992 LINE SMOOTH",
"1402 1072 OFFCURVE",
"1502 1072 QCURVE SMOOTH",
"1652 1072 LINE",
"1652 1130 LINE",
"1502 1130 LINE SMOOTH",
"1344 1130 OFFCURVE",
"1344 992 QCURVE SMOOTH",
"1344 869 LINE",
"1482 786 LINE SMOOTH",
"1564 737 OFFCURVE",
"1564 714 QCURVE SMOOTH",
"1564 323 LINE SMOOTH",
"1564 58 OFFCURVE",
"1262 58 QCURVE SMOOTH",
"960 58 OFFCURVE",
"960 323 QCURVE",
"960 323 LINE"
);
}
);
width = 1912;
}
);
note = uni1783;
unicode = 1783;
},
{
glyphname = uni1784;
lastChange = "2020-02-04 08:34:44 +0000";
layers = (
{
layerId = "372009DC-CA12-41C8-98C7-C44FC6D5F55D";
paths = (
{
closed = 1;
nodes = (
"478 294 LINE",
"478 610 LINE",
"50 610 LINE",
"50 466 LINE",
"110 466 LINE",
"110 0 LINE",
"509 0 LINE",
"651 160 LINE",
"792 0 LINE",
"1190 0 LINE",
"1190 630 LINE",
"1057 791 LINE",
"1140 859 OFFCURVE",
"1140 958 QCURVE SMOOTH",
"1140 1160 OFFCURVE",
"861 1160 QCURVE SMOOTH",
"619 1160 OFFCURVE",
"619 983 QCURVE SMOOTH",
"619 954 OFFCURVE",
"655 894 QCURVE",
"650 893 OFFCURVE",
"620 893 QCURVE SMOOTH",
"478 893 OFFCURVE",
"478 992 QCURVE SMOOTH",
"478 1340 LINE",
"110 1340 LINE",
"110 992 LINE SMOOTH",
"110 675 OFFCURVE",
"620 675 QCURVE SMOOTH",
"672 675 OFFCURVE",
"766 685 QCURVE",
"822 560 LINE",
"822 295 LINE",
"651 455 LINE",
"651 455 LINE"
);
},
{
closed = 1;
nodes = (
"902 953 OFFCURVE",
"864 918 QCURVE",
"819 962 OFFCURVE",
"819 982 QCURVE SMOOTH",
"819 1012 OFFCURVE",
"861 1012 QCURVE SMOOTH",
"902 1012 OFFCURVE",
"902 978 QCURVE",
"902 978 LINE"
);
}
);
width = 1300;
},
{
layerId = "A36153DC-C9CC-437F-8D19-86D84E7E38EA";
paths = (
{
closed = 1;
nodes = (
"140 466 LINE",
"140 0 LINE",
"479 0 LINE",
"651 160 LINE",
"822 0 LINE",
"1160 0 LINE",
"1160 630 LINE",
"1027 791 LINE",
"1110 859 OFFCURVE",
"1110 958 QCURVE SMOOTH",
"1110 1130 OFFCURVE",
"861 1130 QCURVE SMOOTH",
"660 1130 OFFCURVE",
"628 1028 QCURVE SMOOTH",
"619 1000 OFFCURVE",
"619 963 QCURVE SMOOTH",
"619 914 OFFCURVE",
"655 864 QCURVE",
"644 863 OFFCURVE",
"620 863 QCURVE SMOOTH",
"448 863 OFFCURVE",
"448 992 QCURVE SMOOTH",
"448 1340 LINE",
"140 1340 LINE",
"140 992 LINE SMOOTH",
"140 675 OFFCURVE",
"620 675 QCURVE SMOOTH",
"692 675 OFFCURVE",
"796 685 QCURVE",
"852 560 LINE",
"852 265 LINE",
"651 425 LINE",
"448 264 LINE",
"448 610 LINE",
"50 610 LINE",
"50 466 LINE",
"50 466 LINE"
);
},
{
closed = 1;
nodes = (
"912 933 OFFCURVE",
"864 898 QCURVE",
"809 941 OFFCURVE",
"809 962 QCURVE SMOOTH",
"809 992 OFFCURVE",
"861 992 QCURVE SMOOTH",
"912 992 OFFCURVE",
"912 958 QCURVE",
"912 958 LINE"
);
}
);
width = 1300;
},
{
layerId = "607A0539-44D7-4182-901A-4BFA5CCC01F8";
paths = (
{
closed = 1;
nodes = (
"674 863 OFFCURVE",
"650 863 QCURVE SMOOTH",
"388 863 OFFCURVE",
"388 992 QCURVE SMOOTH",
"388 1340 LINE",
"200 1340 LINE",
"200 992 LINE SMOOTH",
"200 725 OFFCURVE",
"650 725 QCURVE SMOOTH",
"720 725 OFFCURVE",
"796 735 QCURVE",
"912 610 LINE",
"912 167 LINE",
"651 405 LINE",
"388 166 LINE",
"388 660 LINE",
"100 660 LINE",
"100 516 LINE",
"200 516 LINE",
"200 0 LINE",
"419 0 LINE",
"651 210 LINE",
"882 0 LINE",
"1100 0 LINE",
"1100 660 LINE",
"977 791 LINE",
"1050 858 OFFCURVE",
"1050 968 QCURVE SMOOTH",
"1050 1130 OFFCURVE",
"861 1130 QCURVE SMOOTH",
"690 1130 OFFCURVE",
"658 1028 QCURVE SMOOTH",
"649 1000 OFFCURVE",
"649 973 QCURVE SMOOTH",
"649 914 OFFCURVE",
"685 864 QCURVE",
"685 864 LINE"
);
},
{
closed = 1;
nodes = (
"809 941 OFFCURVE",
"809 972 QCURVE SMOOTH",
"809 1012 OFFCURVE",
"861 1012 QCURVE SMOOTH",
"912 1012 OFFCURVE",
"912 968 QCURVE SMOOTH",
"912 933 OFFCURVE",
"864 898 QCURVE",
"864 898 LINE"
);
}
);
width = 1300;
},
{
layerId = "DF847F4E-D23C-40FA-8597-1D02BA148938";
paths = (
{
closed = 1;
nodes = (
"230 0 LINE",
"348 0 LINE",
"650 277 LINE",
"952 0 LINE",
"1070 0 LINE",
"1070 647 LINE",
"917 814 LINE",
"1009 857 OFFCURVE",
"1020 968 QCURVE",
"1020 1130 OFFCURVE",
"850 1130 QCURVE SMOOTH",
"679 1130 OFFCURVE",
"679 973 QCURVE SMOOTH",
"679 928 OFFCURVE",
"752 849 QCURVE",
"697 823 OFFCURVE",
"620 823 QCURVE SMOOTH",
"348 823 OFFCURVE",
"348 992 QCURVE SMOOTH",
"348 1340 LINE",
"230 1340 LINE",
"230 992 LINE SMOOTH",
"230 725 OFFCURVE",
"620 725 QCURVE SMOOTH",
"716 725 OFFCURVE",
"821 772 QCURVE",
"952 630 LINE",
"952 134 LINE",
"650 411 LINE",
"348 134 LINE",
"348 660 LINE",
"130 660 LINE",
"130 556 LINE",
"230 556 LINE",
"230 556 LINE"
);
},
{
closed = 1;
nodes = (
"922 932 OFFCURVE",
"846 892 QCURVE",
"789 951 OFFCURVE",
"789 972 QCURVE SMOOTH",
"789 1042 OFFCURVE",
"856 1042 QCURVE SMOOTH",
"922 1042 OFFCURVE",
"922 968 QCURVE",
"922 968 LINE"
);
}
);
width = 1300;
},
{
layerId = "3BE6379C-89A1-45B5-97C8-F079248A4F49";
paths = (
{
closed = 1;
nodes = (
"140 596 LINE",
"260 596 LINE",
"260 0 LINE",
"318 0 LINE",
"650 280 LINE",
"982 0 LINE",
"1040 0 LINE",
"1040 654 LINE",
"882 823 LINE",
"1010 892 OFFCURVE",
"1010 988 QCURVE SMOOTH",
"1010 1130 OFFCURVE",
"861 1130 QCURVE SMOOTH",
"711 1130 OFFCURVE",
"711 993 QCURVE SMOOTH",
"711 918 OFFCURVE",
"787 839 QCURVE",
"718 803 OFFCURVE",
"590 803 QCURVE SMOOTH",
"318 803 OFFCURVE",
"318 992 QCURVE SMOOTH",
"318 1340 LINE",
"260 1340 LINE",
"260 992 LINE SMOOTH",
"260 745 OFFCURVE",
"590 745 QCURVE SMOOTH",
"732 745 OFFCURVE",
"829 794 QCURVE",
"982 630 LINE",
"982 76 LINE",
"650 353 LINE",
"318 76 LINE",
"318 660 LINE",
"140 660 LINE",
"140 660 LINE"
);
},
{
closed = 1;
nodes = (
"952 927 OFFCURVE",
"841 868 QCURVE",
"769 942 OFFCURVE",
"769 992 QCURVE SMOOTH",
"769 1072 OFFCURVE",
"861 1072 QCURVE SMOOTH",
"952 1072 OFFCURVE",
"952 988 QCURVE",
"952 988 LINE"
);
}
);
width = 1300;
}
);
note = uni1784;
unicode = 1784;
},
{
glyphname = uni1785;
lastChange = "2020-02-04 08:34:44 +0000";
layers = (
{
layerId = "372009DC-CA12-41C8-98C7-C44FC6D5F55D";
paths = (
{
closed = 1;
nodes = (
"1190 820 LINE",
"700 820 LINE",
"700 582 LINE",
"822 582 LINE",
"822 323 LINE SMOOTH",
"822 228 OFFCURVE",
"650 228 QCURVE SMOOTH",
"478 228 OFFCURVE",
"478 323 QCURVE SMOOTH",
"478 714 LINE SMOOTH",
"478 763 OFFCURVE",
"348 890 QCURVE",
"348 932 LINE",
"1190 932 LINE",
"1190 1160 LINE",
"258 1160 LINE SMOOTH",
"40 1160 OFFCURVE",
"40 972 QCURVE SMOOTH",
"40 847 LINE",
"110 714 LINE",
"110 323 LINE SMOOTH",
"110 0 OFFCURVE",
"650 0 QCURVE SMOOTH",
"1190 0 OFFCURVE",
"1190 323 QCURVE",
"1190 323 LINE"
);
}
);
width = 1300;
},
{
layerId = "A36153DC-C9CC-437F-8D19-86D84E7E38EA";
paths = (
{
closed = 1;
nodes = (
"852 323 LINE SMOOTH",
"852 198 OFFCURVE",
"650 198 QCURVE SMOOTH",
"448 198 OFFCURVE",
"448 323 QCURVE SMOOTH",
"448 714 LINE SMOOTH",
"448 762 OFFCURVE",
"318 890 QCURVE",
"318 932 LINE",
"1160 932 LINE",
"1160 1130 LINE",
"258 1130 LINE SMOOTH",
"60 1130 OFFCURVE",
"60 972 QCURVE SMOOTH",
"60 847 LINE",
"140 714 LINE",
"140 323 LINE SMOOTH",
"140 0 OFFCURVE",
"650 0 QCURVE SMOOTH",
"1160 0 OFFCURVE",
"1160 323 QCURVE SMOOTH",
"1160 820 LINE",
"700 820 LINE",
"700 612 LINE",
"852 612 LINE",
"852 612 LINE"
);
}
);
width = 1300;
},
{
layerId = "607A0539-44D7-4182-901A-4BFA5CCC01F8";
paths = (
{
closed = 1;
nodes = (
"912 323 LINE SMOOTH",
"912 138 OFFCURVE",
"650 138 QCURVE SMOOTH",
"388 138 OFFCURVE",
"388 323 QCURVE SMOOTH",
"388 734 LINE SMOOTH",
"388 782 OFFCURVE",
"258 910 QCURVE",
"258 992 LINE",
"1100 992 LINE",
"1100 1130 LINE",
"258 1130 LINE SMOOTH",
"100 1130 OFFCURVE",
"100 992 QCURVE SMOOTH",
"100 867 LINE",
"200 734 LINE",
"200 323 LINE SMOOTH",
"200 0 OFFCURVE",
"650 0 QCURVE SMOOTH",
"1100 0 OFFCURVE",
"1100 323 QCURVE SMOOTH",
"1100 840 LINE",
"700 840 LINE",
"700 672 LINE",
"912 672 LINE",
"912 672 LINE"
);
}
);
width = 1300;
},
{
layerId = "DF847F4E-D23C-40FA-8597-1D02BA148938";
paths = (
{
closed = 1;
nodes = (
"952 323 LINE SMOOTH",
"952 98 OFFCURVE",
"650 98 QCURVE SMOOTH",
"348 98 OFFCURVE",
"348 323 QCURVE SMOOTH",
"348 714 LINE SMOOTH",
"348 782 OFFCURVE",
"273 846 QCURVE SMOOTH",
"198 910 LINE",
"198 992 LINE SMOOTH",
"198 1032 OFFCURVE",
"248 1032 QCURVE SMOOTH",
"1070 1032 LINE",
"1070 1130 LINE",
"248 1130 LINE SMOOTH",
"100 1130 OFFCURVE",
"100 992 QCURVE SMOOTH",
"100 867 LINE",
"198 775 LINE SMOOTH",
"230 744 OFFCURVE",
"230 714 QCURVE SMOOTH",
"230 323 LINE SMOOTH",
"230 0 OFFCURVE",
"650 0 QCURVE SMOOTH",
"1070 0 OFFCURVE",
"1070 323 QCURVE SMOOTH",
"1070 840 LINE",
"700 840 LINE",
"700 732 LINE",
"952 732 LINE",
"952 732 LINE"
);
}
);
width = 1300;
},
{
layerId = "3BE6379C-89A1-45B5-97C8-F079248A4F49";
paths = (
{
closed = 1;
nodes = (
"700 782 LINE",
"982 782 LINE",
"982 323 LINE SMOOTH",
"982 58 OFFCURVE",
"650 58 QCURVE SMOOTH",
"318 58 OFFCURVE",
"318 323 QCURVE SMOOTH",
"318 714 LINE SMOOTH",
"318 785 OFFCURVE",
"238 842 QCURVE SMOOTH",
"158 899 LINE",
"158 992 LINE SMOOTH",
"158 1072 OFFCURVE",
"248 1072 QCURVE SMOOTH",
"1040 1072 LINE",
"1040 1130 LINE",
"248 1130 LINE SMOOTH",
"100 1130 OFFCURVE",
"100 992 QCURVE SMOOTH",
"100 869 LINE",
"200 797 LINE SMOOTH",
"260 754 OFFCURVE",
"260 714 QCURVE SMOOTH",
"260 323 LINE SMOOTH",
"260 0 OFFCURVE",
"650 0 QCURVE SMOOTH",
"1040 0 OFFCURVE",
"1040 323 QCURVE SMOOTH",
"1040 840 LINE",
"700 840 LINE",
"700 840 LINE"
);
}
);
width = 1300;
}
);
note = uni1785;
unicode = 1785;
},
{
glyphname = uni1786;
lastChange = "2020-02-04 08:34:44 +0000";
layers = (
{
layerId = "372009DC-CA12-41C8-98C7-C44FC6D5F55D";
paths = (
{
closed = 1;
nodes = (
"40 847 LINE",
"110 714 LINE",
"110 430 LINE",
"40 430 LINE",
"40 172 LINE",
"110 172 LINE",
"110 0 LINE",
"478 0 LINE",
"478 179 LINE",
"630 0 OFFCURVE",
"770 0 QCURVE SMOOTH",
"1190 0 OFFCURVE",
"1190 323 QCURVE SMOOTH",
"1190 820 LINE",
"700 820 LINE",
"700 582 LINE",
"822 582 LINE",
"822 323 LINE SMOOTH",
"822 228 OFFCURVE",
"770 228 QCURVE SMOOTH",
"708 228 OFFCURVE",
"548 430 QCURVE",
"478 430 LINE",
"478 714 LINE SMOOTH",
"478 763 OFFCURVE",
"348 890 QCURVE",
"348 932 LINE",
"1190 932 LINE",
"1190 1160 LINE",
"258 1160 LINE SMOOTH",
"40 1160 OFFCURVE",
"40 972 QCURVE",
"40 972 LINE"
);
}
);
width = 1300;
},
{
layerId = "A36153DC-C9CC-437F-8D19-86D84E7E38EA";
paths = (
{
closed = 1;
nodes = (
"60 847 LINE",
"140 714 LINE",
"140 400 LINE",
"60 400 LINE",
"60 172 LINE",
"140 172 LINE",
"140 0 LINE",
"448 0 LINE",
"448 179 LINE",
"600 0 OFFCURVE",
"770 0 QCURVE SMOOTH",
"1160 0 OFFCURVE",
"1160 323 QCURVE SMOOTH",
"1160 820 LINE",
"700 820 LINE",
"700 612 LINE",
"852 612 LINE",
"852 323 LINE SMOOTH",
"852 198 OFFCURVE",
"770 198 QCURVE SMOOTH",
"678 198 OFFCURVE",
"518 400 QCURVE",
"448 400 LINE",
"448 714 LINE SMOOTH",
"448 763 OFFCURVE",
"318 890 QCURVE",
"318 932 LINE",
"1160 932 LINE",
"1160 1130 LINE",
"258 1130 LINE SMOOTH",
"60 1130 OFFCURVE",
"60 972 QCURVE",
"60 972 LINE"
);
}
);
width = 1300;
},
{
layerId = "607A0539-44D7-4182-901A-4BFA5CCC01F8";
paths = (
{
closed = 1;
nodes = (
"388 400 LINE",
"388 734 LINE SMOOTH",
"388 783 OFFCURVE",
"258 910 QCURVE",
"258 992 LINE",
"1100 992 LINE",
"1100 1130 LINE",
"258 1130 LINE SMOOTH",
"100 1130 OFFCURVE",
"100 992 QCURVE SMOOTH",
"100 867 LINE",
"200 734 LINE",
"200 400 LINE",
"100 400 LINE",
"100 232 LINE",
"200 232 LINE",
"200 0 LINE",
"388 0 LINE",
"388 239 LINE",
"600 0 OFFCURVE",
"770 0 QCURVE SMOOTH",
"1100 0 OFFCURVE",
"1100 323 QCURVE SMOOTH",
"1100 840 LINE",
"700 840 LINE",
"700 672 LINE",
"912 672 LINE",
"912 323 LINE SMOOTH",
"912 138 OFFCURVE",
"770 138 QCURVE SMOOTH",
"678 138 OFFCURVE",
"488 400 QCURVE",
"488 400 LINE"
);
}
);
width = 1300;
},
{
layerId = "DF847F4E-D23C-40FA-8597-1D02BA148938";
paths = (
{
closed = 1;
nodes = (
"700 732 LINE",
"952 732 LINE",
"952 323 LINE SMOOTH",
"952 98 OFFCURVE",
"790 98 QCURVE SMOOTH",
"678 98 OFFCURVE",
"468 380 QCURVE",
"348 380 LINE",
"348 714 LINE SMOOTH",
"348 782 OFFCURVE",
"273 846 QCURVE SMOOTH",
"198 910 LINE",
"198 992 LINE SMOOTH",
"198 1032 OFFCURVE",
"248 1032 QCURVE SMOOTH",
"1070 1032 LINE",
"1070 1130 LINE",
"248 1130 LINE SMOOTH",
"100 1130 OFFCURVE",
"100 992 QCURVE SMOOTH",
"100 867 LINE",
"198 775 LINE SMOOTH",
"230 743 OFFCURVE",
"230 714 QCURVE SMOOTH",
"230 380 LINE",
"100 380 LINE",
"100 282 LINE",
"230 282 LINE",
"230 0 LINE",
"348 0 LINE",
"348 289 LINE",
"418 289 LINE",
"629 0 OFFCURVE",
"790 0 QCURVE SMOOTH",
"1070 0 OFFCURVE",
"1070 323 QCURVE SMOOTH",
"1070 840 LINE",
"700 840 LINE",
"700 840 LINE"
);
}
);
width = 1300;
},
{
layerId = "3BE6379C-89A1-45B5-97C8-F079248A4F49";
paths = (
{
closed = 1;
nodes = (
"260 380 LINE",
"100 380 LINE",
"100 322 LINE",
"260 322 LINE",
"260 0 LINE",
"318 0 LINE",
"318 329 LINE",
"428 329 LINE",
"640 0 OFFCURVE",
"810 0 QCURVE SMOOTH",
"1040 0 OFFCURVE",
"1040 323 QCURVE SMOOTH",
"1040 840 LINE",
"700 840 LINE",
"700 782 LINE",
"982 782 LINE",
"982 323 LINE SMOOTH",
"982 58 OFFCURVE",
"810 58 QCURVE SMOOTH",
"668 58 OFFCURVE",
"458 380 QCURVE",
"318 380 LINE",
"318 714 LINE SMOOTH",
"318 785 OFFCURVE",
"238 842 QCURVE SMOOTH",
"158 899 LINE",
"158 992 LINE SMOOTH",
"158 1072 OFFCURVE",
"248 1072 QCURVE SMOOTH",
"1040 1072 LINE",
"1040 1130 LINE",
"248 1130 LINE SMOOTH",
"100 1130 OFFCURVE",
"100 992 QCURVE SMOOTH",
"100 869 LINE",
"200 797 LINE SMOOTH",
"260 754 OFFCURVE",
"260 714 QCURVE",
"260 714 LINE"
);
}
);
width = 1300;
}
);
note = uni1786;
unicode = 1786;
},
{
glyphname = uni1787;
lastChange = "2020-02-04 08:34:44 +0000";
layers = (
{
layerId = "372009DC-CA12-41C8-98C7-C44FC6D5F55D";
paths = (
{
closed = 1;
nodes = (
"509 0 LINE",
"651 160 LINE",
"792 0 LINE",
"1190 0 LINE",
"1190 780 LINE",
"822 780 LINE",
"822 295 LINE",
"651 455 LINE",
"478 294 LINE",
"478 714 LINE SMOOTH",
"478 763 OFFCURVE",
"348 890 QCURVE",
"348 932 LINE",
"385 932 LINE SMOOTH",
"415 932 OFFCURVE",
"543 902 QCURVE SMOOTH",
"651 872 OFFCURVE",
"750 872 QCURVE SMOOTH",
"1190 872 OFFCURVE",
"1190 1205 QCURVE SMOOTH",
"1190 1280 LINE",
"822 1280 LINE",
"822 1205 LINE SMOOTH",
"822 1100 OFFCURVE",
"740 1100 QCURVE SMOOTH",
"580 1100 OFFCURVE",
"501 1130 QCURVE",
"402 1160 OFFCURVE",
"355 1160 QCURVE SMOOTH",
"258 1160 LINE SMOOTH",
"40 1160 OFFCURVE",
"40 972 QCURVE SMOOTH",
"40 847 LINE",
"110 714 LINE",
"110 0 LINE",
"110 0 LINE"
);
}
);
width = 1300;
},
{
layerId = "A36153DC-C9CC-437F-8D19-86D84E7E38EA";
paths = (
{
closed = 1;
nodes = (
"1160 780 LINE",
"852 780 LINE",
"852 265 LINE",
"651 425 LINE",
"448 264 LINE",
"448 714 LINE SMOOTH",
"448 763 OFFCURVE",
"318 890 QCURVE",
"318 932 LINE",
"355 932 LINE SMOOTH",
"386 932 OFFCURVE",
"513 902 QCURVE SMOOTH",
"641 872 OFFCURVE",
"770 872 QCURVE SMOOTH",
"1160 872 OFFCURVE",
"1160 1175 QCURVE SMOOTH",
"1160 1280 LINE",
"852 1280 LINE",
"852 1175 LINE SMOOTH",
"852 1070 OFFCURVE",
"760 1070 QCURVE SMOOTH",
"600 1070 OFFCURVE",
"501 1100 QCURVE SMOOTH",
"402 1130 OFFCURVE",
"355 1130 QCURVE SMOOTH",
"258 1130 LINE SMOOTH",
"60 1130 OFFCURVE",
"60 972 QCURVE SMOOTH",
"60 847 LINE",
"140 714 LINE",
"140 0 LINE",
"479 0 LINE",
"651 160 LINE",
"822 0 LINE",
"1160 0 LINE",
"1160 0 LINE"
);
}
);
width = 1300;
},
{
layerId = "607A0539-44D7-4182-901A-4BFA5CCC01F8";
paths = (
{
closed = 1;
nodes = (
"651 405 LINE",
"388 166 LINE",
"388 734 LINE SMOOTH",
"388 783 OFFCURVE",
"258 910 QCURVE",
"258 992 LINE",
"355 992 LINE SMOOTH",
"386 992 OFFCURVE",
"513 962 QCURVE SMOOTH",
"641 932 OFFCURVE",
"770 932 QCURVE SMOOTH",
"1100 932 OFFCURVE",
"1100 1175 QCURVE SMOOTH",
"1100 1280 LINE",
"912 1280 LINE",
"912 1175 LINE SMOOTH",
"912 1070 OFFCURVE",
"760 1070 QCURVE SMOOTH",
"600 1070 OFFCURVE",
"501 1100 QCURVE SMOOTH",
"402 1130 OFFCURVE",
"355 1130 QCURVE SMOOTH",
"258 1130 LINE SMOOTH",
"100 1130 OFFCURVE",
"100 992 QCURVE SMOOTH",
"100 867 LINE",
"200 734 LINE",
"200 0 LINE",
"419 0 LINE",
"651 210 LINE",
"882 0 LINE",
"1100 0 LINE",
"1100 800 LINE",
"912 800 LINE",
"912 167 LINE",
"912 167 LINE"
);
}
);
width = 1300;
},
{
layerId = "DF847F4E-D23C-40FA-8597-1D02BA148938";
paths = (
{
closed = 1;
nodes = (
"1070 840 LINE",
"952 840 LINE",
"952 134 LINE",
"650 411 LINE",
"348 134 LINE",
"348 714 LINE SMOOTH",
"348 782 OFFCURVE",
"273 846 QCURVE SMOOTH",
"198 910 LINE",
"198 992 LINE SMOOTH",
"198 1032 OFFCURVE",
"248 1032 QCURVE SMOOTH",
"355 1032 LINE SMOOTH",
"386 1032 OFFCURVE",
"513 1002 QCURVE SMOOTH",
"641 972 OFFCURVE",
"770 972 QCURVE SMOOTH",
"1070 972 OFFCURVE",
"1070 1175 QCURVE SMOOTH",
"1070 1280 LINE",
"952 1280 LINE",
"952 1175 LINE SMOOTH",
"952 1070 OFFCURVE",
"760 1070 QCURVE SMOOTH",
"600 1070 OFFCURVE",
"501 1100 QCURVE SMOOTH",
"402 1130 OFFCURVE",
"355 1130 QCURVE SMOOTH",
"248 1130 LINE SMOOTH",
"100 1130 OFFCURVE",
"100 992 QCURVE SMOOTH",
"100 867 LINE",
"198 775 LINE SMOOTH",
"230 743 OFFCURVE",
"230 714 QCURVE SMOOTH",
"230 0 LINE",
"348 0 LINE",
"650 277 LINE",
"952 0 LINE",
"1070 0 LINE",
"1070 0 LINE"
);
}
);
width = 1300;
},
{
layerId = "3BE6379C-89A1-45B5-97C8-F079248A4F49";
paths = (
{
closed = 1;
nodes = (
"248 1130 LINE SMOOTH",
"100 1130 OFFCURVE",
"100 992 QCURVE SMOOTH",
"100 869 LINE",
"200 797 LINE SMOOTH",
"260 754 OFFCURVE",
"260 714 QCURVE SMOOTH",
"260 0 LINE",
"318 0 LINE",
"650 280 LINE",
"982 0 LINE",
"1040 0 LINE",
"1040 840 LINE",
"982 840 LINE",
"982 76 LINE",
"650 353 LINE",
"318 76 LINE",
"318 714 LINE SMOOTH",
"318 785 OFFCURVE",
"238 842 QCURVE SMOOTH",
"158 899 LINE",
"158 992 LINE SMOOTH",
"158 1072 OFFCURVE",
"248 1072 QCURVE SMOOTH",
"355 1072 LINE SMOOTH",
"387 1072 OFFCURVE",
"513 1032 QCURVE SMOOTH",
"639 992 OFFCURVE",
"770 992 QCURVE SMOOTH",
"1040 992 OFFCURVE",
"1040 1175 QCURVE SMOOTH",
"1040 1280 LINE",
"982 1280 LINE",
"982 1175 LINE SMOOTH",
"982 1050 OFFCURVE",
"760 1050 QCURVE SMOOTH",
"599 1050 OFFCURVE",
"501 1090 QCURVE SMOOTH",
"403 1130 OFFCURVE",
"355 1130 QCURVE",
"355 1130 LINE"
);
}
);
width = 1300;
}
);
note = uni1787;
unicode = 1787;
},
{
glyphname = uni1788;
lastChange = "2020-02-04 08:34:44 +0000";
layers = (
{
layerId = "372009DC-CA12-41C8-98C7-C44FC6D5F55D";
paths = (
{
closed = 1;
nodes = (
"1946 827 LINE",
"2096 704 LINE",
"2096 323 LINE SMOOTH",
"2096 228 OFFCURVE",
"1949 228 QCURVE SMOOTH",
"1802 228 OFFCURVE",
"1802 323 QCURVE SMOOTH",
"1802 704 LINE SMOOTH",
"1802 772 OFFCURVE",
"1702 826 QCURVE SMOOTH",
"1602 880 LINE",
"1602 932 LINE",
"1802 932 LINE",
"1802 1160 LINE",
"1512 1160 LINE SMOOTH",
"1284 1160 OFFCURVE",
"1284 932 QCURVE SMOOTH",
"1284 827 LINE",
"1434 704 LINE",
"1434 323 LINE SMOOTH",
"1434 228 OFFCURVE",
"1287 228 QCURVE SMOOTH",
"1140 228 OFFCURVE",
"1140 323 QCURVE SMOOTH",
"1140 807 LINE SMOOTH",
"1140 1160 OFFCURVE",
"625 1160 QCURVE SMOOTH",
"110 1160 OFFCURVE",
"110 807 QCURVE SMOOTH",
"110 298 LINE SMOOTH",
"110 0 OFFCURVE",
"470 0 QCURVE SMOOTH",
"600 0 LINE",
"600 228 LINE",
"530 228 LINE SMOOTH",
"478 228 OFFCURVE",
"478 298 QCURVE SMOOTH",
"478 807 LINE SMOOTH",
"478 932 OFFCURVE",
"625 932 QCURVE SMOOTH",
"772 932 OFFCURVE",
"772 807 QCURVE SMOOTH",
"772 323 LINE SMOOTH",
"772 0 OFFCURVE",
"1287 0 QCURVE SMOOTH",
"1512 0 OFFCURVE",
"1618 91 QCURVE",
"1724 0 OFFCURVE",
"1949 0 QCURVE SMOOTH",
"2464 0 OFFCURVE",
"2464 323 QCURVE SMOOTH",
"2464 704 LINE SMOOTH",
"2464 772 OFFCURVE",
"2364 826 QCURVE SMOOTH",
"2264 880 LINE",
"2264 932 LINE",
"2464 932 LINE",
"2464 1160 LINE",
"2174 1160 LINE SMOOTH",
"1946 1160 OFFCURVE",
"1946 932 QCURVE",
"1946 932 LINE"
);
}
);
width = 2574;
},
{
layerId = "A36153DC-C9CC-437F-8D19-86D84E7E38EA";
paths = (
{
closed = 1;
nodes = (
"1966 827 LINE",
"2126 704 LINE",
"2126 323 LINE SMOOTH",
"2126 198 OFFCURVE",
"1949 198 QCURVE SMOOTH",
"1772 198 OFFCURVE",
"1772 323 QCURVE SMOOTH",
"1772 704 LINE SMOOTH",
"1772 772 OFFCURVE",
"1672 826 QCURVE SMOOTH",
"1572 880 LINE",
"1572 932 LINE",
"1772 932 LINE",
"1772 1130 LINE",
"1512 1130 LINE SMOOTH",
"1304 1130 OFFCURVE",
"1304 932 QCURVE SMOOTH",
"1304 827 LINE",
"1464 704 LINE",
"1464 323 LINE SMOOTH",
"1464 198 OFFCURVE",
"1287 198 QCURVE SMOOTH",
"1110 198 OFFCURVE",
"1110 323 QCURVE SMOOTH",
"1110 807 LINE SMOOTH",
"1110 1130 OFFCURVE",
"625 1130 QCURVE SMOOTH",
"140 1130 OFFCURVE",
"140 807 QCURVE SMOOTH",
"140 298 LINE SMOOTH",
"140 0 OFFCURVE",
"470 0 QCURVE SMOOTH",
"600 0 LINE",
"600 228 LINE",
"530 228 LINE SMOOTH",
"448 228 OFFCURVE",
"448 298 QCURVE SMOOTH",
"448 807 LINE SMOOTH",
"448 932 OFFCURVE",
"625 932 QCURVE SMOOTH",
"802 932 OFFCURVE",
"802 807 QCURVE SMOOTH",
"802 323 LINE SMOOTH",
"802 0 OFFCURVE",
"1287 0 QCURVE SMOOTH",
"1512 0 OFFCURVE",
"1618 91 QCURVE",
"1724 0 OFFCURVE",
"1949 0 QCURVE SMOOTH",
"2434 0 OFFCURVE",
"2434 323 QCURVE SMOOTH",
"2434 704 LINE SMOOTH",
"2434 772 OFFCURVE",
"2334 826 QCURVE SMOOTH",
"2234 880 LINE",
"2234 932 LINE",
"2434 932 LINE",
"2434 1130 LINE",
"2174 1130 LINE SMOOTH",
"1966 1130 OFFCURVE",
"1966 932 QCURVE",
"1966 932 LINE"
);
}
);
width = 2574;
},
{
layerId = "607A0539-44D7-4182-901A-4BFA5CCC01F8";
paths = (
{
closed = 1;
nodes = (
"1996 857 LINE",
"2186 734 LINE",
"2186 323 LINE SMOOTH",
"2186 138 OFFCURVE",
"1949 138 QCURVE SMOOTH",
"1712 138 OFFCURVE",
"1712 323 QCURVE SMOOTH",
"1712 734 LINE SMOOTH",
"1712 793 OFFCURVE",
"1612 851 QCURVE SMOOTH",
"1512 910 LINE",
"1512 992 LINE",
"1712 992 LINE",
"1712 1130 LINE",
"1512 1130 LINE SMOOTH",
"1334 1130 OFFCURVE",
"1334 992 QCURVE SMOOTH",
"1334 857 LINE",
"1524 734 LINE",
"1524 323 LINE SMOOTH",
"1524 138 OFFCURVE",
"1287 138 QCURVE SMOOTH",
"1050 138 OFFCURVE",
"1050 323 QCURVE SMOOTH",
"1050 807 LINE SMOOTH",
"1050 1130 OFFCURVE",
"625 1130 QCURVE SMOOTH",
"200 1130 OFFCURVE",
"200 807 QCURVE SMOOTH",
"200 238 LINE SMOOTH",
"200 0 OFFCURVE",
"470 0 QCURVE SMOOTH",
"600 0 LINE",
"600 168 LINE",
"470 168 LINE SMOOTH",
"388 168 OFFCURVE",
"388 238 QCURVE SMOOTH",
"388 807 LINE SMOOTH",
"388 992 OFFCURVE",
"625 992 QCURVE SMOOTH",
"862 992 OFFCURVE",
"862 807 QCURVE SMOOTH",
"862 323 LINE SMOOTH",
"862 0 OFFCURVE",
"1287 0 QCURVE SMOOTH",
"1512 0 OFFCURVE",
"1618 91 QCURVE",
"1724 0 OFFCURVE",
"1949 0 QCURVE SMOOTH",
"2374 0 OFFCURVE",
"2374 323 QCURVE SMOOTH",
"2374 734 LINE SMOOTH",
"2374 793 OFFCURVE",
"2274 851 QCURVE SMOOTH",
"2174 910 LINE",
"2174 992 LINE",
"2374 992 LINE",
"2374 1130 LINE",
"2174 1130 LINE SMOOTH",
"1996 1130 OFFCURVE",
"1996 992 QCURVE",
"1996 992 LINE"
);
}
);
width = 2574;
},
{
layerId = "DF847F4E-D23C-40FA-8597-1D02BA148938";
paths = (
{
closed = 1;
nodes = (
"1564 323 LINE SMOOTH",
"1564 98 OFFCURVE",
"1292 98 QCURVE SMOOTH",
"1020 98 OFFCURVE",
"1020 323 QCURVE SMOOTH",
"1020 807 LINE SMOOTH",
"1020 1130 OFFCURVE",
"625 1130 QCURVE SMOOTH",
"230 1130 OFFCURVE",
"230 807 QCURVE SMOOTH",
"230 238 LINE SMOOTH",
"230 0 OFFCURVE",
"470 0 QCURVE SMOOTH",
"600 0 LINE",
"600 108 LINE",
"470 108 LINE SMOOTH",
"348 108 OFFCURVE",
"348 238 QCURVE SMOOTH",
"348 807 LINE SMOOTH",
"348 1032 OFFCURVE",
"625 1032 QCURVE SMOOTH",
"902 1032 OFFCURVE",
"902 807 QCURVE SMOOTH",
"902 323 LINE SMOOTH",
"902 0 OFFCURVE",
"1292 0 QCURVE SMOOTH",
"1530 0 OFFCURVE",
"1623 121 QCURVE",
"1716 0 OFFCURVE",
"1954 0 QCURVE SMOOTH",
"2344 0 OFFCURVE",
"2344 323 QCURVE SMOOTH",
"2344 714 LINE SMOOTH",
"2344 802 OFFCURVE",
"2244 856 QCURVE SMOOTH",
"2144 910 LINE",
"2144 992 LINE SMOOTH",
"2144 1032 OFFCURVE",
"2194 1032 QCURVE SMOOTH",
"2344 1032 LINE",
"2344 1130 LINE",
"2194 1130 LINE SMOOTH",
"2036 1130 OFFCURVE",
"2036 992 QCURVE SMOOTH",
"2036 857 LINE",
"2179 772 LINE SMOOTH",
"2226 743 OFFCURVE",
"2226 714 QCURVE SMOOTH",
"2226 323 LINE SMOOTH",
"2226 98 OFFCURVE",
"1954 98 QCURVE SMOOTH",
"1682 98 OFFCURVE",
"1682 323 QCURVE SMOOTH",
"1682 714 LINE SMOOTH",
"1682 802 OFFCURVE",
"1582 856 QCURVE SMOOTH",
"1482 910 LINE",
"1482 992 LINE SMOOTH",
"1482 1032 OFFCURVE",
"1532 1032 QCURVE SMOOTH",
"1682 1032 LINE",
"1682 1130 LINE",
"1532 1130 LINE SMOOTH",
"1374 1130 OFFCURVE",
"1374 992 QCURVE SMOOTH",
"1374 857 LINE",
"1517 772 LINE SMOOTH",
"1564 743 OFFCURVE",
"1564 714 QCURVE",
"1564 714 LINE"
);
}
);
width = 2574;
},
{
layerId = "3BE6379C-89A1-45B5-97C8-F079248A4F49";
paths = (
{
closed = 1;
nodes = (
"1594 323 LINE SMOOTH",
"1594 58 OFFCURVE",
"1292 58 QCURVE SMOOTH",
"990 58 OFFCURVE",
"990 323 QCURVE SMOOTH",
"990 807 LINE SMOOTH",
"990 1130 OFFCURVE",
"625 1130 QCURVE SMOOTH",
"260 1130 OFFCURVE",
"260 807 QCURVE SMOOTH",
"260 238 LINE SMOOTH",
"260 0 OFFCURVE",
"470 0 QCURVE SMOOTH",
"600 0 LINE",
"600 58 LINE",
"470 58 LINE SMOOTH",
"318 58 OFFCURVE",
"318 238 QCURVE SMOOTH",
"318 807 LINE SMOOTH",
"318 1072 OFFCURVE",
"625 1072 QCURVE SMOOTH",
"932 1072 OFFCURVE",
"932 807 QCURVE SMOOTH",
"932 323 LINE SMOOTH",
"932 0 OFFCURVE",
"1292 0 QCURVE SMOOTH",
"1550 0 OFFCURVE",
"1623 166 QCURVE",
"1696 0 OFFCURVE",
"1954 0 QCURVE SMOOTH",
"2314 0 OFFCURVE",
"2314 323 QCURVE SMOOTH",
"2314 714 LINE SMOOTH",
"2314 769 OFFCURVE",
"2204 837 QCURVE SMOOTH",
"2094 903 LINE",
"2094 992 LINE SMOOTH",
"2094 1072 OFFCURVE",
"2194 1072 QCURVE SMOOTH",
"2344 1072 LINE",
"2344 1130 LINE",
"2194 1130 LINE SMOOTH",
"2036 1130 OFFCURVE",
"2036 992 QCURVE SMOOTH",
"2036 869 LINE",
"2174 786 LINE SMOOTH",
"2256 737 OFFCURVE",
"2256 714 QCURVE SMOOTH",
"2256 323 LINE SMOOTH",
"2256 58 OFFCURVE",
"1954 58 QCURVE SMOOTH",
"1652 58 OFFCURVE",
"1652 323 QCURVE SMOOTH",
"1652 714 LINE SMOOTH",
"1652 769 OFFCURVE",
"1542 837 QCURVE SMOOTH",
"1432 903 LINE",
"1432 992 LINE SMOOTH",
"1432 1072 OFFCURVE",
"1532 1072 QCURVE SMOOTH",
"1682 1072 LINE",
"1682 1130 LINE",
"1532 1130 LINE SMOOTH",
"1374 1130 OFFCURVE",
"1374 992 QCURVE SMOOTH",
"1374 869 LINE",
"1512 786 LINE SMOOTH",
"1594 737 OFFCURVE",
"1594 714 QCURVE",
"1594 714 LINE"
);
}
);
width = 2574;
}
);
note = uni1788;
unicode = 1788;
},
{
glyphname = uni1789;
lastChange = "2020-02-04 08:34:44 +0000";
layers = (
{
layerId = "372009DC-CA12-41C8-98C7-C44FC6D5F55D";
paths = (
{
closed = 1;
nodes = (
"1035 1160 OFFCURVE",
"877 1160 QCURVE SMOOTH",
"762 1160 OFFCURVE",
"650 1036 QCURVE",
"539 1160 OFFCURVE",
"425 1160 QCURVE SMOOTH",
"110 1160 OFFCURVE",
"110 833 QCURVE SMOOTH",
"110 298 LINE SMOOTH",
"110 0 OFFCURVE",
"470 0 QCURVE SMOOTH",
"600 0 LINE",
"600 228 LINE",
"530 228 LINE SMOOTH",
"478 228 OFFCURVE",
"478 298 QCURVE SMOOTH",
"478 833 LINE SMOOTH",
"478 900 OFFCURVE",
"494 900 QCURVE SMOOTH",
"510 900 OFFCURVE",
"591 806 QCURVE SMOOTH",
"618 775 OFFCURVE",
"650 775 QCURVE SMOOTH",
"682 775 OFFCURVE",
"709 806 QCURVE SMOOTH",
"791 900 OFFCURVE",
"807 900 QCURVE SMOOTH",
"822 900 OFFCURVE",
"822 833 QCURVE SMOOTH",
"822 0 LINE",
"1190 0 LINE",
"1190 807 LINE SMOOTH",
"1190 932 OFFCURVE",
"1382 932 QCURVE SMOOTH",
"1484 932 OFFCURVE",
"1484 807 QCURVE SMOOTH",
"1484 0 LINE",
"1852 0 LINE",
"1852 807 LINE SMOOTH",
"1852 1160 OFFCURVE",
"1412 1160 QCURVE SMOOTH",
"1250 1160 OFFCURVE",
"1104 1068 QCURVE",
"1104 1068 LINE"
);
},
{
closed = 1;
nodes = (
"1412 -50 LINE",
"1412 -230 LINE",
"1440 -230 LINE SMOOTH",
"1484 -230 OFFCURVE",
"1484 -275 QCURVE SMOOTH",
"1484 -300 OFFCURVE",
"1434 -300 QCURVE SMOOTH",
"1293 -300 OFFCURVE",
"1126 -195 QCURVE SMOOTH",
"960 -90 OFFCURVE",
"612 -90 QCURVE SMOOTH",
"110 -90 LINE",
"110 -330 LINE",
"612 -330 LINE SMOOTH",
"877 -330 OFFCURVE",
"1037 -415 QCURVE SMOOTH",
"1197 -500 OFFCURVE",
"1434 -500 QCURVE SMOOTH",
"1852 -500 OFFCURVE",
"1852 -275 QCURVE SMOOTH",
"1852 -50 OFFCURVE",
"1440 -50 QCURVE",
"1440 -50 LINE"
);
}
);
width = 1962;
},
{
layerId = "A36153DC-C9CC-437F-8D19-86D84E7E38EA";
paths = (
{
closed = 1;
nodes = (
"1035 1130 OFFCURVE",
"877 1130 QCURVE SMOOTH",
"762 1130 OFFCURVE",
"650 1006 QCURVE",
"539 1130 OFFCURVE",
"425 1130 QCURVE SMOOTH",
"140 1130 OFFCURVE",
"140 833 QCURVE SMOOTH",
"140 298 LINE SMOOTH",
"140 0 OFFCURVE",
"470 0 QCURVE SMOOTH",
"600 0 LINE",
"600 228 LINE",
"530 228 LINE SMOOTH",
"448 228 OFFCURVE",
"448 298 QCURVE SMOOTH",
"448 833 LINE SMOOTH",
"448 900 OFFCURVE",
"481 900 QCURVE SMOOTH",
"510 900 OFFCURVE",
"591 806 QCURVE SMOOTH",
"618 775 OFFCURVE",
"650 775 QCURVE SMOOTH",
"682 775 OFFCURVE",
"709 806 QCURVE SMOOTH",
"791 900 OFFCURVE",
"820 900 QCURVE SMOOTH",
"852 900 OFFCURVE",
"852 833 QCURVE SMOOTH",
"852 0 LINE",
"1160 0 LINE",
"1160 807 LINE SMOOTH",
"1160 932 OFFCURVE",
"1382 932 QCURVE SMOOTH",
"1514 932 OFFCURVE",
"1514 807 QCURVE SMOOTH",
"1514 0 LINE",
"1822 0 LINE",
"1822 807 LINE SMOOTH",
"1822 1130 OFFCURVE",
"1382 1130 QCURVE SMOOTH",
"1219 1130 OFFCURVE",
"1104 1038 QCURVE",
"1104 1038 LINE"
);
},
{
closed = 1;
nodes = (
"1412 -50 LINE",
"1412 -230 LINE",
"1440 -230 LINE SMOOTH",
"1514 -230 OFFCURVE",
"1514 -275 QCURVE SMOOTH",
"1514 -320 OFFCURVE",
"1434 -320 QCURVE SMOOTH",
"1292 -320 OFFCURVE",
"1126 -220 QCURVE SMOOTH",
"960 -120 OFFCURVE",
"612 -120 QCURVE SMOOTH",
"140 -120 LINE",
"140 -300 LINE",
"612 -300 LINE SMOOTH",
"877 -300 OFFCURVE",
"1037 -400 QCURVE SMOOTH",
"1197 -500 OFFCURVE",
"1434 -500 QCURVE SMOOTH",
"1822 -500 OFFCURVE",
"1822 -275 QCURVE SMOOTH",
"1822 -50 OFFCURVE",
"1440 -50 QCURVE",
"1440 -50 LINE"
);
}
);
width = 1962;
},
{
layerId = "607A0539-44D7-4182-901A-4BFA5CCC01F8";
paths = (
{
closed = 1;
nodes = (
"200 238 LINE SMOOTH",
"200 0 OFFCURVE",
"470 0 QCURVE SMOOTH",
"600 0 LINE",
"600 168 LINE",
"470 168 LINE SMOOTH",
"388 168 OFFCURVE",
"388 238 QCURVE SMOOTH",
"388 853 LINE SMOOTH",
"388 980 OFFCURVE",
"461 980 QCURVE SMOOTH",
"510 980 OFFCURVE",
"591 886 QCURVE SMOOTH",
"618 855 OFFCURVE",
"650 855 QCURVE SMOOTH",
"682 855 OFFCURVE",
"709 886 QCURVE SMOOTH",
"791 980 OFFCURVE",
"840 980 QCURVE SMOOTH",
"912 980 OFFCURVE",
"912 853 QCURVE SMOOTH",
"912 0 LINE",
"1100 0 LINE",
"1100 807 LINE SMOOTH",
"1100 992 OFFCURVE",
"1362 992 QCURVE SMOOTH",
"1574 992 OFFCURVE",
"1574 807 QCURVE SMOOTH",
"1574 0 LINE",
"1762 0 LINE",
"1762 807 LINE SMOOTH",
"1762 1130 OFFCURVE",
"1362 1130 QCURVE SMOOTH",
"1170 1130 OFFCURVE",
"1060 1032 QCURVE",
"1001 1130 OFFCURVE",
"857 1130 QCURVE SMOOTH",
"762 1130 OFFCURVE",
"650 1006 QCURVE",
"539 1130 OFFCURVE",
"445 1130 QCURVE SMOOTH",
"200 1130 OFFCURVE",
"200 853 QCURVE",
"200 853 LINE"
);
},
{
closed = 1;
nodes = (
"1412 -100 LINE",
"1412 -220 LINE",
"1500 -220 LINE SMOOTH",
"1574 -220 OFFCURVE",
"1574 -280 QCURVE SMOOTH",
"1574 -380 OFFCURVE",
"1434 -380 QCURVE SMOOTH",
"1292 -380 OFFCURVE",
"1126 -280 QCURVE SMOOTH",
"960 -180 OFFCURVE",
"612 -180 QCURVE SMOOTH",
"200 -180 LINE",
"200 -300 LINE",
"612 -300 LINE SMOOTH",
"877 -300 OFFCURVE",
"1037 -400 QCURVE SMOOTH",
"1197 -500 OFFCURVE",
"1434 -500 QCURVE SMOOTH",
"1762 -500 OFFCURVE",
"1762 -280 QCURVE SMOOTH",
"1762 -100 OFFCURVE",
"1500 -100 QCURVE",
"1500 -100 LINE"
);
}
);
width = 1962;
},
{
layerId = "DF847F4E-D23C-40FA-8597-1D02BA148938";
paths = (
{
closed = 1;
nodes = (
"952 0 LINE",
"1070 0 LINE",
"1070 807 LINE SMOOTH",
"1070 1032 OFFCURVE",
"1342 1032 QCURVE SMOOTH",
"1614 1032 OFFCURVE",
"1614 807 QCURVE SMOOTH",
"1614 0 LINE",
"1732 0 LINE",
"1732 807 LINE SMOOTH",
"1732 1130 OFFCURVE",
"1342 1130 QCURVE SMOOTH",
"1131 1130 OFFCURVE",
"1034 1035 QCURVE",
"981 1130 OFFCURVE",
"857 1130 QCURVE SMOOTH",
"763 1130 OFFCURVE",
"650 986 QCURVE",
"539 1130 OFFCURVE",
"445 1130 QCURVE SMOOTH",
"230 1130 OFFCURVE",
"230 853 QCURVE SMOOTH",
"230 238 LINE SMOOTH",
"230 0 OFFCURVE",
"470 0 QCURVE SMOOTH",
"600 0 LINE",
"600 108 LINE",
"470 108 LINE SMOOTH",
"348 108 OFFCURVE",
"348 238 QCURVE SMOOTH",
"348 853 LINE SMOOTH",
"348 1020 OFFCURVE",
"445 1020 QCURVE SMOOTH",
"500 1020 OFFCURVE",
"596 896 QCURVE SMOOTH",
"628 855 OFFCURVE",
"650 855 QCURVE SMOOTH",
"672 855 OFFCURVE",
"704 896 QCURVE SMOOTH",
"801 1020 OFFCURVE",
"857 1020 QCURVE SMOOTH",
"952 1020 OFFCURVE",
"952 853 QCURVE",
"952 853 LINE"
);
},
{
closed = 1;
nodes = (
"1412 -100 LINE",
"1412 -190 LINE",
"1500 -190 LINE SMOOTH",
"1614 -190 OFFCURVE",
"1614 -280 QCURVE SMOOTH",
"1614 -410 OFFCURVE",
"1434 -410 QCURVE SMOOTH",
"1262 -410 OFFCURVE",
"1081 -295 QCURVE SMOOTH",
"900 -180 OFFCURVE",
"612 -180 QCURVE SMOOTH",
"200 -180 LINE",
"200 -270 LINE",
"612 -270 LINE SMOOTH",
"877 -270 OFFCURVE",
"1037 -385 QCURVE SMOOTH",
"1197 -500 OFFCURVE",
"1434 -500 QCURVE SMOOTH",
"1732 -500 OFFCURVE",
"1732 -280 QCURVE SMOOTH",
"1732 -100 OFFCURVE",
"1500 -100 QCURVE",
"1500 -100 LINE"
);
}
);
width = 1962;
},
{
layerId = "3BE6379C-89A1-45B5-97C8-F079248A4F49";
paths = (
{
closed = 1;
nodes = (
"982 0 LINE",
"1040 0 LINE",
"1040 807 LINE SMOOTH",
"1040 1072 OFFCURVE",
"1342 1072 QCURVE SMOOTH",
"1644 1072 OFFCURVE",
"1644 807 QCURVE SMOOTH",
"1644 0 LINE",
"1702 0 LINE",
"1702 807 LINE SMOOTH",
"1702 1130 OFFCURVE",
"1342 1130 QCURVE SMOOTH",
"1106 1130 OFFCURVE",
"1024 991 QCURVE",
"987 1130 OFFCURVE",
"857 1130 QCURVE SMOOTH",
"763 1130 OFFCURVE",
"650 986 QCURVE",
"539 1130 OFFCURVE",
"445 1130 QCURVE SMOOTH",
"260 1130 OFFCURVE",
"260 853 QCURVE SMOOTH",
"260 238 LINE SMOOTH",
"260 0 OFFCURVE",
"470 0 QCURVE SMOOTH",
"600 0 LINE",
"600 58 LINE",
"470 58 LINE SMOOTH",
"318 58 OFFCURVE",
"318 238 QCURVE SMOOTH",
"318 853 LINE SMOOTH",
"318 1072 OFFCURVE",
"445 1072 QCURVE SMOOTH",
"500 1072 OFFCURVE",
"596 954 QCURVE SMOOTH",
"628 915 OFFCURVE",
"650 915 QCURVE SMOOTH",
"673 915 OFFCURVE",
"704 954 QCURVE SMOOTH",
"801 1072 OFFCURVE",
"857 1072 QCURVE SMOOTH",
"982 1072 OFFCURVE",
"982 853 QCURVE",
"982 853 LINE"
);
},
{
closed = 1;
nodes = (
"1412 -70 LINE",
"1412 -128 LINE",
"1500 -128 LINE SMOOTH",
"1644 -128 OFFCURVE",
"1644 -250 QCURVE SMOOTH",
"1644 -392 OFFCURVE",
"1434 -392 QCURVE SMOOTH",
"1224 -392 OFFCURVE",
"1046 -261 QCURVE SMOOTH",
"868 -130 OFFCURVE",
"612 -130 QCURVE SMOOTH",
"260 -130 LINE",
"260 -188 LINE",
"612 -188 LINE SMOOTH",
"876 -188 OFFCURVE",
"1037 -319 QCURVE SMOOTH",
"1198 -450 OFFCURVE",
"1434 -450 QCURVE SMOOTH",
"1702 -450 OFFCURVE",
"1702 -250 QCURVE SMOOTH",
"1702 -70 OFFCURVE",
"1500 -70 QCURVE",
"1500 -70 LINE"
);
}
);
width = 1962;
}
);
note = uni1789;
unicode = 1789;
},
{
glyphname = uni178A;
lastChange = "2020-02-04 08:34:44 +0000";
layers = (
{
layerId = "372009DC-CA12-41C8-98C7-C44FC6D5F55D";
paths = (
{
closed = 1;
nodes = (
"1190 1340 LINE",
"822 1340 LINE",
"822 982 LINE SMOOTH",
"822 883 OFFCURVE",
"650 883 QCURVE SMOOTH",
"478 883 OFFCURVE",
"478 932 QCURVE",
"530 932 LINE",
"530 1160 LINE",
"388 1160 LINE SMOOTH",
"110 1160 OFFCURVE",
"110 932 QCURVE SMOOTH",
"110 665 OFFCURVE",
"650 665 QCURVE SMOOTH",
"1190 665 OFFCURVE",
"1190 982 QCURVE",
"1190 982 LINE"
);
},
{
closed = 1;
nodes = (
"478 600 LINE",
"110 600 LINE",
"110 0 LINE",
"509 0 LINE",
"651 160 LINE",
"792 0 LINE",
"1190 0 LINE",
"1190 600 LINE",
"822 600 LINE",
"822 295 LINE",
"651 455 LINE",
"478 294 LINE",
"478 294 LINE"
);
}
);
width = 1300;
},
{
layerId = "A36153DC-C9CC-437F-8D19-86D84E7E38EA";
paths = (
{
closed = 1;
nodes = (
"852 982 LINE SMOOTH",
"852 883 OFFCURVE",
"650 883 QCURVE SMOOTH",
"448 883 OFFCURVE",
"448 932 QCURVE",
"500 932 LINE",
"500 1130 LINE",
"388 1130 LINE SMOOTH",
"140 1130 OFFCURVE",
"140 932 QCURVE SMOOTH",
"140 685 OFFCURVE",
"650 685 QCURVE SMOOTH",
"1160 685 OFFCURVE",
"1160 982 QCURVE SMOOTH",
"1160 1340 LINE",
"852 1340 LINE",
"852 1340 LINE"
);
},
{
closed = 1;
nodes = (
"140 0 LINE",
"479 0 LINE",
"651 160 LINE",
"822 0 LINE",
"1160 0 LINE",
"1160 620 LINE",
"852 620 LINE",
"852 265 LINE",
"651 425 LINE",
"448 264 LINE",
"448 620 LINE",
"140 620 LINE",
"140 620 LINE"
);
}
);
width = 1300;
},
{
layerId = "607A0539-44D7-4182-901A-4BFA5CCC01F8";
paths = (
{
closed = 1;
nodes = (
"912 992 LINE SMOOTH",
"912 863 OFFCURVE",
"650 863 QCURVE SMOOTH",
"388 863 OFFCURVE",
"388 992 QCURVE",
"500 992 LINE",
"500 1130 LINE",
"388 1130 LINE SMOOTH",
"200 1130 OFFCURVE",
"200 992 QCURVE SMOOTH",
"200 725 OFFCURVE",
"650 725 QCURVE SMOOTH",
"1100 725 OFFCURVE",
"1100 992 QCURVE SMOOTH",
"1100 1340 LINE",
"912 1340 LINE",
"912 1340 LINE"
);
},
{
closed = 1;
nodes = (
"912 660 LINE",
"912 167 LINE",
"651 405 LINE",
"388 166 LINE",
"388 660 LINE",
"200 660 LINE",
"200 0 LINE",
"419 0 LINE",
"651 210 LINE",
"882 0 LINE",
"1100 0 LINE",
"1100 660 LINE",
"1100 660 LINE"
);
}
);
width = 1300;
},
{
layerId = "DF847F4E-D23C-40FA-8597-1D02BA148938";
paths = (
{
closed = 1;
nodes = (
"952 992 LINE SMOOTH",
"952 843 OFFCURVE",
"650 843 QCURVE SMOOTH",
"348 843 OFFCURVE",
"348 992 QCURVE SMOOTH",
"348 1032 OFFCURVE",
"398 1032 QCURVE SMOOTH",
"500 1032 LINE",
"500 1130 LINE",
"398 1130 LINE SMOOTH",
"230 1130 OFFCURVE",
"230 992 QCURVE SMOOTH",
"230 745 OFFCURVE",
"650 745 QCURVE SMOOTH",
"1070 745 OFFCURVE",
"1070 992 QCURVE SMOOTH",
"1070 1340 LINE",
"952 1340 LINE",
"952 1340 LINE"
);
},
{
closed = 1;
nodes = (
"230 0 LINE",
"348 0 LINE",
"650 277 LINE",
"952 0 LINE",
"1070 0 LINE",
"1070 680 LINE",
"952 680 LINE",
"952 134 LINE",
"650 411 LINE",
"348 134 LINE",
"348 680 LINE",
"230 680 LINE",
"230 680 LINE"
);
}
);
width = 1300;
},
{
layerId = "3BE6379C-89A1-45B5-97C8-F079248A4F49";
paths = (
{
closed = 1;
nodes = (
"1040 1340 LINE",
"982 1340 LINE",
"982 992 LINE SMOOTH",
"982 803 OFFCURVE",
"650 803 QCURVE SMOOTH",
"318 803 OFFCURVE",
"318 992 QCURVE SMOOTH",
"318 1072 OFFCURVE",
"418 1072 QCURVE SMOOTH",
"500 1072 LINE",
"500 1130 LINE",
"418 1130 LINE SMOOTH",
"260 1130 OFFCURVE",
"260 992 QCURVE SMOOTH",
"260 745 OFFCURVE",
"650 745 QCURVE SMOOTH",
"1040 745 OFFCURVE",
"1040 992 QCURVE",
"1040 992 LINE"
);
},
{
closed = 1;
nodes = (
"982 680 LINE",
"982 76 LINE",
"650 353 LINE",
"318 76 LINE",
"318 680 LINE",
"260 680 LINE",
"260 0 LINE",
"318 0 LINE",
"650 280 LINE",
"982 0 LINE",
"1040 0 LINE",
"1040 680 LINE",
"1040 680 LINE"
);
}
);
width = 1300;
}
);
note = uni178A;
unicode = 178A;
},
